%TF.GenerationSoftware,KiCad,Pcbnew,(6.0.7)*%
%TF.CreationDate,2025-06-10T03:21:35+09:00*%
%TF.ProjectId,AvatarSense,41766174-6172-4536-956e-73652e6b6963,rev?*%
%TF.SameCoordinates,Original*%
%TF.FileFunction,Paste,Top*%
%TF.FilePolarity,Positive*%
%FSLAX46Y46*%
G04 Gerber Fmt 4.6, Leading zero omitted, Abs format (unit mm)*
G04 Created by KiCad (PCBNEW (6.0.7)) date 2025-06-10 03:21:35*
%MOMM*%
%LPD*%
G01*
G04 APERTURE LIST*
G04 Aperture macros list*
%AMRoundRect*
0 Rectangle with rounded corners*
0 $1 Rounding radius*
0 $2 $3 $4 $5 $6 $7 $8 $9 X,Y pos of 4 corners*
0 Add a 4 corners polygon primitive as box body*
4,1,4,$2,$3,$4,$5,$6,$7,$8,$9,$2,$3,0*
0 Add four circle primitives for the rounded corners*
1,1,$1+$1,$2,$3*
1,1,$1+$1,$4,$5*
1,1,$1+$1,$6,$7*
1,1,$1+$1,$8,$9*
0 Add four rect primitives between the rounded corners*
20,1,$1+$1,$2,$3,$4,$5,0*
20,1,$1+$1,$4,$5,$6,$7,0*
20,1,$1+$1,$6,$7,$8,$9,0*
20,1,$1+$1,$8,$9,$2,$3,0*%
G04 Aperture macros list end*
%ADD10R,1.160000X0.600000*%
%ADD11R,1.160000X0.300000*%
%ADD12RoundRect,0.140000X-0.170000X0.140000X-0.170000X-0.140000X0.170000X-0.140000X0.170000X0.140000X0*%
%ADD13RoundRect,0.135000X0.135000X0.185000X-0.135000X0.185000X-0.135000X-0.185000X0.135000X-0.185000X0*%
%ADD14RoundRect,0.135000X-0.135000X-0.185000X0.135000X-0.185000X0.135000X0.185000X-0.135000X0.185000X0*%
%ADD15RoundRect,0.140000X0.140000X0.170000X-0.140000X0.170000X-0.140000X-0.170000X0.140000X-0.170000X0*%
%ADD16R,0.475000X0.250000*%
%ADD17R,0.250000X0.475000*%
%ADD18RoundRect,0.150000X-0.150000X0.512500X-0.150000X-0.512500X0.150000X-0.512500X0.150000X0.512500X0*%
%ADD19R,0.900000X1.100000*%
%ADD20RoundRect,0.135000X0.185000X-0.135000X0.185000X0.135000X-0.185000X0.135000X-0.185000X-0.135000X0*%
%ADD21R,2.000000X1.500000*%
%ADD22R,2.000000X3.800000*%
G04 APERTURE END LIST*
D10*
%TO.C,J3*%
X133115000Y-127700000D03*
X133115000Y-126900000D03*
D11*
X133115000Y-125750000D03*
X133115000Y-124750000D03*
X133115000Y-124250000D03*
X133115000Y-123250000D03*
D10*
X133115000Y-122100000D03*
X133115000Y-121300000D03*
X133115000Y-121300000D03*
X133115000Y-122100000D03*
D11*
X133115000Y-122750000D03*
X133115000Y-123750000D03*
X133115000Y-125250000D03*
X133115000Y-126250000D03*
D10*
X133115000Y-126900000D03*
X133115000Y-127700000D03*
%TD*%
D12*
%TO.C,C8*%
X115375000Y-116290000D03*
X115375000Y-117250000D03*
%TD*%
D13*
%TO.C,R16*%
X129645000Y-124250000D03*
X128625000Y-124250000D03*
%TD*%
D14*
%TO.C,R14*%
X121855000Y-110750000D03*
X122875000Y-110750000D03*
%TD*%
D15*
%TO.C,C7*%
X120960000Y-119500000D03*
X120000000Y-119500000D03*
%TD*%
D16*
%TO.C,U6*%
X118837500Y-114250000D03*
X118837500Y-114750000D03*
X118837500Y-115250000D03*
X118837500Y-115750000D03*
D17*
X119500000Y-115912500D03*
X120000000Y-115912500D03*
X120500000Y-115912500D03*
D16*
X121162500Y-115750000D03*
X121162500Y-115250000D03*
X121162500Y-114750000D03*
X121162500Y-114250000D03*
D17*
X120500000Y-114087500D03*
X120000000Y-114087500D03*
X119500000Y-114087500D03*
%TD*%
D18*
%TO.C,U5*%
X120775000Y-121350000D03*
X119825000Y-121350000D03*
X118875000Y-121350000D03*
X118875000Y-123625000D03*
X120775000Y-123625000D03*
%TD*%
D19*
%TO.C,Y1*%
X125825000Y-116900000D03*
X125825000Y-115100000D03*
X124425000Y-115100000D03*
X124425000Y-116900000D03*
%TD*%
D20*
%TO.C,R13*%
X115375000Y-114885000D03*
X115375000Y-113865000D03*
%TD*%
D13*
%TO.C,R15*%
X129635000Y-121750000D03*
X128615000Y-121750000D03*
%TD*%
D21*
%TO.C,U3*%
X138150000Y-117300000D03*
D22*
X131850000Y-115000000D03*
D21*
X138150000Y-115000000D03*
X138150000Y-112700000D03*
%TD*%
M02*
