%TF.GenerationSoftware,KiCad,Pcbnew,(6.0.7)*%
%TF.CreationDate,2025-06-10T03:21:35+09:00*%
%TF.ProjectId,AvatarSense,41766174-6172-4536-956e-73652e6b6963,rev?*%
%TF.SameCoordinates,Original*%
%TF.FileFunction,Legend,Top*%
%TF.FilePolarity,Positive*%
%FSLAX46Y46*%
G04 Gerber Fmt 4.6, Leading zero omitted, Abs format (unit mm)*
G04 Created by KiCad (PCBNEW (6.0.7)) date 2025-06-10 03:21:35*
%MOMM*%
%LPD*%
G01*
G04 APERTURE LIST*
%ADD10C,0.300000*%
%ADD11C,0.150000*%
%ADD12C,0.254000*%
%ADD13C,0.120000*%
%ADD14C,0.127000*%
%ADD15C,0.200000*%
%ADD16C,0.100000*%
G04 APERTURE END LIST*
D10*
X122160714Y-102042500D02*
X122875000Y-102042500D01*
X122017857Y-102471071D02*
X122517857Y-100971071D01*
X123017857Y-102471071D01*
X123375000Y-101471071D02*
X123732142Y-102471071D01*
X124089285Y-101471071D01*
X125303571Y-102471071D02*
X125303571Y-101685357D01*
X125232142Y-101542500D01*
X125089285Y-101471071D01*
X124803571Y-101471071D01*
X124660714Y-101542500D01*
X125303571Y-102399642D02*
X125160714Y-102471071D01*
X124803571Y-102471071D01*
X124660714Y-102399642D01*
X124589285Y-102256785D01*
X124589285Y-102113928D01*
X124660714Y-101971071D01*
X124803571Y-101899642D01*
X125160714Y-101899642D01*
X125303571Y-101828214D01*
X125803571Y-101471071D02*
X126375000Y-101471071D01*
X126017857Y-100971071D02*
X126017857Y-102256785D01*
X126089285Y-102399642D01*
X126232142Y-102471071D01*
X126375000Y-102471071D01*
X127517857Y-102471071D02*
X127517857Y-101685357D01*
X127446428Y-101542500D01*
X127303571Y-101471071D01*
X127017857Y-101471071D01*
X126875000Y-101542500D01*
X127517857Y-102399642D02*
X127375000Y-102471071D01*
X127017857Y-102471071D01*
X126875000Y-102399642D01*
X126803571Y-102256785D01*
X126803571Y-102113928D01*
X126875000Y-101971071D01*
X127017857Y-101899642D01*
X127375000Y-101899642D01*
X127517857Y-101828214D01*
X128232142Y-102471071D02*
X128232142Y-101471071D01*
X128232142Y-101756785D02*
X128303571Y-101613928D01*
X128375000Y-101542500D01*
X128517857Y-101471071D01*
X128660714Y-101471071D01*
X129089285Y-102399642D02*
X129303571Y-102471071D01*
X129660714Y-102471071D01*
X129803571Y-102399642D01*
X129875000Y-102328214D01*
X129946428Y-102185357D01*
X129946428Y-102042500D01*
X129875000Y-101899642D01*
X129803571Y-101828214D01*
X129660714Y-101756785D01*
X129375000Y-101685357D01*
X129232142Y-101613928D01*
X129160714Y-101542500D01*
X129089285Y-101399642D01*
X129089285Y-101256785D01*
X129160714Y-101113928D01*
X129232142Y-101042500D01*
X129375000Y-100971071D01*
X129732142Y-100971071D01*
X129946428Y-101042500D01*
X131160714Y-102399642D02*
X131017857Y-102471071D01*
X130732142Y-102471071D01*
X130589285Y-102399642D01*
X130517857Y-102256785D01*
X130517857Y-101685357D01*
X130589285Y-101542500D01*
X130732142Y-101471071D01*
X131017857Y-101471071D01*
X131160714Y-101542500D01*
X131232142Y-101685357D01*
X131232142Y-101828214D01*
X130517857Y-101971071D01*
X131875000Y-101471071D02*
X131875000Y-102471071D01*
X131875000Y-101613928D02*
X131946428Y-101542500D01*
X132089285Y-101471071D01*
X132303571Y-101471071D01*
X132446428Y-101542500D01*
X132517857Y-101685357D01*
X132517857Y-102471071D01*
X133160714Y-102399642D02*
X133303571Y-102471071D01*
X133589285Y-102471071D01*
X133732142Y-102399642D01*
X133803571Y-102256785D01*
X133803571Y-102185357D01*
X133732142Y-102042500D01*
X133589285Y-101971071D01*
X133375000Y-101971071D01*
X133232142Y-101899642D01*
X133160714Y-101756785D01*
X133160714Y-101685357D01*
X133232142Y-101542500D01*
X133375000Y-101471071D01*
X133589285Y-101471071D01*
X133732142Y-101542500D01*
X135017857Y-102399642D02*
X134875000Y-102471071D01*
X134589285Y-102471071D01*
X134446428Y-102399642D01*
X134375000Y-102256785D01*
X134375000Y-101685357D01*
X134446428Y-101542500D01*
X134589285Y-101471071D01*
X134875000Y-101471071D01*
X135017857Y-101542500D01*
X135089285Y-101685357D01*
X135089285Y-101828214D01*
X134375000Y-101971071D01*
X118910714Y-103457500D02*
X118767857Y-103386071D01*
X118553571Y-103386071D01*
X118339285Y-103457500D01*
X118196428Y-103600357D01*
X118124999Y-103743214D01*
X118053571Y-104028928D01*
X118053571Y-104243214D01*
X118124999Y-104528928D01*
X118196428Y-104671785D01*
X118339285Y-104814642D01*
X118553571Y-104886071D01*
X118696428Y-104886071D01*
X118910714Y-104814642D01*
X118982142Y-104743214D01*
X118982142Y-104243214D01*
X118696428Y-104243214D01*
X119624999Y-104886071D02*
X119624999Y-103886071D01*
X119624999Y-103386071D02*
X119553571Y-103457500D01*
X119624999Y-103528928D01*
X119696428Y-103457500D01*
X119624999Y-103386071D01*
X119624999Y-103528928D01*
X120124999Y-103886071D02*
X120696428Y-103886071D01*
X120339285Y-103386071D02*
X120339285Y-104671785D01*
X120410714Y-104814642D01*
X120553571Y-104886071D01*
X120696428Y-104886071D01*
X121196428Y-104886071D02*
X121196428Y-103386071D01*
X121839285Y-104886071D02*
X121839285Y-104100357D01*
X121767857Y-103957500D01*
X121624999Y-103886071D01*
X121410714Y-103886071D01*
X121267857Y-103957500D01*
X121196428Y-104028928D01*
X123196428Y-103886071D02*
X123196428Y-104886071D01*
X122553571Y-103886071D02*
X122553571Y-104671785D01*
X122624999Y-104814642D01*
X122767857Y-104886071D01*
X122982142Y-104886071D01*
X123124999Y-104814642D01*
X123196428Y-104743214D01*
X123910714Y-104886071D02*
X123910714Y-103386071D01*
X123910714Y-103957500D02*
X124053571Y-103886071D01*
X124339285Y-103886071D01*
X124482142Y-103957500D01*
X124553571Y-104028928D01*
X124624999Y-104171785D01*
X124624999Y-104600357D01*
X124553571Y-104743214D01*
X124482142Y-104814642D01*
X124339285Y-104886071D01*
X124053571Y-104886071D01*
X123910714Y-104814642D01*
X126410714Y-104100357D02*
X126910714Y-104100357D01*
X127124999Y-104886071D02*
X126410714Y-104886071D01*
X126410714Y-103386071D01*
X127124999Y-103386071D01*
X127767857Y-104100357D02*
X128267857Y-104100357D01*
X128482142Y-104886071D02*
X127767857Y-104886071D01*
X127767857Y-103386071D01*
X128482142Y-103386071D01*
X129124999Y-104100357D02*
X129624999Y-104100357D01*
X129839285Y-104886071D02*
X129124999Y-104886071D01*
X129124999Y-103386071D01*
X129839285Y-103386071D01*
X130767857Y-104171785D02*
X130767857Y-104886071D01*
X130267857Y-103386071D02*
X130767857Y-104171785D01*
X131267857Y-103386071D01*
X132339285Y-104814642D02*
X132196428Y-104886071D01*
X131910714Y-104886071D01*
X131767857Y-104814642D01*
X131696428Y-104671785D01*
X131696428Y-104100357D01*
X131767857Y-103957500D01*
X131910714Y-103886071D01*
X132196428Y-103886071D01*
X132339285Y-103957500D01*
X132410714Y-104100357D01*
X132410714Y-104243214D01*
X131696428Y-104386071D01*
X132982142Y-104814642D02*
X133196428Y-104886071D01*
X133553571Y-104886071D01*
X133696428Y-104814642D01*
X133767857Y-104743214D01*
X133839285Y-104600357D01*
X133839285Y-104457500D01*
X133767857Y-104314642D01*
X133696428Y-104243214D01*
X133553571Y-104171785D01*
X133267857Y-104100357D01*
X133124999Y-104028928D01*
X133053571Y-103957500D01*
X132982142Y-103814642D01*
X132982142Y-103671785D01*
X133053571Y-103528928D01*
X133124999Y-103457500D01*
X133267857Y-103386071D01*
X133624999Y-103386071D01*
X133839285Y-103457500D01*
X135053571Y-104814642D02*
X134910714Y-104886071D01*
X134625000Y-104886071D01*
X134482142Y-104814642D01*
X134410714Y-104671785D01*
X134410714Y-104100357D01*
X134482142Y-103957500D01*
X134625000Y-103886071D01*
X134910714Y-103886071D01*
X135053571Y-103957500D01*
X135125000Y-104100357D01*
X135125000Y-104243214D01*
X134410714Y-104386071D01*
X135982142Y-104886071D02*
X135839285Y-104814642D01*
X135767857Y-104743214D01*
X135696428Y-104600357D01*
X135696428Y-104171785D01*
X135767857Y-104028928D01*
X135839285Y-103957500D01*
X135982142Y-103886071D01*
X136196428Y-103886071D01*
X136339285Y-103957500D01*
X136410714Y-104028928D01*
X136482142Y-104171785D01*
X136482142Y-104600357D01*
X136410714Y-104743214D01*
X136339285Y-104814642D01*
X136196428Y-104886071D01*
X135982142Y-104886071D01*
X137125000Y-103886071D02*
X137125000Y-104886071D01*
X137125000Y-104028928D02*
X137196428Y-103957500D01*
X137339285Y-103886071D01*
X137553571Y-103886071D01*
X137696428Y-103957500D01*
X137767857Y-104100357D01*
X137767857Y-104886071D01*
X139125000Y-103886071D02*
X139125000Y-105100357D01*
X139053571Y-105243214D01*
X138982142Y-105314642D01*
X138839285Y-105386071D01*
X138625000Y-105386071D01*
X138482142Y-105314642D01*
X139125000Y-104814642D02*
X138982142Y-104886071D01*
X138696428Y-104886071D01*
X138553571Y-104814642D01*
X138482142Y-104743214D01*
X138410714Y-104600357D01*
X138410714Y-104171785D01*
X138482142Y-104028928D01*
X138553571Y-103957500D01*
X138696428Y-103886071D01*
X138982142Y-103886071D01*
X139125000Y-103957500D01*
D11*
%TO.C,JP1*%
X118766666Y-107652380D02*
X118766666Y-108366666D01*
X118719047Y-108509523D01*
X118623809Y-108604761D01*
X118480952Y-108652380D01*
X118385714Y-108652380D01*
X119242857Y-108652380D02*
X119242857Y-107652380D01*
X119623809Y-107652380D01*
X119719047Y-107700000D01*
X119766666Y-107747619D01*
X119814285Y-107842857D01*
X119814285Y-107985714D01*
X119766666Y-108080952D01*
X119719047Y-108128571D01*
X119623809Y-108176190D01*
X119242857Y-108176190D01*
X120766666Y-108652380D02*
X120195238Y-108652380D01*
X120480952Y-108652380D02*
X120480952Y-107652380D01*
X120385714Y-107795238D01*
X120290476Y-107890476D01*
X120195238Y-107938095D01*
%TO.C,J3*%
X130666666Y-128577380D02*
X130666666Y-129291666D01*
X130619047Y-129434523D01*
X130523809Y-129529761D01*
X130380952Y-129577380D01*
X130285714Y-129577380D01*
X131047619Y-128577380D02*
X131666666Y-128577380D01*
X131333333Y-128958333D01*
X131476190Y-128958333D01*
X131571428Y-129005952D01*
X131619047Y-129053571D01*
X131666666Y-129148809D01*
X131666666Y-129386904D01*
X131619047Y-129482142D01*
X131571428Y-129529761D01*
X131476190Y-129577380D01*
X131190476Y-129577380D01*
X131095238Y-129529761D01*
X131047619Y-129482142D01*
%TO.C,C8*%
X116708333Y-117482142D02*
X116660714Y-117529761D01*
X116517857Y-117577380D01*
X116422619Y-117577380D01*
X116279761Y-117529761D01*
X116184523Y-117434523D01*
X116136904Y-117339285D01*
X116089285Y-117148809D01*
X116089285Y-117005952D01*
X116136904Y-116815476D01*
X116184523Y-116720238D01*
X116279761Y-116625000D01*
X116422619Y-116577380D01*
X116517857Y-116577380D01*
X116660714Y-116625000D01*
X116708333Y-116672619D01*
X117279761Y-117005952D02*
X117184523Y-116958333D01*
X117136904Y-116910714D01*
X117089285Y-116815476D01*
X117089285Y-116767857D01*
X117136904Y-116672619D01*
X117184523Y-116625000D01*
X117279761Y-116577380D01*
X117470238Y-116577380D01*
X117565476Y-116625000D01*
X117613095Y-116672619D01*
X117660714Y-116767857D01*
X117660714Y-116815476D01*
X117613095Y-116910714D01*
X117565476Y-116958333D01*
X117470238Y-117005952D01*
X117279761Y-117005952D01*
X117184523Y-117053571D01*
X117136904Y-117101190D01*
X117089285Y-117196428D01*
X117089285Y-117386904D01*
X117136904Y-117482142D01*
X117184523Y-117529761D01*
X117279761Y-117577380D01*
X117470238Y-117577380D01*
X117565476Y-117529761D01*
X117613095Y-117482142D01*
X117660714Y-117386904D01*
X117660714Y-117196428D01*
X117613095Y-117101190D01*
X117565476Y-117053571D01*
X117470238Y-117005952D01*
%TO.C,R16*%
X128492142Y-125872380D02*
X128158809Y-125396190D01*
X127920714Y-125872380D02*
X127920714Y-124872380D01*
X128301666Y-124872380D01*
X128396904Y-124920000D01*
X128444523Y-124967619D01*
X128492142Y-125062857D01*
X128492142Y-125205714D01*
X128444523Y-125300952D01*
X128396904Y-125348571D01*
X128301666Y-125396190D01*
X127920714Y-125396190D01*
X129444523Y-125872380D02*
X128873095Y-125872380D01*
X129158809Y-125872380D02*
X129158809Y-124872380D01*
X129063571Y-125015238D01*
X128968333Y-125110476D01*
X128873095Y-125158095D01*
X130301666Y-124872380D02*
X130111190Y-124872380D01*
X130015952Y-124920000D01*
X129968333Y-124967619D01*
X129873095Y-125110476D01*
X129825476Y-125300952D01*
X129825476Y-125681904D01*
X129873095Y-125777142D01*
X129920714Y-125824761D01*
X130015952Y-125872380D01*
X130206428Y-125872380D01*
X130301666Y-125824761D01*
X130349285Y-125777142D01*
X130396904Y-125681904D01*
X130396904Y-125443809D01*
X130349285Y-125348571D01*
X130301666Y-125300952D01*
X130206428Y-125253333D01*
X130015952Y-125253333D01*
X129920714Y-125300952D01*
X129873095Y-125348571D01*
X129825476Y-125443809D01*
%TO.C,R14*%
X124232142Y-111077380D02*
X123898809Y-110601190D01*
X123660714Y-111077380D02*
X123660714Y-110077380D01*
X124041666Y-110077380D01*
X124136904Y-110125000D01*
X124184523Y-110172619D01*
X124232142Y-110267857D01*
X124232142Y-110410714D01*
X124184523Y-110505952D01*
X124136904Y-110553571D01*
X124041666Y-110601190D01*
X123660714Y-110601190D01*
X125184523Y-111077380D02*
X124613095Y-111077380D01*
X124898809Y-111077380D02*
X124898809Y-110077380D01*
X124803571Y-110220238D01*
X124708333Y-110315476D01*
X124613095Y-110363095D01*
X126041666Y-110410714D02*
X126041666Y-111077380D01*
X125803571Y-110029761D02*
X125565476Y-110744047D01*
X126184523Y-110744047D01*
%TO.C,C7*%
X122208333Y-119982142D02*
X122160714Y-120029761D01*
X122017857Y-120077380D01*
X121922619Y-120077380D01*
X121779761Y-120029761D01*
X121684523Y-119934523D01*
X121636904Y-119839285D01*
X121589285Y-119648809D01*
X121589285Y-119505952D01*
X121636904Y-119315476D01*
X121684523Y-119220238D01*
X121779761Y-119125000D01*
X121922619Y-119077380D01*
X122017857Y-119077380D01*
X122160714Y-119125000D01*
X122208333Y-119172619D01*
X122541666Y-119077380D02*
X123208333Y-119077380D01*
X122779761Y-120077380D01*
%TO.C,U6*%
X119913095Y-111817380D02*
X119913095Y-112626904D01*
X119960714Y-112722142D01*
X120008333Y-112769761D01*
X120103571Y-112817380D01*
X120294047Y-112817380D01*
X120389285Y-112769761D01*
X120436904Y-112722142D01*
X120484523Y-112626904D01*
X120484523Y-111817380D01*
X121389285Y-111817380D02*
X121198809Y-111817380D01*
X121103571Y-111865000D01*
X121055952Y-111912619D01*
X120960714Y-112055476D01*
X120913095Y-112245952D01*
X120913095Y-112626904D01*
X120960714Y-112722142D01*
X121008333Y-112769761D01*
X121103571Y-112817380D01*
X121294047Y-112817380D01*
X121389285Y-112769761D01*
X121436904Y-112722142D01*
X121484523Y-112626904D01*
X121484523Y-112388809D01*
X121436904Y-112293571D01*
X121389285Y-112245952D01*
X121294047Y-112198333D01*
X121103571Y-112198333D01*
X121008333Y-112245952D01*
X120960714Y-112293571D01*
X120913095Y-112388809D01*
%TO.C,U5*%
X121863095Y-123577380D02*
X121863095Y-124386904D01*
X121910714Y-124482142D01*
X121958333Y-124529761D01*
X122053571Y-124577380D01*
X122244047Y-124577380D01*
X122339285Y-124529761D01*
X122386904Y-124482142D01*
X122434523Y-124386904D01*
X122434523Y-123577380D01*
X123386904Y-123577380D02*
X122910714Y-123577380D01*
X122863095Y-124053571D01*
X122910714Y-124005952D01*
X123005952Y-123958333D01*
X123244047Y-123958333D01*
X123339285Y-124005952D01*
X123386904Y-124053571D01*
X123434523Y-124148809D01*
X123434523Y-124386904D01*
X123386904Y-124482142D01*
X123339285Y-124529761D01*
X123244047Y-124577380D01*
X123005952Y-124577380D01*
X122910714Y-124529761D01*
X122863095Y-124482142D01*
D12*
%TO.C,Y1*%
X128020238Y-114344761D02*
X128020238Y-114949523D01*
X127596904Y-113679523D02*
X128020238Y-114344761D01*
X128443571Y-113679523D01*
X129532142Y-114949523D02*
X128806428Y-114949523D01*
X129169285Y-114949523D02*
X129169285Y-113679523D01*
X129048333Y-113860952D01*
X128927380Y-113981904D01*
X128806428Y-114042380D01*
D11*
%TO.C,R13*%
X114732142Y-113077380D02*
X114398809Y-112601190D01*
X114160714Y-113077380D02*
X114160714Y-112077380D01*
X114541666Y-112077380D01*
X114636904Y-112125000D01*
X114684523Y-112172619D01*
X114732142Y-112267857D01*
X114732142Y-112410714D01*
X114684523Y-112505952D01*
X114636904Y-112553571D01*
X114541666Y-112601190D01*
X114160714Y-112601190D01*
X115684523Y-113077380D02*
X115113095Y-113077380D01*
X115398809Y-113077380D02*
X115398809Y-112077380D01*
X115303571Y-112220238D01*
X115208333Y-112315476D01*
X115113095Y-112363095D01*
X116017857Y-112077380D02*
X116636904Y-112077380D01*
X116303571Y-112458333D01*
X116446428Y-112458333D01*
X116541666Y-112505952D01*
X116589285Y-112553571D01*
X116636904Y-112648809D01*
X116636904Y-112886904D01*
X116589285Y-112982142D01*
X116541666Y-113029761D01*
X116446428Y-113077380D01*
X116160714Y-113077380D01*
X116065476Y-113029761D01*
X116017857Y-112982142D01*
%TO.C,R15*%
X128482142Y-123372380D02*
X128148809Y-122896190D01*
X127910714Y-123372380D02*
X127910714Y-122372380D01*
X128291666Y-122372380D01*
X128386904Y-122420000D01*
X128434523Y-122467619D01*
X128482142Y-122562857D01*
X128482142Y-122705714D01*
X128434523Y-122800952D01*
X128386904Y-122848571D01*
X128291666Y-122896190D01*
X127910714Y-122896190D01*
X129434523Y-123372380D02*
X128863095Y-123372380D01*
X129148809Y-123372380D02*
X129148809Y-122372380D01*
X129053571Y-122515238D01*
X128958333Y-122610476D01*
X128863095Y-122658095D01*
X130339285Y-122372380D02*
X129863095Y-122372380D01*
X129815476Y-122848571D01*
X129863095Y-122800952D01*
X129958333Y-122753333D01*
X130196428Y-122753333D01*
X130291666Y-122800952D01*
X130339285Y-122848571D01*
X130386904Y-122943809D01*
X130386904Y-123181904D01*
X130339285Y-123277142D01*
X130291666Y-123324761D01*
X130196428Y-123372380D01*
X129958333Y-123372380D01*
X129863095Y-123324761D01*
X129815476Y-123277142D01*
%TO.C,U3*%
X129863095Y-119077380D02*
X129863095Y-119886904D01*
X129910714Y-119982142D01*
X129958333Y-120029761D01*
X130053571Y-120077380D01*
X130244047Y-120077380D01*
X130339285Y-120029761D01*
X130386904Y-119982142D01*
X130434523Y-119886904D01*
X130434523Y-119077380D01*
X130815476Y-119077380D02*
X131434523Y-119077380D01*
X131101190Y-119458333D01*
X131244047Y-119458333D01*
X131339285Y-119505952D01*
X131386904Y-119553571D01*
X131434523Y-119648809D01*
X131434523Y-119886904D01*
X131386904Y-119982142D01*
X131339285Y-120029761D01*
X131244047Y-120077380D01*
X130958333Y-120077380D01*
X130863095Y-120029761D01*
X130815476Y-119982142D01*
D13*
%TO.C,JP1*%
X118200000Y-111000000D02*
X118200000Y-109000000D01*
X118200000Y-109000000D02*
X121000000Y-109000000D01*
X121000000Y-111000000D02*
X118200000Y-111000000D01*
X121000000Y-109000000D02*
X121000000Y-111000000D01*
%TO.C,J3*%
X134955000Y-128970000D02*
X136755000Y-128970000D01*
X134955000Y-120030000D02*
X136755000Y-120030000D01*
X140465000Y-120030000D02*
X139005000Y-120030000D01*
X140465000Y-128970000D02*
X139005000Y-128970000D01*
X140465000Y-120030000D02*
X140465000Y-128970000D01*
%TO.C,C8*%
X115735000Y-116662164D02*
X115735000Y-116877836D01*
X115015000Y-116662164D02*
X115015000Y-116877836D01*
%TO.C,R16*%
X129288641Y-124630000D02*
X128981359Y-124630000D01*
X129288641Y-123870000D02*
X128981359Y-123870000D01*
%TO.C,R14*%
X122211359Y-110370000D02*
X122518641Y-110370000D01*
X122211359Y-111130000D02*
X122518641Y-111130000D01*
%TO.C,C7*%
X120587836Y-119140000D02*
X120372164Y-119140000D01*
X120587836Y-119860000D02*
X120372164Y-119860000D01*
D14*
%TO.C,U6*%
X120945000Y-113750000D02*
X121500000Y-113750000D01*
X118500000Y-116250000D02*
X118500000Y-116195000D01*
X121500000Y-116250000D02*
X121500000Y-116195000D01*
X118500000Y-113750000D02*
X119055000Y-113750000D01*
X119055000Y-116250000D02*
X118500000Y-116250000D01*
X121500000Y-113750000D02*
X121500000Y-113805000D01*
X118500000Y-113750000D02*
X118500000Y-113805000D01*
X121500000Y-116250000D02*
X120945000Y-116250000D01*
D15*
X118031000Y-114150000D02*
G75*
G03*
X118031000Y-114150000I-100000J0D01*
G01*
D13*
%TO.C,U5*%
X121385000Y-122487500D02*
X121385000Y-123287500D01*
X118265000Y-122487500D02*
X118265000Y-123287500D01*
X121385000Y-122487500D02*
X121385000Y-120687500D01*
X118265000Y-122487500D02*
X118265000Y-121687500D01*
D16*
%TO.C,Y1*%
X125825000Y-118000000D02*
X125825000Y-118000000D01*
X125825000Y-117900000D02*
X125825000Y-117900000D01*
X125825000Y-118000000D02*
G75*
G03*
X125825000Y-117900000I0J50000D01*
G01*
X125825000Y-117900000D02*
G75*
G03*
X125825000Y-118000000I0J-50000D01*
G01*
D13*
%TO.C,R13*%
X114995000Y-114528641D02*
X114995000Y-114221359D01*
X115755000Y-114528641D02*
X115755000Y-114221359D01*
%TO.C,R15*%
X129278641Y-122130000D02*
X128971359Y-122130000D01*
X129278641Y-121370000D02*
X128971359Y-121370000D01*
%TO.C,U3*%
X133090000Y-111590000D02*
X133090000Y-112850000D01*
X133090000Y-118410000D02*
X133090000Y-117150000D01*
X139100000Y-118410000D02*
X133090000Y-118410000D01*
X136850000Y-111590000D02*
X133090000Y-111590000D01*
%TD*%
M02*
