M48
; DRILL file {KiCad (6.0.7)} date Tue Jun 10 03:21:33 2025
; FORMAT={-:-/ absolute / inch / decimal}
; #@! TF.CreationDate,2025-06-10T03:21:33+09:00
; #@! TF.GenerationSoftware,Kicad,Pcbnew,(6.0.7)
; #@! TF.FileFunction,Plated,1,2,PTH
FMAT,2
INCH
; #@! TA.AperFunction,Plated,PTH,ViaDrill
T1C0.0157
; #@! TA.AperFunction,Plated,PTH,ComponentDrill
T2C0.0236
%
G90
G05
T1
X4.5866Y-4.5423
X4.685Y-4.6555
X4.7096Y-4.439
X4.7244Y-4.3996
X4.7392Y-4.6161
X4.9803Y-4.685
X5.0738Y-4.5965
X5.0837Y-4.4488
X5.1332Y-4.7641
X5.1427Y-4.9311
X5.1722Y-4.7392
X5.1772Y-4.7884
X5.1772Y-4.9803
X5.4724Y-4.69
T2
G00X5.2852Y-4.7315
M15
G01X5.2419Y-4.7315
M16
G05
G00X5.2852Y-5.0717
M15
G01X5.2419Y-5.0717
M16
G05
G00X5.4435Y-4.7315
M15
G01X5.412Y-4.7315
M16
G05
G00X5.4435Y-5.0717
M15
G01X5.412Y-5.0717
M16
G05
T0
M30
