%TF.GenerationSoftware,KiCad,Pcbnew,(6.0.7)*%
%TF.CreationDate,2025-06-10T03:21:35+09:00*%
%TF.ProjectId,AvatarSense,41766174-6172-4536-956e-73652e6b6963,rev?*%
%TF.SameCoordinates,Original*%
%TF.FileFunction,Copper,L1,Top*%
%TF.FilePolarity,Positive*%
%FSLAX46Y46*%
G04 Gerber Fmt 4.6, Leading zero omitted, Abs format (unit mm)*
G04 Created by KiCad (PCBNEW (6.0.7)) date 2025-06-10 03:21:35*
%MOMM*%
%LPD*%
G01*
G04 APERTURE LIST*
G04 Aperture macros list*
%AMRoundRect*
0 Rectangle with rounded corners*
0 $1 Rounding radius*
0 $2 $3 $4 $5 $6 $7 $8 $9 X,Y pos of 4 corners*
0 Add a 4 corners polygon primitive as box body*
4,1,4,$2,$3,$4,$5,$6,$7,$8,$9,$2,$3,0*
0 Add four circle primitives for the rounded corners*
1,1,$1+$1,$2,$3*
1,1,$1+$1,$4,$5*
1,1,$1+$1,$6,$7*
1,1,$1+$1,$8,$9*
0 Add four rect primitives between the rounded corners*
20,1,$1+$1,$2,$3,$4,$5,0*
20,1,$1+$1,$4,$5,$6,$7,0*
20,1,$1+$1,$6,$7,$8,$9,0*
20,1,$1+$1,$8,$9,$2,$3,0*%
%AMFreePoly0*
4,1,6,1.000000,0.000000,0.500000,-0.750000,-0.500000,-0.750000,-0.500000,0.750000,0.500000,0.750000,1.000000,0.000000,1.000000,0.000000,$1*%
%AMFreePoly1*
4,1,6,0.500000,-0.750000,-0.650000,-0.750000,-0.150000,0.000000,-0.650000,0.750000,0.500000,0.750000,0.500000,-0.750000,0.500000,-0.750000,$1*%
G04 Aperture macros list end*
%TA.AperFunction,SMDPad,CuDef*%
%ADD10FreePoly0,0.000000*%
%TD*%
%TA.AperFunction,SMDPad,CuDef*%
%ADD11FreePoly1,0.000000*%
%TD*%
%TA.AperFunction,SMDPad,CuDef*%
%ADD12R,1.160000X0.600000*%
%TD*%
%TA.AperFunction,SMDPad,CuDef*%
%ADD13R,1.160000X0.300000*%
%TD*%
%TA.AperFunction,ComponentPad*%
%ADD14O,2.000000X0.900000*%
%TD*%
%TA.AperFunction,ComponentPad*%
%ADD15O,1.700000X0.900000*%
%TD*%
%TA.AperFunction,SMDPad,CuDef*%
%ADD16RoundRect,0.140000X-0.170000X0.140000X-0.170000X-0.140000X0.170000X-0.140000X0.170000X0.140000X0*%
%TD*%
%TA.AperFunction,SMDPad,CuDef*%
%ADD17RoundRect,0.135000X0.135000X0.185000X-0.135000X0.185000X-0.135000X-0.185000X0.135000X-0.185000X0*%
%TD*%
%TA.AperFunction,SMDPad,CuDef*%
%ADD18RoundRect,0.135000X-0.135000X-0.185000X0.135000X-0.185000X0.135000X0.185000X-0.135000X0.185000X0*%
%TD*%
%TA.AperFunction,SMDPad,CuDef*%
%ADD19RoundRect,0.140000X0.140000X0.170000X-0.140000X0.170000X-0.140000X-0.170000X0.140000X-0.170000X0*%
%TD*%
%TA.AperFunction,SMDPad,CuDef*%
%ADD20R,0.475000X0.250000*%
%TD*%
%TA.AperFunction,SMDPad,CuDef*%
%ADD21R,0.250000X0.475000*%
%TD*%
%TA.AperFunction,SMDPad,CuDef*%
%ADD22RoundRect,0.150000X-0.150000X0.512500X-0.150000X-0.512500X0.150000X-0.512500X0.150000X0.512500X0*%
%TD*%
%TA.AperFunction,SMDPad,CuDef*%
%ADD23R,0.900000X1.100000*%
%TD*%
%TA.AperFunction,SMDPad,CuDef*%
%ADD24RoundRect,0.135000X0.185000X-0.135000X0.185000X0.135000X-0.185000X0.135000X-0.185000X-0.135000X0*%
%TD*%
%TA.AperFunction,SMDPad,CuDef*%
%ADD25R,2.000000X1.500000*%
%TD*%
%TA.AperFunction,SMDPad,CuDef*%
%ADD26R,2.000000X3.800000*%
%TD*%
%TA.AperFunction,ViaPad*%
%ADD27C,0.800000*%
%TD*%
%TA.AperFunction,Conductor*%
%ADD28C,0.250000*%
%TD*%
G04 APERTURE END LIST*
D10*
%TO.P,JP1,1,A*%
%TO.N,Net-(JP1-Pad1)*%
X118875000Y-110000000D03*
D11*
%TO.P,JP1,2,B*%
%TO.N,GND*%
X120325000Y-110000000D03*
%TD*%
D12*
%TO.P,J3,A1,GND*%
%TO.N,GND*%
X133115000Y-127700000D03*
%TO.P,J3,A4,VBUS*%
%TO.N,Net-(U3-Pad3)*%
X133115000Y-126900000D03*
D13*
%TO.P,J3,A5,CC1*%
%TO.N,unconnected-(J3-PadA5)*%
X133115000Y-125750000D03*
%TO.P,J3,A6,D+*%
%TO.N,SCL*%
X133115000Y-124750000D03*
%TO.P,J3,A7,D-*%
%TO.N,SDA*%
X133115000Y-124250000D03*
%TO.P,J3,A8,SBU1*%
%TO.N,unconnected-(J3-PadA8)*%
X133115000Y-123250000D03*
D12*
%TO.P,J3,A9,VBUS*%
%TO.N,Net-(U3-Pad3)*%
X133115000Y-122100000D03*
%TO.P,J3,A12,GND*%
%TO.N,GND*%
X133115000Y-121300000D03*
%TO.P,J3,B1,GND*%
X133115000Y-121300000D03*
%TO.P,J3,B4,VBUS*%
%TO.N,Net-(U3-Pad3)*%
X133115000Y-122100000D03*
D13*
%TO.P,J3,B5,CC2*%
%TO.N,unconnected-(J3-PadB5)*%
X133115000Y-122750000D03*
%TO.P,J3,B6,D+*%
%TO.N,SCL*%
X133115000Y-123750000D03*
%TO.P,J3,B7,D-*%
%TO.N,SDA*%
X133115000Y-125250000D03*
%TO.P,J3,B8,SBU2*%
%TO.N,unconnected-(J3-PadB8)*%
X133115000Y-126250000D03*
D12*
%TO.P,J3,B9,VBUS*%
%TO.N,Net-(U3-Pad3)*%
X133115000Y-126900000D03*
%TO.P,J3,B12,GND*%
%TO.N,GND*%
X133115000Y-127700000D03*
D14*
%TO.P,J3,S1,SHIELD*%
X133695000Y-120180000D03*
D15*
X137865000Y-128820000D03*
X137865000Y-120180000D03*
D14*
X133695000Y-128820000D03*
%TD*%
D16*
%TO.P,C8,1*%
%TO.N,+3V3*%
X115375000Y-116290000D03*
%TO.P,C8,2*%
%TO.N,GND*%
X115375000Y-117250000D03*
%TD*%
D17*
%TO.P,R16,1*%
%TO.N,SDA*%
X129645000Y-124250000D03*
%TO.P,R16,2*%
%TO.N,+3V3*%
X128625000Y-124250000D03*
%TD*%
D18*
%TO.P,R14,1*%
%TO.N,Net-(R14-Pad1)*%
X121855000Y-110750000D03*
%TO.P,R14,2*%
%TO.N,+3V3*%
X122875000Y-110750000D03*
%TD*%
D19*
%TO.P,C7,1*%
%TO.N,+3V3*%
X120960000Y-119500000D03*
%TO.P,C7,2*%
%TO.N,GND*%
X120000000Y-119500000D03*
%TD*%
D20*
%TO.P,U6,1,AP_SDO/AP_AD0*%
%TO.N,Net-(JP1-Pad1)*%
X118837500Y-114250000D03*
%TO.P,U6,2,RESV/AUX1_SDIO/AUX1_SDI/MAS_DA*%
%TO.N,unconnected-(U6-Pad2)*%
X118837500Y-114750000D03*
%TO.P,U6,3,RESV/AUX1_SCLK/MAS_CLK*%
%TO.N,unconnected-(U6-Pad3)*%
X118837500Y-115250000D03*
%TO.P,U6,4,INT1/INT*%
%TO.N,unconnected-(U6-Pad4)*%
X118837500Y-115750000D03*
D21*
%TO.P,U6,5,VDDIO*%
%TO.N,+3V3*%
X119500000Y-115912500D03*
%TO.P,U6,6,GND*%
%TO.N,GND*%
X120000000Y-115912500D03*
%TO.P,U6,7,RESV*%
%TO.N,unconnected-(U6-Pad7)*%
X120500000Y-115912500D03*
D20*
%TO.P,U6,8,VDD*%
%TO.N,+3V3*%
X121162500Y-115750000D03*
%TO.P,U6,9,INT2/FSYNC/CLKIN*%
%TO.N,CLK*%
X121162500Y-115250000D03*
%TO.P,U6,10,RESV/AUX1_CS*%
%TO.N,unconnected-(U6-Pad10)*%
X121162500Y-114750000D03*
%TO.P,U6,11,RESV/AUX1_SDO*%
%TO.N,unconnected-(U6-Pad11)*%
X121162500Y-114250000D03*
D21*
%TO.P,U6,12,AP_CS*%
%TO.N,Net-(R14-Pad1)*%
X120500000Y-114087500D03*
%TO.P,U6,13,AP_SCL/AP_SCLK*%
%TO.N,SCL*%
X120000000Y-114087500D03*
%TO.P,U6,14,AP_SDA/AP_SDIO/AP_SDI*%
%TO.N,SDA*%
X119500000Y-114087500D03*
%TD*%
D22*
%TO.P,U5,1,VIN*%
%TO.N,+3V3*%
X120775000Y-121350000D03*
%TO.P,U5,2,GND*%
%TO.N,GND*%
X119825000Y-121350000D03*
%TO.P,U5,3,EN*%
%TO.N,+3V3*%
X118875000Y-121350000D03*
%TO.P,U5,4,NC*%
%TO.N,unconnected-(U5-Pad4)*%
X118875000Y-123625000D03*
%TO.P,U5,5,VOUT*%
%TO.N,+1V8*%
X120775000Y-123625000D03*
%TD*%
D23*
%TO.P,Y1,1,TRI-STATE*%
%TO.N,unconnected-(Y1-Pad1)*%
X125825000Y-116900000D03*
%TO.P,Y1,2,GROUND*%
%TO.N,GND*%
X125825000Y-115100000D03*
%TO.P,Y1,3,OUTPUT*%
%TO.N,CLK*%
X124425000Y-115100000D03*
%TO.P,Y1,4,VDD*%
%TO.N,+1V8*%
X124425000Y-116900000D03*
%TD*%
D24*
%TO.P,R13,1*%
%TO.N,+3V3*%
X115375000Y-114885000D03*
%TO.P,R13,2*%
%TO.N,Net-(JP1-Pad1)*%
X115375000Y-113865000D03*
%TD*%
D17*
%TO.P,R15,1*%
%TO.N,SCL*%
X129635000Y-121750000D03*
%TO.P,R15,2*%
%TO.N,+3V3*%
X128615000Y-121750000D03*
%TD*%
D25*
%TO.P,U3,1,GND*%
%TO.N,GND*%
X138150000Y-117300000D03*
D26*
%TO.P,U3,2,VO*%
%TO.N,+3V3*%
X131850000Y-115000000D03*
D25*
X138150000Y-115000000D03*
%TO.P,U3,3,VI*%
%TO.N,Net-(U3-Pad3)*%
X138150000Y-112700000D03*
%TD*%
D27*
%TO.N,+3V3*%
X116500000Y-115375000D03*
X119000000Y-118250000D03*
%TO.N,SCL*%
X120000000Y-111750000D03*
X130382299Y-121007299D03*
%TO.N,SDA*%
X119625000Y-112750000D03*
X130625000Y-125250000D03*
%TO.N,GND*%
X129125000Y-113000000D03*
X128875000Y-116750000D03*
X120375000Y-117250000D03*
X131375000Y-120375000D03*
X126500000Y-119000000D03*
%TO.N,Net-(U3-Pad3)*%
X139000000Y-119125000D03*
X131500000Y-126500000D03*
X131500000Y-121625000D03*
%TD*%
D28*
%TO.N,+3V3*%
X116290000Y-116290000D02*
X115375000Y-116290000D01*
X131850000Y-115000000D02*
X138150000Y-115000000D01*
X122875000Y-112750000D02*
X123250000Y-113125000D01*
X127500000Y-125375000D02*
X128625000Y-124250000D01*
X128625000Y-121760000D02*
X128615000Y-121750000D01*
X131850000Y-118515000D02*
X131850000Y-115000000D01*
X119122500Y-116290000D02*
X116290000Y-116290000D01*
X118875000Y-121350000D02*
X118875000Y-122125000D01*
X121162500Y-115750000D02*
X121162500Y-119297500D01*
X128625000Y-124250000D02*
X128625000Y-121760000D01*
X118875000Y-118375000D02*
X119000000Y-118250000D01*
X119750000Y-122375000D02*
X119750000Y-125000000D01*
X118875000Y-122125000D02*
X119125000Y-122375000D01*
X122875000Y-110750000D02*
X122875000Y-112750000D01*
X129750000Y-115000000D02*
X131850000Y-115000000D01*
X119750000Y-122375000D02*
X120500000Y-122375000D01*
X116500000Y-116080000D02*
X116290000Y-116290000D01*
X120500000Y-122375000D02*
X120775000Y-122100000D01*
X120125000Y-125375000D02*
X127500000Y-125375000D01*
X119125000Y-122375000D02*
X119750000Y-122375000D01*
X120775000Y-119685000D02*
X120960000Y-119500000D01*
X116500000Y-115375000D02*
X116500000Y-116080000D01*
X119750000Y-125000000D02*
X120125000Y-125375000D01*
X121162500Y-119297500D02*
X120960000Y-119500000D01*
X120775000Y-122100000D02*
X120775000Y-121350000D01*
X123250000Y-113125000D02*
X127875000Y-113125000D01*
X128615000Y-121750000D02*
X131850000Y-118515000D01*
X115375000Y-114885000D02*
X115375000Y-116290000D01*
X120775000Y-121350000D02*
X120775000Y-119685000D01*
X118875000Y-121350000D02*
X118875000Y-118375000D01*
X127875000Y-113125000D02*
X129750000Y-115000000D01*
X120960000Y-119420000D02*
X120960000Y-119500000D01*
X119500000Y-115912500D02*
X119122500Y-116290000D01*
%TO.N,Net-(JP1-Pad1)*%
X118875000Y-113625000D02*
X118250000Y-114250000D01*
X118875000Y-110000000D02*
X118875000Y-113625000D01*
X115760000Y-114250000D02*
X118250000Y-114250000D01*
X118250000Y-114250000D02*
X118837500Y-114250000D01*
X115375000Y-113865000D02*
X115760000Y-114250000D01*
%TO.N,Net-(R14-Pad1)*%
X121855000Y-110750000D02*
X121855000Y-112545000D01*
X121855000Y-112545000D02*
X120500000Y-113900000D01*
X120500000Y-113900000D02*
X120500000Y-114087500D01*
%TO.N,SCL*%
X133115000Y-124750000D02*
X133995000Y-124750000D01*
X129635000Y-121750000D02*
X129639598Y-121750000D01*
X134020000Y-123775000D02*
X133995000Y-123750000D01*
X133995000Y-123750000D02*
X133115000Y-123750000D01*
X120500000Y-112250000D02*
X120500000Y-113125000D01*
X120500000Y-113125000D02*
X120000000Y-113625000D01*
X131635000Y-123750000D02*
X129635000Y-121750000D01*
X133115000Y-123750000D02*
X131635000Y-123750000D01*
X134020000Y-124725000D02*
X134020000Y-123775000D01*
X133995000Y-124750000D02*
X134020000Y-124725000D01*
X120000000Y-111750000D02*
X120500000Y-112250000D01*
X129639598Y-121750000D02*
X130382299Y-121007299D01*
X120000000Y-113625000D02*
X120000000Y-114087500D01*
%TO.N,SDA*%
X129670000Y-124275000D02*
X129645000Y-124250000D01*
X132235000Y-125250000D02*
X132210000Y-125225000D01*
X119500000Y-114087500D02*
X119500000Y-112875000D01*
X132210000Y-124275000D02*
X130475000Y-124275000D01*
X132210000Y-125225000D02*
X132210000Y-124275000D01*
X130475000Y-124275000D02*
X129670000Y-124275000D01*
X132210000Y-124275000D02*
X132235000Y-124250000D01*
X132235000Y-124250000D02*
X133115000Y-124250000D01*
X119500000Y-112875000D02*
X119625000Y-112750000D01*
X130625000Y-124425000D02*
X130475000Y-124275000D01*
X130625000Y-125250000D02*
X130625000Y-124425000D01*
X133115000Y-125250000D02*
X132235000Y-125250000D01*
%TO.N,+1V8*%
X124425000Y-116900000D02*
X124425000Y-119975000D01*
X124425000Y-119975000D02*
X120775000Y-123625000D01*
%TO.N,CLK*%
X124275000Y-115250000D02*
X121162500Y-115250000D01*
X124425000Y-115100000D02*
X124275000Y-115250000D01*
%TO.N,GND*%
X126625000Y-119000000D02*
X128875000Y-116750000D01*
X120000000Y-117625000D02*
X120375000Y-117250000D01*
X133115000Y-121300000D02*
X132300000Y-121300000D01*
X115375000Y-117250000D02*
X119175000Y-117250000D01*
X123625000Y-110250000D02*
X123625000Y-112375000D01*
X126750000Y-112500000D02*
X128625000Y-112500000D01*
X120000000Y-118075000D02*
X120000000Y-117625000D01*
X133695000Y-128820000D02*
X137865000Y-128820000D01*
X123375000Y-110000000D02*
X123625000Y-110250000D01*
X138150000Y-117300000D02*
X138150000Y-119895000D01*
X119825000Y-121350000D02*
X119825000Y-119675000D01*
X138150000Y-119895000D02*
X137865000Y-120180000D01*
X132300000Y-121300000D02*
X131375000Y-120375000D01*
X137865000Y-120180000D02*
X137865000Y-128820000D01*
X128875000Y-115500000D02*
X128475000Y-115100000D01*
X119175000Y-117250000D02*
X120000000Y-116425000D01*
X120000000Y-118075000D02*
X119175000Y-117250000D01*
X120325000Y-110000000D02*
X123375000Y-110000000D01*
X128625000Y-112500000D02*
X129125000Y-113000000D01*
X120000000Y-119500000D02*
X120000000Y-118075000D01*
X128875000Y-116750000D02*
X128875000Y-115500000D01*
X120000000Y-116425000D02*
X120000000Y-115912500D01*
X133115000Y-127700000D02*
X133115000Y-128240000D01*
X125825000Y-115100000D02*
X128475000Y-115100000D01*
X123750000Y-112500000D02*
X126750000Y-112500000D01*
X126500000Y-119000000D02*
X126625000Y-119000000D01*
X133115000Y-128240000D02*
X133695000Y-128820000D01*
X133115000Y-121300000D02*
X133115000Y-120760000D01*
X133695000Y-120180000D02*
X137865000Y-120180000D01*
X123625000Y-112375000D02*
X123750000Y-112500000D01*
X119825000Y-119675000D02*
X120000000Y-119500000D01*
X133115000Y-120760000D02*
X133695000Y-120180000D01*
%TO.N,Net-(U3-Pad3)*%
X133115000Y-126900000D02*
X131900000Y-126900000D01*
X138400000Y-112700000D02*
X139500000Y-113800000D01*
X139500000Y-118500000D02*
X139500000Y-118625000D01*
X138150000Y-112700000D02*
X138400000Y-112700000D01*
X131500000Y-121625000D02*
X131975000Y-122100000D01*
X131900000Y-126900000D02*
X131500000Y-126500000D01*
X131975000Y-122100000D02*
X133115000Y-122100000D01*
X139500000Y-113800000D02*
X139500000Y-118500000D01*
X139500000Y-118625000D02*
X139000000Y-119125000D01*
%TD*%
M02*
