%TF.GenerationSoftware,KiCad,Pcbnew,(6.0.7)*%
%TF.CreationDate,2025-06-10T03:22:09+09:00*%
%TF.ProjectId,AvatarSense,41766174-6172-4536-956e-73652e6b6963,rev?*%
%TF.SameCoordinates,Original*%
%TF.FileFunction,Copper,L1,Top*%
%TF.FilePolarity,Positive*%
%FSLAX46Y46*%
G04 Gerber Fmt 4.6, Leading zero omitted, Abs format (unit mm)*
G04 Created by KiCad (PCBNEW (6.0.7)) date 2025-06-10 03:22:09*
%MOMM*%
%LPD*%
G01*
G04 APERTURE LIST*
G04 Aperture macros list*
%AMRoundRect*
0 Rectangle with rounded corners*
0 $1 Rounding radius*
0 $2 $3 $4 $5 $6 $7 $8 $9 X,Y pos of 4 corners*
0 Add a 4 corners polygon primitive as box body*
4,1,4,$2,$3,$4,$5,$6,$7,$8,$9,$2,$3,0*
0 Add four circle primitives for the rounded corners*
1,1,$1+$1,$2,$3*
1,1,$1+$1,$4,$5*
1,1,$1+$1,$6,$7*
1,1,$1+$1,$8,$9*
0 Add four rect primitives between the rounded corners*
20,1,$1+$1,$2,$3,$4,$5,0*
20,1,$1+$1,$4,$5,$6,$7,0*
20,1,$1+$1,$6,$7,$8,$9,0*
20,1,$1+$1,$8,$9,$2,$3,0*%
%AMFreePoly0*
4,1,6,1.000000,0.000000,0.500000,-0.750000,-0.500000,-0.750000,-0.500000,0.750000,0.500000,0.750000,1.000000,0.000000,1.000000,0.000000,$1*%
%AMFreePoly1*
4,1,6,0.500000,-0.750000,-0.650000,-0.750000,-0.150000,0.000000,-0.650000,0.750000,0.500000,0.750000,0.500000,-0.750000,0.500000,-0.750000,$1*%
G04 Aperture macros list end*
%TA.AperFunction,SMDPad,CuDef*%
%ADD10RoundRect,0.140000X-0.140000X-0.170000X0.140000X-0.170000X0.140000X0.170000X-0.140000X0.170000X0*%
%TD*%
%TA.AperFunction,SMDPad,CuDef*%
%ADD11RoundRect,0.135000X0.185000X-0.135000X0.185000X0.135000X-0.185000X0.135000X-0.185000X-0.135000X0*%
%TD*%
%TA.AperFunction,SMDPad,CuDef*%
%ADD12RoundRect,0.140000X0.170000X-0.140000X0.170000X0.140000X-0.170000X0.140000X-0.170000X-0.140000X0*%
%TD*%
%TA.AperFunction,SMDPad,CuDef*%
%ADD13RoundRect,0.135000X-0.135000X-0.185000X0.135000X-0.185000X0.135000X0.185000X-0.135000X0.185000X0*%
%TD*%
%TA.AperFunction,SMDPad,CuDef*%
%ADD14RoundRect,0.250000X0.375000X1.075000X-0.375000X1.075000X-0.375000X-1.075000X0.375000X-1.075000X0*%
%TD*%
%TA.AperFunction,SMDPad,CuDef*%
%ADD15R,0.400000X0.650000*%
%TD*%
%TA.AperFunction,SMDPad,CuDef*%
%ADD16R,0.558000X1.454899*%
%TD*%
%TA.AperFunction,SMDPad,CuDef*%
%ADD17R,3.403600X2.514600*%
%TD*%
%TA.AperFunction,SMDPad,CuDef*%
%ADD18RoundRect,0.140000X0.140000X0.170000X-0.140000X0.170000X-0.140000X-0.170000X0.140000X-0.170000X0*%
%TD*%
%TA.AperFunction,SMDPad,CuDef*%
%ADD19RoundRect,0.135000X-0.185000X0.135000X-0.185000X-0.135000X0.185000X-0.135000X0.185000X0.135000X0*%
%TD*%
%TA.AperFunction,ComponentPad*%
%ADD20R,1.700000X1.700000*%
%TD*%
%TA.AperFunction,ComponentPad*%
%ADD21O,1.700000X1.700000*%
%TD*%
%TA.AperFunction,SMDPad,CuDef*%
%ADD22R,1.100000X0.900000*%
%TD*%
%TA.AperFunction,SMDPad,CuDef*%
%ADD23R,1.160000X0.600000*%
%TD*%
%TA.AperFunction,SMDPad,CuDef*%
%ADD24R,1.160000X0.300000*%
%TD*%
%TA.AperFunction,ComponentPad*%
%ADD25O,1.700000X0.900000*%
%TD*%
%TA.AperFunction,ComponentPad*%
%ADD26O,2.000000X0.900000*%
%TD*%
%TA.AperFunction,SMDPad,CuDef*%
%ADD27RoundRect,0.135000X0.135000X0.185000X-0.135000X0.185000X-0.135000X-0.185000X0.135000X-0.185000X0*%
%TD*%
%TA.AperFunction,SMDPad,CuDef*%
%ADD28R,2.000000X2.000000*%
%TD*%
%TA.AperFunction,SMDPad,CuDef*%
%ADD29RoundRect,0.150000X0.512500X0.150000X-0.512500X0.150000X-0.512500X-0.150000X0.512500X-0.150000X0*%
%TD*%
%TA.AperFunction,SMDPad,CuDef*%
%ADD30R,1.500000X2.000000*%
%TD*%
%TA.AperFunction,SMDPad,CuDef*%
%ADD31R,3.800000X2.000000*%
%TD*%
%TA.AperFunction,SMDPad,CuDef*%
%ADD32R,0.475000X0.250000*%
%TD*%
%TA.AperFunction,SMDPad,CuDef*%
%ADD33R,0.250000X0.475000*%
%TD*%
%TA.AperFunction,SMDPad,CuDef*%
%ADD34RoundRect,0.250000X-0.375000X-1.075000X0.375000X-1.075000X0.375000X1.075000X-0.375000X1.075000X0*%
%TD*%
%TA.AperFunction,SMDPad,CuDef*%
%ADD35FreePoly0,180.000000*%
%TD*%
%TA.AperFunction,SMDPad,CuDef*%
%ADD36FreePoly1,180.000000*%
%TD*%
%TA.AperFunction,ViaPad*%
%ADD37C,0.800000*%
%TD*%
%TA.AperFunction,Conductor*%
%ADD38C,0.250000*%
%TD*%
%TA.AperFunction,Conductor*%
%ADD39C,0.200000*%
%TD*%
G04 APERTURE END LIST*
D10*
%TO.P,C3,1*%
%TO.N,+3V3*%
X106520000Y-104500000D03*
%TO.P,C3,2*%
%TO.N,BAT-*%
X107480000Y-104500000D03*
%TD*%
D11*
%TO.P,R10,1*%
%TO.N,Net-(J2-PadA4)*%
X112000000Y-122260000D03*
%TO.P,R10,2*%
%TO.N,+5V*%
X112000000Y-121240000D03*
%TD*%
D12*
%TO.P,C6,1*%
%TO.N,+5V*%
X112000000Y-118960000D03*
%TO.P,C6,2*%
%TO.N,BAT-*%
X112000000Y-118000000D03*
%TD*%
D13*
%TO.P,R4,1*%
%TO.N,Net-(D1-Pad1)*%
X126115000Y-127125000D03*
%TO.P,R4,2*%
%TO.N,Net-(R4-Pad2)*%
X127135000Y-127125000D03*
%TD*%
D14*
%TO.P,D1,1,K*%
%TO.N,Net-(D1-Pad1)*%
X124775000Y-128000000D03*
%TO.P,D1,2,A*%
%TO.N,+5V*%
X121975000Y-128000000D03*
%TD*%
D15*
%TO.P,Q2,1,E1*%
%TO.N,RST*%
X109100000Y-128950000D03*
%TO.P,Q2,2,B1*%
%TO.N,DTR*%
X109750000Y-128950000D03*
%TO.P,Q2,3*%
%TO.N,N/C*%
X110400000Y-128950000D03*
%TO.P,Q2,4*%
X110400000Y-127050000D03*
%TO.P,Q2,5*%
X109750000Y-127050000D03*
%TO.P,Q2,6,C1*%
%TO.N,RST*%
X109100000Y-127050000D03*
%TD*%
D16*
%TO.P,U4,1,TEMP*%
%TO.N,BAT-*%
X108845000Y-112971348D03*
%TO.P,U4,2,PROG*%
%TO.N,Net-(R9-Pad2)*%
X110115000Y-112971348D03*
%TO.P,U4,3,GND*%
%TO.N,BAT-*%
X111385000Y-112971348D03*
%TO.P,U4,4,VCC*%
%TO.N,+5V*%
X112655000Y-112971348D03*
%TO.P,U4,5,BAT*%
%TO.N,BAT+*%
X112655000Y-107528652D03*
%TO.P,U4,6,\u002ASTDBY*%
%TO.N,Net-(R5-Pad1)*%
X111385000Y-107528652D03*
%TO.P,U4,7,\u002ACHRG*%
%TO.N,Net-(R4-Pad2)*%
X110115000Y-107528652D03*
%TO.P,U4,8,CE*%
%TO.N,+5V*%
X108845000Y-107528652D03*
D17*
%TO.P,U4,EPAD,EPAD*%
%TO.N,unconnected-(U4-PadEPAD)*%
X110750000Y-110250000D03*
%TD*%
D18*
%TO.P,C5,1*%
%TO.N,BAT+*%
X128210000Y-111000000D03*
%TO.P,C5,2*%
%TO.N,BAT-*%
X127250000Y-111000000D03*
%TD*%
D11*
%TO.P,R2,1*%
%TO.N,Net-(R2-Pad1)*%
X130000000Y-112020000D03*
%TO.P,R2,2*%
%TO.N,BAT+*%
X130000000Y-111000000D03*
%TD*%
D19*
%TO.P,R16,1*%
%TO.N,SDA*%
X124500000Y-124240000D03*
%TO.P,R16,2*%
%TO.N,+3V3*%
X124500000Y-125260000D03*
%TD*%
D20*
%TO.P,J1,1,Pin_1*%
%TO.N,+3V3*%
X102275000Y-102200000D03*
D21*
%TO.P,J1,2,Pin_2*%
%TO.N,D+*%
X102275000Y-104740000D03*
%TO.P,J1,3,Pin_3*%
%TO.N,D-*%
X102275000Y-107280000D03*
%TO.P,J1,4,Pin_4*%
%TO.N,BAT-*%
X102275000Y-109820000D03*
%TD*%
D15*
%TO.P,Q1,1,E1*%
%TO.N,DTR*%
X112250000Y-129000000D03*
%TO.P,Q1,2,B1*%
%TO.N,RTS*%
X112900000Y-129000000D03*
%TO.P,Q1,3*%
%TO.N,N/C*%
X113550000Y-129000000D03*
%TO.P,Q1,4*%
X113550000Y-127100000D03*
%TO.P,Q1,5*%
X112900000Y-127100000D03*
%TO.P,Q1,6,C1*%
%TO.N,GPIO0*%
X112250000Y-127100000D03*
%TD*%
D10*
%TO.P,C2,1*%
%TO.N,+3V3*%
X106520000Y-102750000D03*
%TO.P,C2,2*%
%TO.N,BAT-*%
X107480000Y-102750000D03*
%TD*%
D22*
%TO.P,Y1,1,TRI-STATE*%
%TO.N,unconnected-(Y1-Pad1)*%
X125000000Y-116400000D03*
%TO.P,Y1,2,GROUND*%
%TO.N,BAT-*%
X126800000Y-116400000D03*
%TO.P,Y1,3,OUTPUT*%
%TO.N,CLK*%
X126800000Y-115000000D03*
%TO.P,Y1,4,VDD*%
%TO.N,+1V8*%
X125000000Y-115000000D03*
%TD*%
D23*
%TO.P,J3,A1,GND*%
%TO.N,BAT-*%
X106885000Y-121300000D03*
%TO.P,J3,A4,VBUS*%
%TO.N,+3V3*%
X106885000Y-122100000D03*
D24*
%TO.P,J3,A5,CC1*%
%TO.N,unconnected-(J3-PadA5)*%
X106885000Y-123250000D03*
%TO.P,J3,A6,D+*%
%TO.N,SCL*%
X106885000Y-124250000D03*
%TO.P,J3,A7,D-*%
%TO.N,SDA*%
X106885000Y-124750000D03*
%TO.P,J3,A8,SBU1*%
%TO.N,unconnected-(J3-PadA8)*%
X106885000Y-125750000D03*
D23*
%TO.P,J3,A9,VBUS*%
%TO.N,+3V3*%
X106885000Y-126900000D03*
%TO.P,J3,A12,GND*%
%TO.N,BAT-*%
X106885000Y-127700000D03*
%TO.P,J3,B1,GND*%
X106885000Y-127700000D03*
%TO.P,J3,B4,VBUS*%
%TO.N,+3V3*%
X106885000Y-126900000D03*
D24*
%TO.P,J3,B5,CC2*%
%TO.N,unconnected-(J3-PadB5)*%
X106885000Y-126250000D03*
%TO.P,J3,B6,D+*%
%TO.N,SCL*%
X106885000Y-125250000D03*
%TO.P,J3,B7,D-*%
%TO.N,SDA*%
X106885000Y-123750000D03*
%TO.P,J3,B8,SBU2*%
%TO.N,unconnected-(J3-PadB8)*%
X106885000Y-122750000D03*
D23*
%TO.P,J3,B9,VBUS*%
%TO.N,+3V3*%
X106885000Y-122100000D03*
%TO.P,J3,B12,GND*%
%TO.N,BAT-*%
X106885000Y-121300000D03*
D25*
%TO.P,J3,S1,SHIELD*%
X102135000Y-128820000D03*
D26*
X106305000Y-120180000D03*
D25*
X102135000Y-120180000D03*
D26*
X106305000Y-128820000D03*
%TD*%
D10*
%TO.P,C1,1*%
%TO.N,+3V3*%
X106500000Y-101000000D03*
%TO.P,C1,2*%
%TO.N,BAT-*%
X107460000Y-101000000D03*
%TD*%
%TO.P,C8,1*%
%TO.N,+3V3*%
X119020000Y-117750000D03*
%TO.P,C8,2*%
%TO.N,BAT-*%
X119980000Y-117750000D03*
%TD*%
D27*
%TO.P,R6,1*%
%TO.N,BAT-*%
X131260000Y-120250000D03*
%TO.P,R6,2*%
%TO.N,GPIO15*%
X130240000Y-120250000D03*
%TD*%
D10*
%TO.P,C7,1*%
%TO.N,+3V3*%
X119020000Y-120250000D03*
%TO.P,C7,2*%
%TO.N,BAT-*%
X119980000Y-120250000D03*
%TD*%
D19*
%TO.P,R5,1*%
%TO.N,Net-(R5-Pad1)*%
X114850000Y-126740000D03*
%TO.P,R5,2*%
%TO.N,Net-(D2-Pad1)*%
X114850000Y-127760000D03*
%TD*%
D11*
%TO.P,R13,1*%
%TO.N,+3V3*%
X116750000Y-115250000D03*
%TO.P,R13,2*%
%TO.N,Net-(JP1-Pad1)*%
X116750000Y-114230000D03*
%TD*%
D13*
%TO.P,R9,1*%
%TO.N,BAT-*%
X100990000Y-113000000D03*
%TO.P,R9,2*%
%TO.N,Net-(R9-Pad2)*%
X102010000Y-113000000D03*
%TD*%
D28*
%TO.P,TP2,1,1*%
%TO.N,BAT-*%
X122250000Y-102000000D03*
%TD*%
D29*
%TO.P,U5,1,VIN*%
%TO.N,+3V3*%
X121387500Y-107700000D03*
%TO.P,U5,2,GND*%
%TO.N,BAT-*%
X121387500Y-106750000D03*
%TO.P,U5,3,EN*%
%TO.N,+3V3*%
X121387500Y-105800000D03*
%TO.P,U5,4,NC*%
%TO.N,unconnected-(U5-Pad4)*%
X119112500Y-105800000D03*
%TO.P,U5,5,VOUT*%
%TO.N,+1V8*%
X119112500Y-107700000D03*
%TD*%
D30*
%TO.P,U3,1,GND*%
%TO.N,BAT-*%
X125450000Y-108150000D03*
%TO.P,U3,2,VO*%
%TO.N,+3V3*%
X127750000Y-108150000D03*
D31*
X127750000Y-101850000D03*
D30*
%TO.P,U3,3,VI*%
%TO.N,Net-(SW1-Pad1)*%
X130050000Y-108150000D03*
%TD*%
D32*
%TO.P,U6,1,AP_SDO/AP_AD0*%
%TO.N,Net-(JP1-Pad1)*%
X118837500Y-114250000D03*
%TO.P,U6,2,RESV/AUX1_SDIO/AUX1_SDI/MAS_DA*%
%TO.N,unconnected-(U6-Pad2)*%
X118837500Y-114750000D03*
%TO.P,U6,3,RESV/AUX1_SCLK/MAS_CLK*%
%TO.N,unconnected-(U6-Pad3)*%
X118837500Y-115250000D03*
%TO.P,U6,4,INT1/INT*%
%TO.N,unconnected-(U6-Pad4)*%
X118837500Y-115750000D03*
D33*
%TO.P,U6,5,VDDIO*%
%TO.N,+3V3*%
X119500000Y-115912500D03*
%TO.P,U6,6,GND*%
%TO.N,BAT-*%
X120000000Y-115912500D03*
%TO.P,U6,7,RESV*%
%TO.N,unconnected-(U6-Pad7)*%
X120500000Y-115912500D03*
D32*
%TO.P,U6,8,VDD*%
%TO.N,+3V3*%
X121162500Y-115750000D03*
%TO.P,U6,9,INT2/FSYNC/CLKIN*%
%TO.N,CLK*%
X121162500Y-115250000D03*
%TO.P,U6,10,RESV/AUX1_CS*%
%TO.N,unconnected-(U6-Pad10)*%
X121162500Y-114750000D03*
%TO.P,U6,11,RESV/AUX1_SDO*%
%TO.N,unconnected-(U6-Pad11)*%
X121162500Y-114250000D03*
D33*
%TO.P,U6,12,AP_CS*%
%TO.N,Net-(R14-Pad1)*%
X120500000Y-114087500D03*
%TO.P,U6,13,AP_SCL/AP_SCLK*%
%TO.N,SCL*%
X120000000Y-114087500D03*
%TO.P,U6,14,AP_SDA/AP_SDIO/AP_SDI*%
%TO.N,SDA*%
X119500000Y-114087500D03*
%TD*%
D27*
%TO.P,R12,1*%
%TO.N,Net-(J2-PadB5)*%
X129520000Y-123750000D03*
%TO.P,R12,2*%
%TO.N,BAT-*%
X128500000Y-123750000D03*
%TD*%
%TO.P,R11,1*%
%TO.N,Net-(J2-PadA5)*%
X131250000Y-126125000D03*
%TO.P,R11,2*%
%TO.N,BAT-*%
X130230000Y-126125000D03*
%TD*%
D28*
%TO.P,TP1,1,1*%
%TO.N,BAT+*%
X119000000Y-102000000D03*
%TD*%
D34*
%TO.P,D2,1,K*%
%TO.N,Net-(D2-Pad1)*%
X116450000Y-128000000D03*
%TO.P,D2,2,A*%
%TO.N,+5V*%
X119250000Y-128000000D03*
%TD*%
D23*
%TO.P,J2,A1,GND*%
%TO.N,BAT-*%
X133115000Y-127700000D03*
%TO.P,J2,A4,VBUS*%
%TO.N,Net-(J2-PadA4)*%
X133115000Y-126900000D03*
D24*
%TO.P,J2,A5,CC1*%
%TO.N,Net-(J2-PadA5)*%
X133115000Y-125750000D03*
%TO.P,J2,A6,D+*%
%TO.N,unconnected-(J2-PadA6)*%
X133115000Y-124750000D03*
%TO.P,J2,A7,D-*%
%TO.N,unconnected-(J2-PadA7)*%
X133115000Y-124250000D03*
%TO.P,J2,A8,SBU1*%
%TO.N,unconnected-(J2-PadA8)*%
X133115000Y-123250000D03*
D23*
%TO.P,J2,A9,VBUS*%
%TO.N,Net-(J2-PadA4)*%
X133115000Y-122100000D03*
%TO.P,J2,A12,GND*%
%TO.N,BAT-*%
X133115000Y-121300000D03*
%TO.P,J2,B1,GND*%
X133115000Y-121300000D03*
%TO.P,J2,B4,VBUS*%
%TO.N,Net-(J2-PadA4)*%
X133115000Y-122100000D03*
D24*
%TO.P,J2,B5,CC2*%
%TO.N,Net-(J2-PadB5)*%
X133115000Y-122750000D03*
%TO.P,J2,B6,D+*%
%TO.N,unconnected-(J2-PadB6)*%
X133115000Y-123750000D03*
%TO.P,J2,B7,D-*%
%TO.N,unconnected-(J2-PadB7)*%
X133115000Y-125250000D03*
%TO.P,J2,B8,SBU2*%
%TO.N,unconnected-(J2-PadB8)*%
X133115000Y-126250000D03*
D23*
%TO.P,J2,B9,VBUS*%
%TO.N,Net-(J2-PadA4)*%
X133115000Y-126900000D03*
%TO.P,J2,B12,GND*%
%TO.N,BAT-*%
X133115000Y-127700000D03*
D25*
%TO.P,J2,S1,SHIELD*%
X137865000Y-120180000D03*
D26*
X133695000Y-120180000D03*
X133695000Y-128820000D03*
D25*
X137865000Y-128820000D03*
%TD*%
D19*
%TO.P,R14,1*%
%TO.N,Net-(R14-Pad1)*%
X119000000Y-124230000D03*
%TO.P,R14,2*%
%TO.N,+3V3*%
X119000000Y-125250000D03*
%TD*%
D35*
%TO.P,JP1,1,A*%
%TO.N,Net-(JP1-Pad1)*%
X116725000Y-118500000D03*
D36*
%TO.P,JP1,2,B*%
%TO.N,BAT-*%
X115275000Y-118500000D03*
%TD*%
D19*
%TO.P,R15,1*%
%TO.N,SCL*%
X121750000Y-124230000D03*
%TO.P,R15,2*%
%TO.N,+3V3*%
X121750000Y-125250000D03*
%TD*%
D37*
%TO.N,+3V3*%
X121750000Y-120250000D03*
X108250000Y-122750000D03*
X116347000Y-122229000D03*
X119248000Y-106778000D03*
%TO.N,BAT-*%
X119000000Y-109500000D03*
X111450000Y-104558000D03*
X117554000Y-104830000D03*
X120250000Y-104500000D03*
%TO.N,RST*%
X108250000Y-128250000D03*
X111450000Y-129000000D03*
X120625000Y-129375000D03*
%TO.N,BAT+*%
X131125000Y-111000000D03*
X129500000Y-124875000D03*
%TO.N,+5V*%
X120625000Y-126750000D03*
X111000000Y-121250000D03*
%TO.N,Net-(JP1-Pad1)*%
X118799500Y-112750000D03*
X117350000Y-113000000D03*
%TO.N,DTR*%
X104250000Y-116253000D03*
%TO.N,RTS*%
X114750000Y-128629500D03*
X107564061Y-109809647D03*
X113416000Y-124941000D03*
%TO.N,GPIO0*%
X113249000Y-128016000D03*
X114000000Y-120500000D03*
X116488000Y-124512000D03*
%TO.N,Net-(R2-Pad1)*%
X129200000Y-112746000D03*
%TO.N,TX*%
X105607000Y-104937000D03*
X104250000Y-119250000D03*
%TO.N,Net-(R4-Pad2)*%
X105500000Y-117000000D03*
X104390000Y-111625000D03*
X127750000Y-125000000D03*
%TO.N,Net-(R5-Pad1)*%
X109250000Y-120750000D03*
X114233000Y-125517000D03*
X104893000Y-109311000D03*
X112806926Y-120525500D03*
X115298000Y-124326000D03*
X103500000Y-114750000D03*
%TO.N,Net-(R14-Pad1)*%
X120000000Y-121818000D03*
X115000000Y-122000000D03*
X122500000Y-114500000D03*
X121000000Y-119500000D03*
%TO.N,SCL*%
X123250000Y-113750000D03*
X109000000Y-125500000D03*
X126160000Y-122868000D03*
X110000000Y-124326000D03*
X123262000Y-120373000D03*
%TO.N,SDA*%
X113579000Y-109553000D03*
X106750000Y-117250000D03*
X125781000Y-113000000D03*
X119750000Y-112250000D03*
X117250000Y-111750000D03*
X124750000Y-120750000D03*
X117000000Y-107750000D03*
X113250000Y-115500000D03*
%TO.N,D-*%
X101523000Y-113937000D03*
X108575000Y-115528000D03*
%TO.N,+1V8*%
X125056000Y-110250000D03*
X125056000Y-115000000D03*
%TO.N,Net-(SW1-Pad1)*%
X131125000Y-124750000D03*
X129000000Y-110000000D03*
%TD*%
D38*
%TO.N,+3V3*%
X125523000Y-101850000D02*
X125523000Y-106564000D01*
X106885000Y-122100000D02*
X107600000Y-122100000D01*
X118675000Y-106778000D02*
X118075000Y-107379000D01*
X106520000Y-102750000D02*
X106500000Y-102730000D01*
X116750000Y-115250000D02*
X118000000Y-116500000D01*
X118000000Y-116500000D02*
X119250000Y-116500000D01*
X106500000Y-102730000D02*
X106500000Y-102200000D01*
X122749000Y-106763000D02*
X121812000Y-107700000D01*
X126673000Y-108150000D02*
X126673000Y-107153000D01*
X119500000Y-116250000D02*
X119500000Y-115912500D01*
X119248000Y-106778000D02*
X118675000Y-106778000D01*
X119020000Y-122228000D02*
X116347000Y-122228000D01*
X106520000Y-102750000D02*
X106520000Y-104500000D01*
X120716000Y-107700000D02*
X119794000Y-106778000D01*
X106500000Y-102200000D02*
X106500000Y-101000000D01*
X118075000Y-107379000D02*
X118075000Y-113925000D01*
X107600000Y-122100000D02*
X108250000Y-122750000D01*
X125523000Y-106564000D02*
X122948000Y-106564000D01*
X121750000Y-125250000D02*
X124490000Y-125250000D01*
X119020000Y-120250000D02*
X119020000Y-117750000D01*
X126673000Y-107153000D02*
X126084000Y-106564000D01*
X118075000Y-113925000D02*
X116750000Y-115250000D01*
X121387500Y-107700000D02*
X120716000Y-107700000D01*
X105980000Y-126725000D02*
X105980000Y-122275000D01*
X121162000Y-115750000D02*
X121162000Y-118162000D01*
X119698000Y-125250000D02*
X121750000Y-125250000D01*
X119000000Y-125250000D02*
X119698000Y-125250000D01*
X121750000Y-118750000D02*
X121750000Y-120250000D01*
X119020000Y-122228000D02*
X119020000Y-120250000D01*
X121786000Y-105800000D02*
X122749000Y-106763000D01*
X116347000Y-122228000D02*
X116347000Y-122229000D01*
X106710000Y-126725000D02*
X105980000Y-126725000D01*
X105980000Y-122275000D02*
X106710000Y-122275000D01*
X127750000Y-108150000D02*
X126673000Y-108150000D01*
X121388000Y-105800000D02*
X121387500Y-105800000D01*
X122948000Y-106564000D02*
X122749000Y-106763000D01*
X106500000Y-102200000D02*
X102275000Y-102200000D01*
X126084000Y-106564000D02*
X125523000Y-106564000D01*
X106710000Y-122275000D02*
X106885000Y-122100000D01*
X121812000Y-107700000D02*
X121387500Y-107700000D01*
X127750000Y-101850000D02*
X125523000Y-101850000D01*
X121388000Y-105800000D02*
X121786000Y-105800000D01*
X121162000Y-118162000D02*
X121750000Y-118750000D01*
X119794000Y-106778000D02*
X119248000Y-106778000D01*
X119250000Y-116500000D02*
X119500000Y-116250000D01*
X106885000Y-126900000D02*
X106710000Y-126725000D01*
X119698000Y-125250000D02*
X119698000Y-122905000D01*
X119698000Y-122905000D02*
X119020000Y-122228000D01*
%TO.N,BAT-*%
X127250000Y-111000000D02*
X125727000Y-109477000D01*
X119980000Y-120250000D02*
X119980000Y-117750000D01*
X111385000Y-112971000D02*
X111385000Y-112971300D01*
X108754000Y-112353000D02*
X108845000Y-112444000D01*
X132775000Y-120250000D02*
X133115000Y-120250000D01*
X117403000Y-119585000D02*
X115600000Y-119585000D01*
X127750000Y-115750000D02*
X127750000Y-112750000D01*
X132775000Y-120250000D02*
X131260000Y-120250000D01*
X133185000Y-120180000D02*
X133695000Y-120180000D01*
X132208000Y-127940000D02*
X132208000Y-127700000D01*
X107480000Y-104500000D02*
X107480000Y-104558000D01*
X127250000Y-111000000D02*
X124500000Y-111000000D01*
X118126000Y-105401000D02*
X114448000Y-109079000D01*
X133115000Y-120250000D02*
X133185000Y-120180000D01*
X120000000Y-117730000D02*
X120032000Y-117698000D01*
X133115000Y-121300000D02*
X132208000Y-121300000D01*
X120032000Y-117698000D02*
X119445000Y-117111000D01*
X127100000Y-116400000D02*
X127750000Y-115750000D01*
X119445000Y-117111000D02*
X118640000Y-117111000D01*
X109372000Y-111917000D02*
X108845000Y-112444000D01*
X121387500Y-106750000D02*
X120890000Y-106750000D01*
X111385000Y-112971000D02*
X111385000Y-111917000D01*
D39*
X130230000Y-126125000D02*
X131805000Y-127700000D01*
D38*
X102275000Y-108643000D02*
X102275000Y-109820000D01*
X102275000Y-112353000D02*
X101637000Y-112353000D01*
X114448000Y-118000000D02*
X112000000Y-118000000D01*
D39*
X106885000Y-128240000D02*
X106305000Y-128820000D01*
X102135000Y-120180000D02*
X106305000Y-120180000D01*
D38*
X119980000Y-117750000D02*
X120000000Y-117730000D01*
X131260000Y-120250000D02*
X127410000Y-116400000D01*
X107480000Y-102750000D02*
X107480000Y-104500000D01*
X133115000Y-120250000D02*
X132775000Y-120250000D01*
X126800000Y-116400000D02*
X127100000Y-116400000D01*
X118640000Y-117111000D02*
X118363000Y-117388000D01*
D39*
X120000000Y-115912500D02*
X120000000Y-117730000D01*
D38*
X123000000Y-109500000D02*
X119000000Y-109500000D01*
X114448000Y-109079000D02*
X114448000Y-118000000D01*
X102275000Y-112353000D02*
X108754000Y-112353000D01*
X114515000Y-118500000D02*
X114448000Y-118500000D01*
X107480000Y-101020000D02*
X107460000Y-101000000D01*
X111385000Y-111917000D02*
X109372000Y-111917000D01*
X120378000Y-105171000D02*
X118356000Y-105171000D01*
X120890000Y-106750000D02*
X120392000Y-106252000D01*
D39*
X102135000Y-128820000D02*
X102135000Y-120180000D01*
D38*
X120392000Y-104642000D02*
X120392000Y-105185000D01*
X118363000Y-118625000D02*
X117403000Y-119585000D01*
X127250000Y-112250000D02*
X127250000Y-111000000D01*
X120392000Y-106252000D02*
X120392000Y-105185000D01*
D39*
X129760050Y-126125000D02*
X128500000Y-124864950D01*
D38*
X115275000Y-118500000D02*
X114515000Y-118500000D01*
D39*
X102135000Y-128820000D02*
X106305000Y-128820000D01*
D38*
X108845000Y-112971000D02*
X108845000Y-112444000D01*
X118363000Y-117388000D02*
X118363000Y-118625000D01*
X120392000Y-105185000D02*
X120378000Y-105171000D01*
D39*
X106885000Y-120760000D02*
X106305000Y-120180000D01*
D38*
X124500000Y-111000000D02*
X123000000Y-109500000D01*
X114448000Y-118500000D02*
X114448000Y-118000000D01*
X132208000Y-121300000D02*
X132208000Y-120817000D01*
X107480000Y-104558000D02*
X111450000Y-104558000D01*
D39*
X106885000Y-121300000D02*
X106885000Y-120760000D01*
D38*
X132368000Y-128820000D02*
X132208000Y-128660000D01*
X120250000Y-104500000D02*
X120392000Y-104642000D01*
D39*
X106885000Y-127700000D02*
X106885000Y-128240000D01*
D38*
X125450000Y-109477000D02*
X125450000Y-108150000D01*
X132208000Y-127700000D02*
X133115000Y-127700000D01*
D39*
X120000000Y-117730000D02*
X119980000Y-117750000D01*
D38*
X127750000Y-112750000D02*
X127250000Y-112250000D01*
X120392000Y-105185000D02*
X122250000Y-103327000D01*
X107480000Y-104558000D02*
X103394000Y-108643000D01*
D39*
X128500000Y-124864950D02*
X128500000Y-123750000D01*
D38*
X117554000Y-104830000D02*
X118126000Y-105401000D01*
X108845000Y-112971000D02*
X108845000Y-112971300D01*
X127100000Y-116400000D02*
X126800000Y-116400000D01*
X103394000Y-108643000D02*
X102275000Y-108643000D01*
X133695000Y-128820000D02*
X132368000Y-128820000D01*
X122250000Y-103327000D02*
X122250000Y-102000000D01*
X107480000Y-102750000D02*
X107480000Y-101020000D01*
X101637000Y-112353000D02*
X100990000Y-113000000D01*
X125727000Y-109477000D02*
X125450000Y-109477000D01*
X127410000Y-116400000D02*
X127100000Y-116400000D01*
D39*
X130230000Y-126125000D02*
X129760050Y-126125000D01*
D38*
X137865000Y-128820000D02*
X133695000Y-128820000D01*
X118356000Y-105171000D02*
X118126000Y-105401000D01*
X132208000Y-120817000D02*
X132775000Y-120250000D01*
X132208000Y-128660000D02*
X132208000Y-127940000D01*
X102275000Y-109820000D02*
X102275000Y-112353000D01*
D39*
X131805000Y-127700000D02*
X132208000Y-127700000D01*
D38*
X137865000Y-120180000D02*
X133695000Y-120180000D01*
X115600000Y-119585000D02*
X114515000Y-118500000D01*
%TO.N,RST*%
X109100000Y-127050000D02*
X109100000Y-127400000D01*
X109100000Y-129475000D02*
X109225000Y-129600000D01*
X109100000Y-127400000D02*
X109100000Y-127050000D01*
X109100000Y-127400000D02*
X108250000Y-128250000D01*
X109100000Y-128950000D02*
X109100000Y-129475000D01*
X110850000Y-129600000D02*
X111450000Y-129000000D01*
X109100000Y-128950000D02*
X109100000Y-127400000D01*
X109225000Y-129600000D02*
X110850000Y-129600000D01*
%TO.N,BAT+*%
X121223000Y-100523000D02*
X129790000Y-100523000D01*
X120327000Y-102000000D02*
X120327000Y-101420000D01*
X129790000Y-100523000D02*
X130050000Y-100783000D01*
X117673000Y-102000000D02*
X113199000Y-106474000D01*
X131500000Y-109500000D02*
X130000000Y-111000000D01*
X130050000Y-100783000D02*
X130050000Y-105175000D01*
X113199000Y-106984652D02*
X112655000Y-107528652D01*
X119000000Y-102000000D02*
X120327000Y-102000000D01*
X130050000Y-105175000D02*
X131500000Y-106625000D01*
X119000000Y-102000000D02*
X117673000Y-102000000D01*
D39*
X131125000Y-111000000D02*
X130000000Y-111000000D01*
D38*
X113199000Y-106474000D02*
X113199000Y-106984652D01*
X120327000Y-101420000D02*
X121223000Y-100523000D01*
X131500000Y-106625000D02*
X131500000Y-109500000D01*
X128210000Y-111000000D02*
X130000000Y-111000000D01*
%TO.N,+5V*%
X112854000Y-111718000D02*
X112854000Y-108850000D01*
X120625000Y-127125000D02*
X120625000Y-126750000D01*
X111906000Y-118960000D02*
X111360000Y-118414000D01*
X112000000Y-118960000D02*
X112000000Y-121240000D01*
X111360000Y-118414000D02*
X111360000Y-116338000D01*
X111990000Y-121250000D02*
X112000000Y-121240000D01*
X112655000Y-112971300D02*
X112655000Y-111917000D01*
X108845000Y-108583000D02*
X108845000Y-107529000D01*
X112655000Y-111917000D02*
X112854000Y-111718000D01*
X121975000Y-128000000D02*
X121500000Y-128000000D01*
X112655000Y-115044000D02*
X112655000Y-112971300D01*
X121500000Y-128000000D02*
X120625000Y-127125000D01*
X112000000Y-118960000D02*
X111906000Y-118960000D01*
X111360000Y-116338000D02*
X112655000Y-115044000D01*
X111000000Y-121250000D02*
X111990000Y-121250000D01*
X119750000Y-128000000D02*
X120625000Y-127125000D01*
X112854000Y-108850000D02*
X112588000Y-108583000D01*
X119250000Y-128000000D02*
X119750000Y-128000000D01*
X112588000Y-108583000D02*
X108845000Y-108583000D01*
X108845000Y-107529000D02*
X108845000Y-107528600D01*
%TO.N,Net-(JP1-Pad1)*%
X116725000Y-116199000D02*
X116725000Y-118500000D01*
X117350000Y-113000000D02*
X117350000Y-113630000D01*
X116750000Y-114230000D02*
X116041000Y-114939000D01*
X116041000Y-115515000D02*
X116725000Y-116199000D01*
X118838000Y-112788500D02*
X118838000Y-114250000D01*
X118799500Y-112750000D02*
X118838000Y-112788500D01*
X117350000Y-113630000D02*
X116750000Y-114230000D01*
X116041000Y-114939000D02*
X116041000Y-115515000D01*
%TO.N,DTR*%
X109750000Y-128425000D02*
X109925000Y-128250000D01*
X112000000Y-128250000D02*
X112250000Y-128500000D01*
X112250000Y-128500000D02*
X112250000Y-129000000D01*
X108000000Y-116250000D02*
X104253000Y-116250000D01*
X104253000Y-116250000D02*
X104250000Y-116253000D01*
X112500000Y-125000000D02*
X112500000Y-124750000D01*
X109750000Y-122500000D02*
X108250000Y-121000000D01*
X108250000Y-121000000D02*
X108250000Y-116500000D01*
X109750000Y-128950000D02*
X109750000Y-128425000D01*
X111500000Y-128250000D02*
X112000000Y-128250000D01*
X111500000Y-126000000D02*
X112500000Y-125000000D01*
X108250000Y-116500000D02*
X108000000Y-116250000D01*
X112500000Y-124750000D02*
X110250000Y-122500000D01*
X110250000Y-122500000D02*
X109750000Y-122500000D01*
X111500000Y-128250000D02*
X111500000Y-126000000D01*
X109925000Y-128250000D02*
X111500000Y-128250000D01*
%TO.N,RTS*%
X114750000Y-128629500D02*
X114750000Y-129000000D01*
X114750000Y-129000000D02*
X114100000Y-129650000D01*
X112975000Y-129650000D02*
X112900000Y-129575000D01*
X114100000Y-129650000D02*
X112975000Y-129650000D01*
X112900000Y-129575000D02*
X112900000Y-129000000D01*
%TO.N,GPIO0*%
X112591000Y-128016000D02*
X113249000Y-128016000D01*
X114500000Y-122750000D02*
X114000000Y-122250000D01*
X112250000Y-127100000D02*
X112250000Y-127675000D01*
X114747000Y-122750000D02*
X114500000Y-122750000D01*
X114000000Y-122250000D02*
X114000000Y-120500000D01*
X116488000Y-124512000D02*
X116488000Y-124491000D01*
X116488000Y-124491000D02*
X114747000Y-122750000D01*
X112250000Y-127675000D02*
X112591000Y-128016000D01*
%TO.N,Net-(R2-Pad1)*%
X130000000Y-112020000D02*
X129274000Y-112746000D01*
X129274000Y-112746000D02*
X129200000Y-112746000D01*
%TO.N,TX*%
X104250000Y-117750000D02*
X104250000Y-119250000D01*
X101974000Y-105917000D02*
X100393000Y-107498000D01*
X104627000Y-105917000D02*
X101974000Y-105917000D01*
X100393000Y-113893000D02*
X104250000Y-117750000D01*
X100393000Y-107498000D02*
X100393000Y-113893000D01*
X105607000Y-104937000D02*
X104627000Y-105917000D01*
%TO.N,Net-(D1-Pad1)*%
X126115000Y-127125000D02*
X125650000Y-127125000D01*
X125650000Y-127125000D02*
X124775000Y-128000000D01*
%TO.N,Net-(R4-Pad2)*%
X108372000Y-106474000D02*
X110115000Y-106474000D01*
X127750000Y-125000000D02*
X127750000Y-126510000D01*
X108088000Y-107928000D02*
X108088000Y-106758000D01*
X127750000Y-126510000D02*
X127135000Y-127125000D01*
X104390000Y-111625000D02*
X108088000Y-107928000D01*
X110115000Y-106474000D02*
X110115000Y-107528600D01*
X108088000Y-106758000D02*
X108372000Y-106474000D01*
%TO.N,Net-(R5-Pad1)*%
X111385000Y-107528600D02*
X111385000Y-106474000D01*
X109250000Y-120750000D02*
X109250000Y-116832695D01*
X109500000Y-114750000D02*
X103500000Y-114750000D01*
X109250000Y-116832695D02*
X109750000Y-116332695D01*
X112806926Y-120525500D02*
X113250000Y-120968574D01*
X109750000Y-116332695D02*
X109750000Y-115000000D01*
X110933000Y-106022000D02*
X108182000Y-106022000D01*
X114850000Y-126740000D02*
X114850000Y-126135000D01*
X113250000Y-120968574D02*
X113250000Y-122278000D01*
X114850000Y-126135000D02*
X114233000Y-125517000D01*
X113250000Y-122278000D02*
X115298000Y-124326000D01*
X111385000Y-106474000D02*
X110933000Y-106022000D01*
X109750000Y-115000000D02*
X109500000Y-114750000D01*
X108182000Y-106022000D02*
X104893000Y-109311000D01*
%TO.N,Net-(D2-Pad1)*%
X116210000Y-127760000D02*
X116450000Y-128000000D01*
X114850000Y-127760000D02*
X116210000Y-127760000D01*
%TO.N,Net-(R9-Pad2)*%
X107250000Y-113000000D02*
X108500000Y-114250000D01*
X109500000Y-114250000D02*
X110115000Y-113635000D01*
X108500000Y-114250000D02*
X109500000Y-114250000D01*
X102010000Y-113000000D02*
X107250000Y-113000000D01*
X110115000Y-113635000D02*
X110115000Y-112971348D01*
%TO.N,Net-(J2-PadA4)*%
X124954000Y-126250000D02*
X129104000Y-122100000D01*
X133692000Y-126900000D02*
X134043000Y-126550000D01*
X121750000Y-126250000D02*
X124954000Y-126250000D01*
X121500000Y-126000000D02*
X121750000Y-126250000D01*
X112000000Y-122260000D02*
X112010000Y-122260000D01*
X129104000Y-122100000D02*
X133115000Y-122100000D01*
X133681000Y-122100000D02*
X133115000Y-122100000D01*
X133115000Y-126900000D02*
X133692000Y-126900000D01*
X134043000Y-126550000D02*
X134043000Y-122462000D01*
X115750000Y-126000000D02*
X121500000Y-126000000D01*
X134043000Y-122462000D02*
X133681000Y-122100000D01*
X112010000Y-122260000D02*
X115750000Y-126000000D01*
%TO.N,Net-(J2-PadA5)*%
X131625000Y-125750000D02*
X133115000Y-125750000D01*
X131250000Y-126125000D02*
X131625000Y-125750000D01*
%TO.N,Net-(J2-PadB5)*%
X133115000Y-122750000D02*
X130520000Y-122750000D01*
X130520000Y-122750000D02*
X129520000Y-123750000D01*
%TO.N,Net-(R14-Pad1)*%
X120000000Y-121818000D02*
X120000000Y-121198000D01*
X121800000Y-113800000D02*
X120788000Y-113800000D01*
X120788000Y-113800000D02*
X120500000Y-114088000D01*
X120000000Y-121198000D02*
X121000000Y-120198000D01*
X121000000Y-120198000D02*
X121000000Y-119500000D01*
X116787000Y-123787000D02*
X115000000Y-122000000D01*
X118557000Y-123787000D02*
X116787000Y-123787000D01*
X119000000Y-124230000D02*
X118557000Y-123787000D01*
X122500000Y-114500000D02*
X121800000Y-113800000D01*
%TO.N,SCL*%
X123112000Y-122868000D02*
X125757000Y-122868000D01*
X109924000Y-124250000D02*
X110000000Y-124326000D01*
X108750000Y-125250000D02*
X109000000Y-125500000D01*
X106885000Y-125250000D02*
X108750000Y-125250000D01*
X125757000Y-122868000D02*
X126160000Y-122868000D01*
X120750000Y-113000000D02*
X122500000Y-113000000D01*
X122500000Y-113000000D02*
X123250000Y-113750000D01*
X125757000Y-122868000D02*
X126160000Y-122868000D01*
X123262000Y-120373000D02*
X125757000Y-122868000D01*
X120000000Y-113750000D02*
X120750000Y-113000000D01*
X106885000Y-124250000D02*
X109924000Y-124250000D01*
X120000000Y-114087500D02*
X120000000Y-113750000D01*
X121750000Y-124230000D02*
X123112000Y-122868000D01*
%TO.N,SDA*%
X119500000Y-113250000D02*
X120250000Y-112500000D01*
X126911000Y-122540000D02*
X125120000Y-120750000D01*
X109398000Y-124750000D02*
X109700000Y-125051000D01*
X120250000Y-112500000D02*
X123250000Y-112500000D01*
X106885000Y-124750000D02*
X109398000Y-124750000D01*
X109399000Y-122873000D02*
X107800000Y-121275000D01*
X123250000Y-112500000D02*
X123750000Y-113000000D01*
X111000000Y-124000000D02*
X110601000Y-123601000D01*
X126911000Y-123146000D02*
X126911000Y-122540000D01*
X125816000Y-124240000D02*
X126911000Y-123146000D01*
X117000000Y-107750000D02*
X117000000Y-111500000D01*
X117000000Y-111500000D02*
X117250000Y-111750000D01*
X111000000Y-124750000D02*
X111000000Y-124000000D01*
X125120000Y-120750000D02*
X124750000Y-120750000D01*
X123750000Y-113000000D02*
X125781000Y-113000000D01*
X110699000Y-125051000D02*
X111000000Y-124750000D01*
X119750000Y-112250000D02*
X120000000Y-112500000D01*
X107800000Y-121275000D02*
X107800000Y-118300000D01*
X113250000Y-115500000D02*
X113579000Y-115171000D01*
X109399000Y-123601000D02*
X109399000Y-122873000D01*
X119500000Y-114087500D02*
X119500000Y-113250000D01*
X109250000Y-123750000D02*
X106885000Y-123750000D01*
X120000000Y-112500000D02*
X120250000Y-112500000D01*
X124500000Y-124240000D02*
X125816000Y-124240000D01*
X109399000Y-123601000D02*
X109250000Y-123750000D01*
X110601000Y-123601000D02*
X109399000Y-123601000D01*
X107800000Y-118300000D02*
X106750000Y-117250000D01*
X109700000Y-125051000D02*
X110699000Y-125051000D01*
X113579000Y-115171000D02*
X113579000Y-109553000D01*
%TO.N,D-*%
X103114000Y-115528000D02*
X108575000Y-115528000D01*
X101523000Y-113937000D02*
X103114000Y-115528000D01*
%TO.N,+1V8*%
X125056000Y-110250000D02*
X124750000Y-110250000D01*
X125000000Y-115000000D02*
X125056000Y-115000000D01*
X119112500Y-108030500D02*
X119112500Y-107700000D01*
X119112000Y-108031000D02*
X119112000Y-107700000D01*
X119112000Y-108031000D02*
X119112500Y-108030500D01*
X124750000Y-110250000D02*
X123250000Y-108750000D01*
X119112000Y-108362000D02*
X119112000Y-108031000D01*
X123250000Y-108750000D02*
X119500000Y-108750000D01*
X119500000Y-108750000D02*
X119112000Y-108362000D01*
%TO.N,CLK*%
X125800000Y-114000000D02*
X126800000Y-115000000D01*
X124250000Y-114000000D02*
X125800000Y-114000000D01*
X123000000Y-115250000D02*
X124250000Y-114000000D01*
X121162500Y-115250000D02*
X123000000Y-115250000D01*
%TO.N,Net-(SW1-Pad1)*%
X129625000Y-110000000D02*
X129875000Y-109750000D01*
X129000000Y-110000000D02*
X129625000Y-110000000D01*
X129875000Y-109750000D02*
X129875000Y-108961396D01*
X129875000Y-108961396D02*
X130368198Y-108468198D01*
%TD*%
M02*
