%TF.GenerationSoftware,KiCad,Pcbnew,(6.0.7)*%
%TF.CreationDate,2025-06-10T03:22:10+09:00*%
%TF.ProjectId,AvatarSense,41766174-6172-4536-956e-73652e6b6963,rev?*%
%TF.SameCoordinates,Original*%
%TF.FileFunction,Legend,Top*%
%TF.FilePolarity,Positive*%
%FSLAX46Y46*%
G04 Gerber Fmt 4.6, Leading zero omitted, Abs format (unit mm)*
G04 Created by KiCad (PCBNEW (6.0.7)) date 2025-06-10 03:22:10*
%MOMM*%
%LPD*%
G01*
G04 APERTURE LIST*
%ADD10C,0.150000*%
%ADD11C,0.254000*%
%ADD12C,0.120000*%
%ADD13C,0.152400*%
%ADD14C,0.100000*%
%ADD15C,0.127000*%
%ADD16C,0.200000*%
G04 APERTURE END LIST*
D10*
%TO.C,C3*%
X108813333Y-104857142D02*
X108765714Y-104904761D01*
X108622857Y-104952380D01*
X108527619Y-104952380D01*
X108384761Y-104904761D01*
X108289523Y-104809523D01*
X108241904Y-104714285D01*
X108194285Y-104523809D01*
X108194285Y-104380952D01*
X108241904Y-104190476D01*
X108289523Y-104095238D01*
X108384761Y-104000000D01*
X108527619Y-103952380D01*
X108622857Y-103952380D01*
X108765714Y-104000000D01*
X108813333Y-104047619D01*
X109146666Y-103952380D02*
X109765714Y-103952380D01*
X109432380Y-104333333D01*
X109575238Y-104333333D01*
X109670476Y-104380952D01*
X109718095Y-104428571D01*
X109765714Y-104523809D01*
X109765714Y-104761904D01*
X109718095Y-104857142D01*
X109670476Y-104904761D01*
X109575238Y-104952380D01*
X109289523Y-104952380D01*
X109194285Y-104904761D01*
X109146666Y-104857142D01*
%TO.C,R10*%
X111282380Y-122392857D02*
X110806190Y-122726190D01*
X111282380Y-122964285D02*
X110282380Y-122964285D01*
X110282380Y-122583333D01*
X110330000Y-122488095D01*
X110377619Y-122440476D01*
X110472857Y-122392857D01*
X110615714Y-122392857D01*
X110710952Y-122440476D01*
X110758571Y-122488095D01*
X110806190Y-122583333D01*
X110806190Y-122964285D01*
X111282380Y-121440476D02*
X111282380Y-122011904D01*
X111282380Y-121726190D02*
X110282380Y-121726190D01*
X110425238Y-121821428D01*
X110520476Y-121916666D01*
X110568095Y-122011904D01*
X110282380Y-120821428D02*
X110282380Y-120726190D01*
X110330000Y-120630952D01*
X110377619Y-120583333D01*
X110472857Y-120535714D01*
X110663333Y-120488095D01*
X110901428Y-120488095D01*
X111091904Y-120535714D01*
X111187142Y-120583333D01*
X111234761Y-120630952D01*
X111282380Y-120726190D01*
X111282380Y-120821428D01*
X111234761Y-120916666D01*
X111187142Y-120964285D01*
X111091904Y-121011904D01*
X110901428Y-121059523D01*
X110663333Y-121059523D01*
X110472857Y-121011904D01*
X110377619Y-120964285D01*
X110330000Y-120916666D01*
X110282380Y-120821428D01*
%TO.C,C6*%
X111197142Y-118646666D02*
X111244761Y-118694285D01*
X111292380Y-118837142D01*
X111292380Y-118932380D01*
X111244761Y-119075238D01*
X111149523Y-119170476D01*
X111054285Y-119218095D01*
X110863809Y-119265714D01*
X110720952Y-119265714D01*
X110530476Y-119218095D01*
X110435238Y-119170476D01*
X110340000Y-119075238D01*
X110292380Y-118932380D01*
X110292380Y-118837142D01*
X110340000Y-118694285D01*
X110387619Y-118646666D01*
X110292380Y-117789523D02*
X110292380Y-117980000D01*
X110340000Y-118075238D01*
X110387619Y-118122857D01*
X110530476Y-118218095D01*
X110720952Y-118265714D01*
X111101904Y-118265714D01*
X111197142Y-118218095D01*
X111244761Y-118170476D01*
X111292380Y-118075238D01*
X111292380Y-117884761D01*
X111244761Y-117789523D01*
X111197142Y-117741904D01*
X111101904Y-117694285D01*
X110863809Y-117694285D01*
X110768571Y-117741904D01*
X110720952Y-117789523D01*
X110673333Y-117884761D01*
X110673333Y-118075238D01*
X110720952Y-118170476D01*
X110768571Y-118218095D01*
X110863809Y-118265714D01*
%TO.C,R4*%
X128817380Y-126891666D02*
X128341190Y-127225000D01*
X128817380Y-127463095D02*
X127817380Y-127463095D01*
X127817380Y-127082142D01*
X127865000Y-126986904D01*
X127912619Y-126939285D01*
X128007857Y-126891666D01*
X128150714Y-126891666D01*
X128245952Y-126939285D01*
X128293571Y-126986904D01*
X128341190Y-127082142D01*
X128341190Y-127463095D01*
X128150714Y-126034523D02*
X128817380Y-126034523D01*
X127769761Y-126272619D02*
X128484047Y-126510714D01*
X128484047Y-125891666D01*
%TO.C,D1*%
X122636904Y-126202380D02*
X122636904Y-125202380D01*
X122875000Y-125202380D01*
X123017857Y-125250000D01*
X123113095Y-125345238D01*
X123160714Y-125440476D01*
X123208333Y-125630952D01*
X123208333Y-125773809D01*
X123160714Y-125964285D01*
X123113095Y-126059523D01*
X123017857Y-126154761D01*
X122875000Y-126202380D01*
X122636904Y-126202380D01*
X124160714Y-126202380D02*
X123589285Y-126202380D01*
X123875000Y-126202380D02*
X123875000Y-125202380D01*
X123779761Y-125345238D01*
X123684523Y-125440476D01*
X123589285Y-125488095D01*
%TO.C,Q2*%
X110154761Y-126297619D02*
X110059523Y-126250000D01*
X109964285Y-126154761D01*
X109821428Y-126011904D01*
X109726190Y-125964285D01*
X109630952Y-125964285D01*
X109678571Y-126202380D02*
X109583333Y-126154761D01*
X109488095Y-126059523D01*
X109440476Y-125869047D01*
X109440476Y-125535714D01*
X109488095Y-125345238D01*
X109583333Y-125250000D01*
X109678571Y-125202380D01*
X109869047Y-125202380D01*
X109964285Y-125250000D01*
X110059523Y-125345238D01*
X110107142Y-125535714D01*
X110107142Y-125869047D01*
X110059523Y-126059523D01*
X109964285Y-126154761D01*
X109869047Y-126202380D01*
X109678571Y-126202380D01*
X110488095Y-125297619D02*
X110535714Y-125250000D01*
X110630952Y-125202380D01*
X110869047Y-125202380D01*
X110964285Y-125250000D01*
X111011904Y-125297619D01*
X111059523Y-125392857D01*
X111059523Y-125488095D01*
X111011904Y-125630952D01*
X110440476Y-126202380D01*
X111059523Y-126202380D01*
%TO.C,U4*%
X110202380Y-111011904D02*
X111011904Y-111011904D01*
X111107142Y-110964285D01*
X111154761Y-110916666D01*
X111202380Y-110821428D01*
X111202380Y-110630952D01*
X111154761Y-110535714D01*
X111107142Y-110488095D01*
X111011904Y-110440476D01*
X110202380Y-110440476D01*
X110535714Y-109535714D02*
X111202380Y-109535714D01*
X110154761Y-109773809D02*
X110869047Y-110011904D01*
X110869047Y-109392857D01*
X106596380Y-113225350D02*
X106834476Y-113225350D01*
X106739238Y-113463445D02*
X106834476Y-113225350D01*
X106739238Y-112987254D01*
X107024952Y-113368207D02*
X106834476Y-113225350D01*
X107024952Y-113082492D01*
X106596380Y-113225350D02*
X106834476Y-113225350D01*
X106739238Y-113463445D02*
X106834476Y-113225350D01*
X106739238Y-112987254D01*
X107024952Y-113368207D02*
X106834476Y-113225350D01*
X107024952Y-113082492D01*
%TO.C,C5*%
X127583333Y-112857142D02*
X127535714Y-112904761D01*
X127392857Y-112952380D01*
X127297619Y-112952380D01*
X127154761Y-112904761D01*
X127059523Y-112809523D01*
X127011904Y-112714285D01*
X126964285Y-112523809D01*
X126964285Y-112380952D01*
X127011904Y-112190476D01*
X127059523Y-112095238D01*
X127154761Y-112000000D01*
X127297619Y-111952380D01*
X127392857Y-111952380D01*
X127535714Y-112000000D01*
X127583333Y-112047619D01*
X128488095Y-111952380D02*
X128011904Y-111952380D01*
X127964285Y-112428571D01*
X128011904Y-112380952D01*
X128107142Y-112333333D01*
X128345238Y-112333333D01*
X128440476Y-112380952D01*
X128488095Y-112428571D01*
X128535714Y-112523809D01*
X128535714Y-112761904D01*
X128488095Y-112857142D01*
X128440476Y-112904761D01*
X128345238Y-112952380D01*
X128107142Y-112952380D01*
X128011904Y-112904761D01*
X127964285Y-112857142D01*
%TO.C,R2*%
X130333333Y-113952380D02*
X130000000Y-113476190D01*
X129761904Y-113952380D02*
X129761904Y-112952380D01*
X130142857Y-112952380D01*
X130238095Y-113000000D01*
X130285714Y-113047619D01*
X130333333Y-113142857D01*
X130333333Y-113285714D01*
X130285714Y-113380952D01*
X130238095Y-113428571D01*
X130142857Y-113476190D01*
X129761904Y-113476190D01*
X130714285Y-113047619D02*
X130761904Y-113000000D01*
X130857142Y-112952380D01*
X131095238Y-112952380D01*
X131190476Y-113000000D01*
X131238095Y-113047619D01*
X131285714Y-113142857D01*
X131285714Y-113238095D01*
X131238095Y-113380952D01*
X130666666Y-113952380D01*
X131285714Y-113952380D01*
%TO.C,R16*%
X126122380Y-125392857D02*
X125646190Y-125726190D01*
X126122380Y-125964285D02*
X125122380Y-125964285D01*
X125122380Y-125583333D01*
X125170000Y-125488095D01*
X125217619Y-125440476D01*
X125312857Y-125392857D01*
X125455714Y-125392857D01*
X125550952Y-125440476D01*
X125598571Y-125488095D01*
X125646190Y-125583333D01*
X125646190Y-125964285D01*
X126122380Y-124440476D02*
X126122380Y-125011904D01*
X126122380Y-124726190D02*
X125122380Y-124726190D01*
X125265238Y-124821428D01*
X125360476Y-124916666D01*
X125408095Y-125011904D01*
X125122380Y-123583333D02*
X125122380Y-123773809D01*
X125170000Y-123869047D01*
X125217619Y-123916666D01*
X125360476Y-124011904D01*
X125550952Y-124059523D01*
X125931904Y-124059523D01*
X126027142Y-124011904D01*
X126074761Y-123964285D01*
X126122380Y-123869047D01*
X126122380Y-123678571D01*
X126074761Y-123583333D01*
X126027142Y-123535714D01*
X125931904Y-123488095D01*
X125693809Y-123488095D01*
X125598571Y-123535714D01*
X125550952Y-123583333D01*
X125503333Y-123678571D01*
X125503333Y-123869047D01*
X125550952Y-123964285D01*
X125598571Y-124011904D01*
X125693809Y-124059523D01*
%TO.C,J1*%
X104666666Y-100452380D02*
X104666666Y-101166666D01*
X104619047Y-101309523D01*
X104523809Y-101404761D01*
X104380952Y-101452380D01*
X104285714Y-101452380D01*
X105666666Y-101452380D02*
X105095238Y-101452380D01*
X105380952Y-101452380D02*
X105380952Y-100452380D01*
X105285714Y-100595238D01*
X105190476Y-100690476D01*
X105095238Y-100738095D01*
%TO.C,Q1*%
X113404761Y-126297619D02*
X113309523Y-126250000D01*
X113214285Y-126154761D01*
X113071428Y-126011904D01*
X112976190Y-125964285D01*
X112880952Y-125964285D01*
X112928571Y-126202380D02*
X112833333Y-126154761D01*
X112738095Y-126059523D01*
X112690476Y-125869047D01*
X112690476Y-125535714D01*
X112738095Y-125345238D01*
X112833333Y-125250000D01*
X112928571Y-125202380D01*
X113119047Y-125202380D01*
X113214285Y-125250000D01*
X113309523Y-125345238D01*
X113357142Y-125535714D01*
X113357142Y-125869047D01*
X113309523Y-126059523D01*
X113214285Y-126154761D01*
X113119047Y-126202380D01*
X112928571Y-126202380D01*
X114309523Y-126202380D02*
X113738095Y-126202380D01*
X114023809Y-126202380D02*
X114023809Y-125202380D01*
X113928571Y-125345238D01*
X113833333Y-125440476D01*
X113738095Y-125488095D01*
%TO.C,C2*%
X108813333Y-103107142D02*
X108765714Y-103154761D01*
X108622857Y-103202380D01*
X108527619Y-103202380D01*
X108384761Y-103154761D01*
X108289523Y-103059523D01*
X108241904Y-102964285D01*
X108194285Y-102773809D01*
X108194285Y-102630952D01*
X108241904Y-102440476D01*
X108289523Y-102345238D01*
X108384761Y-102250000D01*
X108527619Y-102202380D01*
X108622857Y-102202380D01*
X108765714Y-102250000D01*
X108813333Y-102297619D01*
X109194285Y-102297619D02*
X109241904Y-102250000D01*
X109337142Y-102202380D01*
X109575238Y-102202380D01*
X109670476Y-102250000D01*
X109718095Y-102297619D01*
X109765714Y-102392857D01*
X109765714Y-102488095D01*
X109718095Y-102630952D01*
X109146666Y-103202380D01*
X109765714Y-103202380D01*
D11*
%TO.C,Y1*%
X125295238Y-115669761D02*
X125295238Y-116274523D01*
X124871904Y-115004523D02*
X125295238Y-115669761D01*
X125718571Y-115004523D01*
X126807142Y-116274523D02*
X126081428Y-116274523D01*
X126444285Y-116274523D02*
X126444285Y-115004523D01*
X126323333Y-115185952D01*
X126202380Y-115306904D01*
X126081428Y-115367380D01*
D10*
%TO.C,J3*%
X108407380Y-124833333D02*
X109121666Y-124833333D01*
X109264523Y-124880952D01*
X109359761Y-124976190D01*
X109407380Y-125119047D01*
X109407380Y-125214285D01*
X108407380Y-124452380D02*
X108407380Y-123833333D01*
X108788333Y-124166666D01*
X108788333Y-124023809D01*
X108835952Y-123928571D01*
X108883571Y-123880952D01*
X108978809Y-123833333D01*
X109216904Y-123833333D01*
X109312142Y-123880952D01*
X109359761Y-123928571D01*
X109407380Y-124023809D01*
X109407380Y-124309523D01*
X109359761Y-124404761D01*
X109312142Y-124452380D01*
%TO.C,C1*%
X108813333Y-101357142D02*
X108765714Y-101404761D01*
X108622857Y-101452380D01*
X108527619Y-101452380D01*
X108384761Y-101404761D01*
X108289523Y-101309523D01*
X108241904Y-101214285D01*
X108194285Y-101023809D01*
X108194285Y-100880952D01*
X108241904Y-100690476D01*
X108289523Y-100595238D01*
X108384761Y-100500000D01*
X108527619Y-100452380D01*
X108622857Y-100452380D01*
X108765714Y-100500000D01*
X108813333Y-100547619D01*
X109765714Y-101452380D02*
X109194285Y-101452380D01*
X109480000Y-101452380D02*
X109480000Y-100452380D01*
X109384761Y-100595238D01*
X109289523Y-100690476D01*
X109194285Y-100738095D01*
%TO.C,C8*%
X119333333Y-119357142D02*
X119285714Y-119404761D01*
X119142857Y-119452380D01*
X119047619Y-119452380D01*
X118904761Y-119404761D01*
X118809523Y-119309523D01*
X118761904Y-119214285D01*
X118714285Y-119023809D01*
X118714285Y-118880952D01*
X118761904Y-118690476D01*
X118809523Y-118595238D01*
X118904761Y-118500000D01*
X119047619Y-118452380D01*
X119142857Y-118452380D01*
X119285714Y-118500000D01*
X119333333Y-118547619D01*
X119904761Y-118880952D02*
X119809523Y-118833333D01*
X119761904Y-118785714D01*
X119714285Y-118690476D01*
X119714285Y-118642857D01*
X119761904Y-118547619D01*
X119809523Y-118500000D01*
X119904761Y-118452380D01*
X120095238Y-118452380D01*
X120190476Y-118500000D01*
X120238095Y-118547619D01*
X120285714Y-118642857D01*
X120285714Y-118690476D01*
X120238095Y-118785714D01*
X120190476Y-118833333D01*
X120095238Y-118880952D01*
X119904761Y-118880952D01*
X119809523Y-118928571D01*
X119761904Y-118976190D01*
X119714285Y-119071428D01*
X119714285Y-119261904D01*
X119761904Y-119357142D01*
X119809523Y-119404761D01*
X119904761Y-119452380D01*
X120095238Y-119452380D01*
X120190476Y-119404761D01*
X120238095Y-119357142D01*
X120285714Y-119261904D01*
X120285714Y-119071428D01*
X120238095Y-118976190D01*
X120190476Y-118928571D01*
X120095238Y-118880952D01*
%TO.C,R6*%
X130583333Y-121872380D02*
X130250000Y-121396190D01*
X130011904Y-121872380D02*
X130011904Y-120872380D01*
X130392857Y-120872380D01*
X130488095Y-120920000D01*
X130535714Y-120967619D01*
X130583333Y-121062857D01*
X130583333Y-121205714D01*
X130535714Y-121300952D01*
X130488095Y-121348571D01*
X130392857Y-121396190D01*
X130011904Y-121396190D01*
X131440476Y-120872380D02*
X131250000Y-120872380D01*
X131154761Y-120920000D01*
X131107142Y-120967619D01*
X131011904Y-121110476D01*
X130964285Y-121300952D01*
X130964285Y-121681904D01*
X131011904Y-121777142D01*
X131059523Y-121824761D01*
X131154761Y-121872380D01*
X131345238Y-121872380D01*
X131440476Y-121824761D01*
X131488095Y-121777142D01*
X131535714Y-121681904D01*
X131535714Y-121443809D01*
X131488095Y-121348571D01*
X131440476Y-121300952D01*
X131345238Y-121253333D01*
X131154761Y-121253333D01*
X131059523Y-121300952D01*
X131011904Y-121348571D01*
X130964285Y-121443809D01*
%TO.C,C7*%
X119333333Y-121857142D02*
X119285714Y-121904761D01*
X119142857Y-121952380D01*
X119047619Y-121952380D01*
X118904761Y-121904761D01*
X118809523Y-121809523D01*
X118761904Y-121714285D01*
X118714285Y-121523809D01*
X118714285Y-121380952D01*
X118761904Y-121190476D01*
X118809523Y-121095238D01*
X118904761Y-121000000D01*
X119047619Y-120952380D01*
X119142857Y-120952380D01*
X119285714Y-121000000D01*
X119333333Y-121047619D01*
X119666666Y-120952380D02*
X120333333Y-120952380D01*
X119904761Y-121952380D01*
%TO.C,R5*%
X115033333Y-125952380D02*
X114700000Y-125476190D01*
X114461904Y-125952380D02*
X114461904Y-124952380D01*
X114842857Y-124952380D01*
X114938095Y-125000000D01*
X114985714Y-125047619D01*
X115033333Y-125142857D01*
X115033333Y-125285714D01*
X114985714Y-125380952D01*
X114938095Y-125428571D01*
X114842857Y-125476190D01*
X114461904Y-125476190D01*
X115938095Y-124952380D02*
X115461904Y-124952380D01*
X115414285Y-125428571D01*
X115461904Y-125380952D01*
X115557142Y-125333333D01*
X115795238Y-125333333D01*
X115890476Y-125380952D01*
X115938095Y-125428571D01*
X115985714Y-125523809D01*
X115985714Y-125761904D01*
X115938095Y-125857142D01*
X115890476Y-125904761D01*
X115795238Y-125952380D01*
X115557142Y-125952380D01*
X115461904Y-125904761D01*
X115414285Y-125857142D01*
%TO.C,R13*%
X116107142Y-113452380D02*
X115773809Y-112976190D01*
X115535714Y-113452380D02*
X115535714Y-112452380D01*
X115916666Y-112452380D01*
X116011904Y-112500000D01*
X116059523Y-112547619D01*
X116107142Y-112642857D01*
X116107142Y-112785714D01*
X116059523Y-112880952D01*
X116011904Y-112928571D01*
X115916666Y-112976190D01*
X115535714Y-112976190D01*
X117059523Y-113452380D02*
X116488095Y-113452380D01*
X116773809Y-113452380D02*
X116773809Y-112452380D01*
X116678571Y-112595238D01*
X116583333Y-112690476D01*
X116488095Y-112738095D01*
X117392857Y-112452380D02*
X118011904Y-112452380D01*
X117678571Y-112833333D01*
X117821428Y-112833333D01*
X117916666Y-112880952D01*
X117964285Y-112928571D01*
X118011904Y-113023809D01*
X118011904Y-113261904D01*
X117964285Y-113357142D01*
X117916666Y-113404761D01*
X117821428Y-113452380D01*
X117535714Y-113452380D01*
X117440476Y-113404761D01*
X117392857Y-113357142D01*
%TO.C,R9*%
X103333333Y-113452380D02*
X103000000Y-112976190D01*
X102761904Y-113452380D02*
X102761904Y-112452380D01*
X103142857Y-112452380D01*
X103238095Y-112500000D01*
X103285714Y-112547619D01*
X103333333Y-112642857D01*
X103333333Y-112785714D01*
X103285714Y-112880952D01*
X103238095Y-112928571D01*
X103142857Y-112976190D01*
X102761904Y-112976190D01*
X103809523Y-113452380D02*
X104000000Y-113452380D01*
X104095238Y-113404761D01*
X104142857Y-113357142D01*
X104238095Y-113214285D01*
X104285714Y-113023809D01*
X104285714Y-112642857D01*
X104238095Y-112547619D01*
X104190476Y-112500000D01*
X104095238Y-112452380D01*
X103904761Y-112452380D01*
X103809523Y-112500000D01*
X103761904Y-112547619D01*
X103714285Y-112642857D01*
X103714285Y-112880952D01*
X103761904Y-112976190D01*
X103809523Y-113023809D01*
X103904761Y-113071428D01*
X104095238Y-113071428D01*
X104190476Y-113023809D01*
X104238095Y-112976190D01*
X104285714Y-112880952D01*
%TO.C,TP2*%
X120738095Y-103702380D02*
X121309523Y-103702380D01*
X121023809Y-104702380D02*
X121023809Y-103702380D01*
X121642857Y-104702380D02*
X121642857Y-103702380D01*
X122023809Y-103702380D01*
X122119047Y-103750000D01*
X122166666Y-103797619D01*
X122214285Y-103892857D01*
X122214285Y-104035714D01*
X122166666Y-104130952D01*
X122119047Y-104178571D01*
X122023809Y-104226190D01*
X121642857Y-104226190D01*
X122595238Y-103797619D02*
X122642857Y-103750000D01*
X122738095Y-103702380D01*
X122976190Y-103702380D01*
X123071428Y-103750000D01*
X123119047Y-103797619D01*
X123166666Y-103892857D01*
X123166666Y-103988095D01*
X123119047Y-104130952D01*
X122547619Y-104702380D01*
X123166666Y-104702380D01*
%TO.C,U5*%
X122452380Y-108261904D02*
X123261904Y-108261904D01*
X123357142Y-108214285D01*
X123404761Y-108166666D01*
X123452380Y-108071428D01*
X123452380Y-107880952D01*
X123404761Y-107785714D01*
X123357142Y-107738095D01*
X123261904Y-107690476D01*
X122452380Y-107690476D01*
X122452380Y-106738095D02*
X122452380Y-107214285D01*
X122928571Y-107261904D01*
X122880952Y-107214285D01*
X122833333Y-107119047D01*
X122833333Y-106880952D01*
X122880952Y-106785714D01*
X122928571Y-106738095D01*
X123023809Y-106690476D01*
X123261904Y-106690476D01*
X123357142Y-106738095D01*
X123404761Y-106785714D01*
X123452380Y-106880952D01*
X123452380Y-107119047D01*
X123404761Y-107214285D01*
X123357142Y-107261904D01*
%TO.C,U3*%
X129738095Y-109702380D02*
X129738095Y-110511904D01*
X129785714Y-110607142D01*
X129833333Y-110654761D01*
X129928571Y-110702380D01*
X130119047Y-110702380D01*
X130214285Y-110654761D01*
X130261904Y-110607142D01*
X130309523Y-110511904D01*
X130309523Y-109702380D01*
X130690476Y-109702380D02*
X131309523Y-109702380D01*
X130976190Y-110083333D01*
X131119047Y-110083333D01*
X131214285Y-110130952D01*
X131261904Y-110178571D01*
X131309523Y-110273809D01*
X131309523Y-110511904D01*
X131261904Y-110607142D01*
X131214285Y-110654761D01*
X131119047Y-110702380D01*
X130833333Y-110702380D01*
X130738095Y-110654761D01*
X130690476Y-110607142D01*
%TO.C,U6*%
X119913095Y-111817380D02*
X119913095Y-112626904D01*
X119960714Y-112722142D01*
X120008333Y-112769761D01*
X120103571Y-112817380D01*
X120294047Y-112817380D01*
X120389285Y-112769761D01*
X120436904Y-112722142D01*
X120484523Y-112626904D01*
X120484523Y-111817380D01*
X121389285Y-111817380D02*
X121198809Y-111817380D01*
X121103571Y-111865000D01*
X121055952Y-111912619D01*
X120960714Y-112055476D01*
X120913095Y-112245952D01*
X120913095Y-112626904D01*
X120960714Y-112722142D01*
X121008333Y-112769761D01*
X121103571Y-112817380D01*
X121294047Y-112817380D01*
X121389285Y-112769761D01*
X121436904Y-112722142D01*
X121484523Y-112626904D01*
X121484523Y-112388809D01*
X121436904Y-112293571D01*
X121389285Y-112245952D01*
X121294047Y-112198333D01*
X121103571Y-112198333D01*
X121008333Y-112245952D01*
X120960714Y-112293571D01*
X120913095Y-112388809D01*
%TO.C,R12*%
X128367142Y-125372380D02*
X128033809Y-124896190D01*
X127795714Y-125372380D02*
X127795714Y-124372380D01*
X128176666Y-124372380D01*
X128271904Y-124420000D01*
X128319523Y-124467619D01*
X128367142Y-124562857D01*
X128367142Y-124705714D01*
X128319523Y-124800952D01*
X128271904Y-124848571D01*
X128176666Y-124896190D01*
X127795714Y-124896190D01*
X129319523Y-125372380D02*
X128748095Y-125372380D01*
X129033809Y-125372380D02*
X129033809Y-124372380D01*
X128938571Y-124515238D01*
X128843333Y-124610476D01*
X128748095Y-124658095D01*
X129700476Y-124467619D02*
X129748095Y-124420000D01*
X129843333Y-124372380D01*
X130081428Y-124372380D01*
X130176666Y-124420000D01*
X130224285Y-124467619D01*
X130271904Y-124562857D01*
X130271904Y-124658095D01*
X130224285Y-124800952D01*
X129652857Y-125372380D01*
X130271904Y-125372380D01*
%TO.C,R11*%
X130097142Y-127747380D02*
X129763809Y-127271190D01*
X129525714Y-127747380D02*
X129525714Y-126747380D01*
X129906666Y-126747380D01*
X130001904Y-126795000D01*
X130049523Y-126842619D01*
X130097142Y-126937857D01*
X130097142Y-127080714D01*
X130049523Y-127175952D01*
X130001904Y-127223571D01*
X129906666Y-127271190D01*
X129525714Y-127271190D01*
X131049523Y-127747380D02*
X130478095Y-127747380D01*
X130763809Y-127747380D02*
X130763809Y-126747380D01*
X130668571Y-126890238D01*
X130573333Y-126985476D01*
X130478095Y-127033095D01*
X132001904Y-127747380D02*
X131430476Y-127747380D01*
X131716190Y-127747380D02*
X131716190Y-126747380D01*
X131620952Y-126890238D01*
X131525714Y-126985476D01*
X131430476Y-127033095D01*
%TO.C,TP1*%
X114988095Y-102202380D02*
X115559523Y-102202380D01*
X115273809Y-103202380D02*
X115273809Y-102202380D01*
X115892857Y-103202380D02*
X115892857Y-102202380D01*
X116273809Y-102202380D01*
X116369047Y-102250000D01*
X116416666Y-102297619D01*
X116464285Y-102392857D01*
X116464285Y-102535714D01*
X116416666Y-102630952D01*
X116369047Y-102678571D01*
X116273809Y-102726190D01*
X115892857Y-102726190D01*
X117416666Y-103202380D02*
X116845238Y-103202380D01*
X117130952Y-103202380D02*
X117130952Y-102202380D01*
X117035714Y-102345238D01*
X116940476Y-102440476D01*
X116845238Y-102488095D01*
%TO.C,D2*%
X117111904Y-126172380D02*
X117111904Y-125172380D01*
X117350000Y-125172380D01*
X117492857Y-125220000D01*
X117588095Y-125315238D01*
X117635714Y-125410476D01*
X117683333Y-125600952D01*
X117683333Y-125743809D01*
X117635714Y-125934285D01*
X117588095Y-126029523D01*
X117492857Y-126124761D01*
X117350000Y-126172380D01*
X117111904Y-126172380D01*
X118064285Y-125267619D02*
X118111904Y-125220000D01*
X118207142Y-125172380D01*
X118445238Y-125172380D01*
X118540476Y-125220000D01*
X118588095Y-125267619D01*
X118635714Y-125362857D01*
X118635714Y-125458095D01*
X118588095Y-125600952D01*
X118016666Y-126172380D01*
X118635714Y-126172380D01*
%TO.C,J2*%
X130497380Y-124833333D02*
X131211666Y-124833333D01*
X131354523Y-124880952D01*
X131449761Y-124976190D01*
X131497380Y-125119047D01*
X131497380Y-125214285D01*
X130592619Y-124404761D02*
X130545000Y-124357142D01*
X130497380Y-124261904D01*
X130497380Y-124023809D01*
X130545000Y-123928571D01*
X130592619Y-123880952D01*
X130687857Y-123833333D01*
X130783095Y-123833333D01*
X130925952Y-123880952D01*
X131497380Y-124452380D01*
X131497380Y-123833333D01*
%TO.C,R14*%
X120622380Y-125382857D02*
X120146190Y-125716190D01*
X120622380Y-125954285D02*
X119622380Y-125954285D01*
X119622380Y-125573333D01*
X119670000Y-125478095D01*
X119717619Y-125430476D01*
X119812857Y-125382857D01*
X119955714Y-125382857D01*
X120050952Y-125430476D01*
X120098571Y-125478095D01*
X120146190Y-125573333D01*
X120146190Y-125954285D01*
X120622380Y-124430476D02*
X120622380Y-125001904D01*
X120622380Y-124716190D02*
X119622380Y-124716190D01*
X119765238Y-124811428D01*
X119860476Y-124906666D01*
X119908095Y-125001904D01*
X119955714Y-123573333D02*
X120622380Y-123573333D01*
X119574761Y-123811428D02*
X120289047Y-124049523D01*
X120289047Y-123430476D01*
%TO.C,JP1*%
X115166666Y-119752380D02*
X115166666Y-120466666D01*
X115119047Y-120609523D01*
X115023809Y-120704761D01*
X114880952Y-120752380D01*
X114785714Y-120752380D01*
X115642857Y-120752380D02*
X115642857Y-119752380D01*
X116023809Y-119752380D01*
X116119047Y-119800000D01*
X116166666Y-119847619D01*
X116214285Y-119942857D01*
X116214285Y-120085714D01*
X116166666Y-120180952D01*
X116119047Y-120228571D01*
X116023809Y-120276190D01*
X115642857Y-120276190D01*
X117166666Y-120752380D02*
X116595238Y-120752380D01*
X116880952Y-120752380D02*
X116880952Y-119752380D01*
X116785714Y-119895238D01*
X116690476Y-119990476D01*
X116595238Y-120038095D01*
%TO.C,R15*%
X123372380Y-125382857D02*
X122896190Y-125716190D01*
X123372380Y-125954285D02*
X122372380Y-125954285D01*
X122372380Y-125573333D01*
X122420000Y-125478095D01*
X122467619Y-125430476D01*
X122562857Y-125382857D01*
X122705714Y-125382857D01*
X122800952Y-125430476D01*
X122848571Y-125478095D01*
X122896190Y-125573333D01*
X122896190Y-125954285D01*
X123372380Y-124430476D02*
X123372380Y-125001904D01*
X123372380Y-124716190D02*
X122372380Y-124716190D01*
X122515238Y-124811428D01*
X122610476Y-124906666D01*
X122658095Y-125001904D01*
X122372380Y-123525714D02*
X122372380Y-124001904D01*
X122848571Y-124049523D01*
X122800952Y-124001904D01*
X122753333Y-123906666D01*
X122753333Y-123668571D01*
X122800952Y-123573333D01*
X122848571Y-123525714D01*
X122943809Y-123478095D01*
X123181904Y-123478095D01*
X123277142Y-123525714D01*
X123324761Y-123573333D01*
X123372380Y-123668571D01*
X123372380Y-123906666D01*
X123324761Y-124001904D01*
X123277142Y-124049523D01*
D12*
%TO.C,C3*%
X106892164Y-104860000D02*
X107107836Y-104860000D01*
X106892164Y-104140000D02*
X107107836Y-104140000D01*
%TO.C,R10*%
X112380000Y-121903641D02*
X112380000Y-121596359D01*
X111620000Y-121903641D02*
X111620000Y-121596359D01*
%TO.C,C6*%
X112360000Y-118587836D02*
X112360000Y-118372164D01*
X111640000Y-118587836D02*
X111640000Y-118372164D01*
%TO.C,R4*%
X126471359Y-126745000D02*
X126778641Y-126745000D01*
X126471359Y-127505000D02*
X126778641Y-127505000D01*
%TO.C,D1*%
X125660000Y-126415000D02*
X121775000Y-126415000D01*
X121775000Y-129585000D02*
X125660000Y-129585000D01*
X125660000Y-129585000D02*
X125660000Y-126415000D01*
%TO.C,Q2*%
X110910000Y-128700000D02*
X110910000Y-127300000D01*
X108590000Y-127300000D02*
X108590000Y-129200000D01*
D13*
%TO.C,U4*%
X108070300Y-108129100D02*
X108070300Y-112370900D01*
X113429700Y-112370900D02*
X113429700Y-108129100D01*
D12*
%TO.C,C5*%
X127837836Y-111360000D02*
X127622164Y-111360000D01*
X127837836Y-110640000D02*
X127622164Y-110640000D01*
%TO.C,R2*%
X129620000Y-111663641D02*
X129620000Y-111356359D01*
X130380000Y-111663641D02*
X130380000Y-111356359D01*
%TO.C,R16*%
X124120000Y-124596359D02*
X124120000Y-124903641D01*
X124880000Y-124596359D02*
X124880000Y-124903641D01*
%TO.C,J1*%
X103605000Y-103470000D02*
X103605000Y-111150000D01*
X100945000Y-103470000D02*
X103605000Y-103470000D01*
X100945000Y-111150000D02*
X103605000Y-111150000D01*
X103605000Y-100870000D02*
X103605000Y-102200000D01*
X102275000Y-100870000D02*
X103605000Y-100870000D01*
X100945000Y-103470000D02*
X100945000Y-111150000D01*
%TO.C,Q1*%
X114060000Y-128750000D02*
X114060000Y-127350000D01*
X111740000Y-127350000D02*
X111740000Y-129250000D01*
%TO.C,C2*%
X106892164Y-103110000D02*
X107107836Y-103110000D01*
X106892164Y-102390000D02*
X107107836Y-102390000D01*
D14*
%TO.C,Y1*%
X124000000Y-116400000D02*
X124000000Y-116400000D01*
X123900000Y-116400000D02*
X123900000Y-116400000D01*
X123900000Y-116400000D02*
G75*
G03*
X124000000Y-116400000I50000J0D01*
G01*
X124000000Y-116400000D02*
G75*
G03*
X123900000Y-116400000I-50000J0D01*
G01*
D12*
%TO.C,J3*%
X105045000Y-128970000D02*
X103245000Y-128970000D01*
X99535000Y-120030000D02*
X100995000Y-120030000D01*
X105045000Y-120030000D02*
X103245000Y-120030000D01*
X99535000Y-128970000D02*
X100995000Y-128970000D01*
X99535000Y-128970000D02*
X99535000Y-120030000D01*
%TO.C,C1*%
X106872164Y-100640000D02*
X107087836Y-100640000D01*
X106872164Y-101360000D02*
X107087836Y-101360000D01*
%TO.C,C8*%
X119392164Y-118110000D02*
X119607836Y-118110000D01*
X119392164Y-117390000D02*
X119607836Y-117390000D01*
%TO.C,R6*%
X130903641Y-120630000D02*
X130596359Y-120630000D01*
X130903641Y-119870000D02*
X130596359Y-119870000D01*
%TO.C,C7*%
X119392164Y-120610000D02*
X119607836Y-120610000D01*
X119392164Y-119890000D02*
X119607836Y-119890000D01*
%TO.C,R5*%
X115230000Y-127096359D02*
X115230000Y-127403641D01*
X114470000Y-127096359D02*
X114470000Y-127403641D01*
%TO.C,R13*%
X117130000Y-114893641D02*
X117130000Y-114586359D01*
X116370000Y-114893641D02*
X116370000Y-114586359D01*
%TO.C,R9*%
X101346359Y-112620000D02*
X101653641Y-112620000D01*
X101346359Y-113380000D02*
X101653641Y-113380000D01*
%TO.C,TP2*%
X121050000Y-103200000D02*
X121050000Y-100800000D01*
X121050000Y-100800000D02*
X123450000Y-100800000D01*
X123450000Y-103200000D02*
X121050000Y-103200000D01*
X123450000Y-100800000D02*
X123450000Y-103200000D01*
%TO.C,U5*%
X120250000Y-105190000D02*
X121050000Y-105190000D01*
X120250000Y-108310000D02*
X119450000Y-108310000D01*
X120250000Y-105190000D02*
X119450000Y-105190000D01*
X120250000Y-108310000D02*
X122050000Y-108310000D01*
%TO.C,U3*%
X124340000Y-109100000D02*
X124340000Y-103090000D01*
X124340000Y-103090000D02*
X125600000Y-103090000D01*
X131160000Y-106850000D02*
X131160000Y-103090000D01*
X131160000Y-103090000D02*
X129900000Y-103090000D01*
D15*
%TO.C,U6*%
X118500000Y-113750000D02*
X119055000Y-113750000D01*
X121500000Y-113750000D02*
X121500000Y-113805000D01*
X119055000Y-116250000D02*
X118500000Y-116250000D01*
X121500000Y-116250000D02*
X121500000Y-116195000D01*
X118500000Y-116250000D02*
X118500000Y-116195000D01*
X120945000Y-113750000D02*
X121500000Y-113750000D01*
X121500000Y-116250000D02*
X120945000Y-116250000D01*
X118500000Y-113750000D02*
X118500000Y-113805000D01*
D16*
X118031000Y-114150000D02*
G75*
G03*
X118031000Y-114150000I-100000J0D01*
G01*
D12*
%TO.C,R12*%
X129163641Y-123370000D02*
X128856359Y-123370000D01*
X129163641Y-124130000D02*
X128856359Y-124130000D01*
%TO.C,R11*%
X130893641Y-125745000D02*
X130586359Y-125745000D01*
X130893641Y-126505000D02*
X130586359Y-126505000D01*
%TO.C,TP1*%
X120200000Y-103200000D02*
X117800000Y-103200000D01*
X120200000Y-100800000D02*
X120200000Y-103200000D01*
X117800000Y-100800000D02*
X120200000Y-100800000D01*
X117800000Y-103200000D02*
X117800000Y-100800000D01*
%TO.C,D2*%
X119450000Y-126415000D02*
X115565000Y-126415000D01*
X115565000Y-126415000D02*
X115565000Y-129585000D01*
X115565000Y-129585000D02*
X119450000Y-129585000D01*
%TO.C,J2*%
X134955000Y-128970000D02*
X136755000Y-128970000D01*
X140465000Y-120030000D02*
X139005000Y-120030000D01*
X140465000Y-128970000D02*
X139005000Y-128970000D01*
X134955000Y-120030000D02*
X136755000Y-120030000D01*
X140465000Y-120030000D02*
X140465000Y-128970000D01*
%TO.C,R14*%
X118620000Y-124586359D02*
X118620000Y-124893641D01*
X119380000Y-124586359D02*
X119380000Y-124893641D01*
%TO.C,JP1*%
X114600000Y-119500000D02*
X114600000Y-117500000D01*
X117400000Y-119500000D02*
X114600000Y-119500000D01*
X114600000Y-117500000D02*
X117400000Y-117500000D01*
X117400000Y-117500000D02*
X117400000Y-119500000D01*
%TO.C,R15*%
X121370000Y-124586359D02*
X121370000Y-124893641D01*
X122130000Y-124586359D02*
X122130000Y-124893641D01*
%TD*%
M02*
