%TF.GenerationSoftware,KiCad,Pcbnew,(6.0.7)*%
%TF.CreationDate,2025-06-10T03:22:10+09:00*%
%TF.ProjectId,AvatarSense,41766174-6172-4536-956e-73652e6b6963,rev?*%
%TF.SameCoordinates,Original*%
%TF.FileFunction,Soldermask,Top*%
%TF.FilePolarity,Negative*%
%FSLAX46Y46*%
G04 Gerber Fmt 4.6, Leading zero omitted, Abs format (unit mm)*
G04 Created by KiCad (PCBNEW (6.0.7)) date 2025-06-10 03:22:10*
%MOMM*%
%LPD*%
G01*
G04 APERTURE LIST*
G04 Aperture macros list*
%AMRoundRect*
0 Rectangle with rounded corners*
0 $1 Rounding radius*
0 $2 $3 $4 $5 $6 $7 $8 $9 X,Y pos of 4 corners*
0 Add a 4 corners polygon primitive as box body*
4,1,4,$2,$3,$4,$5,$6,$7,$8,$9,$2,$3,0*
0 Add four circle primitives for the rounded corners*
1,1,$1+$1,$2,$3*
1,1,$1+$1,$4,$5*
1,1,$1+$1,$6,$7*
1,1,$1+$1,$8,$9*
0 Add four rect primitives between the rounded corners*
20,1,$1+$1,$2,$3,$4,$5,0*
20,1,$1+$1,$4,$5,$6,$7,0*
20,1,$1+$1,$6,$7,$8,$9,0*
20,1,$1+$1,$8,$9,$2,$3,0*%
%AMFreePoly0*
4,1,6,1.000000,0.000000,0.500000,-0.750000,-0.500000,-0.750000,-0.500000,0.750000,0.500000,0.750000,1.000000,0.000000,1.000000,0.000000,$1*%
%AMFreePoly1*
4,1,6,0.500000,-0.750000,-0.650000,-0.750000,-0.150000,0.000000,-0.650000,0.750000,0.500000,0.750000,0.500000,-0.750000,0.500000,-0.750000,$1*%
G04 Aperture macros list end*
%ADD10C,0.010000*%
%ADD11RoundRect,0.140000X-0.140000X-0.170000X0.140000X-0.170000X0.140000X0.170000X-0.140000X0.170000X0*%
%ADD12RoundRect,0.135000X0.185000X-0.135000X0.185000X0.135000X-0.185000X0.135000X-0.185000X-0.135000X0*%
%ADD13RoundRect,0.140000X0.170000X-0.140000X0.170000X0.140000X-0.170000X0.140000X-0.170000X-0.140000X0*%
%ADD14RoundRect,0.135000X-0.135000X-0.185000X0.135000X-0.185000X0.135000X0.185000X-0.135000X0.185000X0*%
%ADD15RoundRect,0.250000X0.375000X1.075000X-0.375000X1.075000X-0.375000X-1.075000X0.375000X-1.075000X0*%
%ADD16R,0.400000X0.650000*%
%ADD17R,0.558000X1.454899*%
%ADD18R,3.403600X2.514600*%
%ADD19RoundRect,0.140000X0.140000X0.170000X-0.140000X0.170000X-0.140000X-0.170000X0.140000X-0.170000X0*%
%ADD20RoundRect,0.135000X-0.185000X0.135000X-0.185000X-0.135000X0.185000X-0.135000X0.185000X0.135000X0*%
%ADD21R,1.700000X1.700000*%
%ADD22O,1.700000X1.700000*%
%ADD23R,1.100000X0.900000*%
%ADD24C,0.600000*%
%ADD25R,1.160000X0.600000*%
%ADD26R,1.160000X0.300000*%
%ADD27O,1.700000X0.900000*%
%ADD28O,2.000000X0.900000*%
%ADD29RoundRect,0.135000X0.135000X0.185000X-0.135000X0.185000X-0.135000X-0.185000X0.135000X-0.185000X0*%
%ADD30R,2.000000X2.000000*%
%ADD31RoundRect,0.150000X0.512500X0.150000X-0.512500X0.150000X-0.512500X-0.150000X0.512500X-0.150000X0*%
%ADD32R,1.500000X2.000000*%
%ADD33R,3.800000X2.000000*%
%ADD34RoundRect,0.250000X-0.375000X-1.075000X0.375000X-1.075000X0.375000X1.075000X-0.375000X1.075000X0*%
%ADD35FreePoly0,180.000000*%
%ADD36FreePoly1,180.000000*%
%ADD37C,0.900000*%
G04 APERTURE END LIST*
%TO.C,U6*%
G36*
X119125000Y-115425000D02*
G01*
X118550000Y-115425000D01*
X118550000Y-115075000D01*
X119125000Y-115075000D01*
X119125000Y-115425000D01*
G37*
D10*
X119125000Y-115425000D02*
X118550000Y-115425000D01*
X118550000Y-115075000D01*
X119125000Y-115075000D01*
X119125000Y-115425000D01*
G36*
X119125000Y-114425000D02*
G01*
X118550000Y-114425000D01*
X118550000Y-114075000D01*
X119125000Y-114075000D01*
X119125000Y-114425000D01*
G37*
X119125000Y-114425000D02*
X118550000Y-114425000D01*
X118550000Y-114075000D01*
X119125000Y-114075000D01*
X119125000Y-114425000D01*
G36*
X121450000Y-114925000D02*
G01*
X120875000Y-114925000D01*
X120875000Y-114575000D01*
X121450000Y-114575000D01*
X121450000Y-114925000D01*
G37*
X121450000Y-114925000D02*
X120875000Y-114925000D01*
X120875000Y-114575000D01*
X121450000Y-114575000D01*
X121450000Y-114925000D01*
G36*
X121450000Y-115425000D02*
G01*
X120875000Y-115425000D01*
X120875000Y-115075000D01*
X121450000Y-115075000D01*
X121450000Y-115425000D01*
G37*
X121450000Y-115425000D02*
X120875000Y-115425000D01*
X120875000Y-115075000D01*
X121450000Y-115075000D01*
X121450000Y-115425000D01*
G36*
X120175000Y-114375000D02*
G01*
X119825000Y-114375000D01*
X119825000Y-113800000D01*
X120175000Y-113800000D01*
X120175000Y-114375000D01*
G37*
X120175000Y-114375000D02*
X119825000Y-114375000D01*
X119825000Y-113800000D01*
X120175000Y-113800000D01*
X120175000Y-114375000D01*
G36*
X121450000Y-114425000D02*
G01*
X120875000Y-114425000D01*
X120875000Y-114075000D01*
X121450000Y-114075000D01*
X121450000Y-114425000D01*
G37*
X121450000Y-114425000D02*
X120875000Y-114425000D01*
X120875000Y-114075000D01*
X121450000Y-114075000D01*
X121450000Y-114425000D01*
G36*
X119125000Y-114925000D02*
G01*
X118550000Y-114925000D01*
X118550000Y-114575000D01*
X119125000Y-114575000D01*
X119125000Y-114925000D01*
G37*
X119125000Y-114925000D02*
X118550000Y-114925000D01*
X118550000Y-114575000D01*
X119125000Y-114575000D01*
X119125000Y-114925000D01*
G36*
X119675000Y-114375000D02*
G01*
X119325000Y-114375000D01*
X119325000Y-113800000D01*
X119675000Y-113800000D01*
X119675000Y-114375000D01*
G37*
X119675000Y-114375000D02*
X119325000Y-114375000D01*
X119325000Y-113800000D01*
X119675000Y-113800000D01*
X119675000Y-114375000D01*
G36*
X120675000Y-114375000D02*
G01*
X120325000Y-114375000D01*
X120325000Y-113800000D01*
X120675000Y-113800000D01*
X120675000Y-114375000D01*
G37*
X120675000Y-114375000D02*
X120325000Y-114375000D01*
X120325000Y-113800000D01*
X120675000Y-113800000D01*
X120675000Y-114375000D01*
G36*
X121450000Y-115925000D02*
G01*
X120875000Y-115925000D01*
X120875000Y-115575000D01*
X121450000Y-115575000D01*
X121450000Y-115925000D01*
G37*
X121450000Y-115925000D02*
X120875000Y-115925000D01*
X120875000Y-115575000D01*
X121450000Y-115575000D01*
X121450000Y-115925000D01*
G36*
X119675000Y-116200000D02*
G01*
X119325000Y-116200000D01*
X119325000Y-115625000D01*
X119675000Y-115625000D01*
X119675000Y-116200000D01*
G37*
X119675000Y-116200000D02*
X119325000Y-116200000D01*
X119325000Y-115625000D01*
X119675000Y-115625000D01*
X119675000Y-116200000D01*
G36*
X120675000Y-116200000D02*
G01*
X120325000Y-116200000D01*
X120325000Y-115625000D01*
X120675000Y-115625000D01*
X120675000Y-116200000D01*
G37*
X120675000Y-116200000D02*
X120325000Y-116200000D01*
X120325000Y-115625000D01*
X120675000Y-115625000D01*
X120675000Y-116200000D01*
G36*
X119125000Y-115925000D02*
G01*
X118550000Y-115925000D01*
X118550000Y-115575000D01*
X119125000Y-115575000D01*
X119125000Y-115925000D01*
G37*
X119125000Y-115925000D02*
X118550000Y-115925000D01*
X118550000Y-115575000D01*
X119125000Y-115575000D01*
X119125000Y-115925000D01*
G36*
X120175000Y-116200000D02*
G01*
X119825000Y-116200000D01*
X119825000Y-115625000D01*
X120175000Y-115625000D01*
X120175000Y-116200000D01*
G37*
X120175000Y-116200000D02*
X119825000Y-116200000D01*
X119825000Y-115625000D01*
X120175000Y-115625000D01*
X120175000Y-116200000D01*
%TD*%
D11*
%TO.C,C3*%
X106520000Y-104500000D03*
X107480000Y-104500000D03*
%TD*%
D12*
%TO.C,R10*%
X112000000Y-122260000D03*
X112000000Y-121240000D03*
%TD*%
D13*
%TO.C,C6*%
X112000000Y-118960000D03*
X112000000Y-118000000D03*
%TD*%
D14*
%TO.C,R4*%
X126115000Y-127125000D03*
X127135000Y-127125000D03*
%TD*%
D15*
%TO.C,D1*%
X124775000Y-128000000D03*
X121975000Y-128000000D03*
%TD*%
D16*
%TO.C,Q2*%
X109100000Y-128950000D03*
X109750000Y-128950000D03*
X110400000Y-128950000D03*
X110400000Y-127050000D03*
X109750000Y-127050000D03*
X109100000Y-127050000D03*
%TD*%
D17*
%TO.C,U4*%
X108845000Y-112971348D03*
X110115000Y-112971348D03*
X111385000Y-112971348D03*
X112655000Y-112971348D03*
X112655000Y-107528652D03*
X111385000Y-107528652D03*
X110115000Y-107528652D03*
X108845000Y-107528652D03*
D18*
X110750000Y-110250000D03*
%TD*%
D19*
%TO.C,C5*%
X128210000Y-111000000D03*
X127250000Y-111000000D03*
%TD*%
D12*
%TO.C,R2*%
X130000000Y-112020000D03*
X130000000Y-111000000D03*
%TD*%
D20*
%TO.C,R16*%
X124500000Y-124240000D03*
X124500000Y-125260000D03*
%TD*%
D21*
%TO.C,J1*%
X102275000Y-102200000D03*
D22*
X102275000Y-104740000D03*
X102275000Y-107280000D03*
X102275000Y-109820000D03*
%TD*%
D16*
%TO.C,Q1*%
X112250000Y-129000000D03*
X112900000Y-129000000D03*
X113550000Y-129000000D03*
X113550000Y-127100000D03*
X112900000Y-127100000D03*
X112250000Y-127100000D03*
%TD*%
D11*
%TO.C,C2*%
X106520000Y-102750000D03*
X107480000Y-102750000D03*
%TD*%
D23*
%TO.C,Y1*%
X125000000Y-116400000D03*
X126800000Y-116400000D03*
X126800000Y-115000000D03*
X125000000Y-115000000D03*
%TD*%
D24*
%TO.C,J3*%
X105825000Y-121610000D03*
X105825000Y-127390000D03*
D25*
X106885000Y-121300000D03*
X106885000Y-122100000D03*
D26*
X106885000Y-123250000D03*
X106885000Y-124250000D03*
X106885000Y-124750000D03*
X106885000Y-125750000D03*
D25*
X106885000Y-126900000D03*
X106885000Y-127700000D03*
X106885000Y-127700000D03*
X106885000Y-126900000D03*
D26*
X106885000Y-126250000D03*
X106885000Y-125250000D03*
X106885000Y-123750000D03*
X106885000Y-122750000D03*
D25*
X106885000Y-122100000D03*
X106885000Y-121300000D03*
D27*
X102135000Y-128820000D03*
D28*
X106305000Y-120180000D03*
D27*
X102135000Y-120180000D03*
D28*
X106305000Y-128820000D03*
%TD*%
D11*
%TO.C,C1*%
X106500000Y-101000000D03*
X107460000Y-101000000D03*
%TD*%
%TO.C,C8*%
X119020000Y-117750000D03*
X119980000Y-117750000D03*
%TD*%
D29*
%TO.C,R6*%
X131260000Y-120250000D03*
X130240000Y-120250000D03*
%TD*%
D11*
%TO.C,C7*%
X119020000Y-120250000D03*
X119980000Y-120250000D03*
%TD*%
D20*
%TO.C,R5*%
X114850000Y-126740000D03*
X114850000Y-127760000D03*
%TD*%
D12*
%TO.C,R13*%
X116750000Y-115250000D03*
X116750000Y-114230000D03*
%TD*%
D14*
%TO.C,R9*%
X100990000Y-113000000D03*
X102010000Y-113000000D03*
%TD*%
D30*
%TO.C,TP2*%
X122250000Y-102000000D03*
%TD*%
D31*
%TO.C,U5*%
X121387500Y-107700000D03*
X121387500Y-106750000D03*
X121387500Y-105800000D03*
X119112500Y-105800000D03*
X119112500Y-107700000D03*
%TD*%
D32*
%TO.C,U3*%
X125450000Y-108150000D03*
X127750000Y-108150000D03*
D33*
X127750000Y-101850000D03*
D32*
X130050000Y-108150000D03*
%TD*%
D29*
%TO.C,R12*%
X129520000Y-123750000D03*
X128500000Y-123750000D03*
%TD*%
%TO.C,R11*%
X131250000Y-126125000D03*
X130230000Y-126125000D03*
%TD*%
D30*
%TO.C,TP1*%
X119000000Y-102000000D03*
%TD*%
D34*
%TO.C,D2*%
X116450000Y-128000000D03*
X119250000Y-128000000D03*
%TD*%
D24*
%TO.C,J2*%
X134175000Y-127390000D03*
X134175000Y-121610000D03*
D25*
X133115000Y-127700000D03*
X133115000Y-126900000D03*
D26*
X133115000Y-125750000D03*
X133115000Y-124750000D03*
X133115000Y-124250000D03*
X133115000Y-123250000D03*
D25*
X133115000Y-122100000D03*
X133115000Y-121300000D03*
X133115000Y-121300000D03*
X133115000Y-122100000D03*
D26*
X133115000Y-122750000D03*
X133115000Y-123750000D03*
X133115000Y-125250000D03*
X133115000Y-126250000D03*
D25*
X133115000Y-126900000D03*
X133115000Y-127700000D03*
D27*
X137865000Y-120180000D03*
D28*
X133695000Y-120180000D03*
X133695000Y-128820000D03*
D27*
X137865000Y-128820000D03*
%TD*%
D20*
%TO.C,R14*%
X119000000Y-124230000D03*
X119000000Y-125250000D03*
%TD*%
D35*
%TO.C,JP1*%
X116725000Y-118500000D03*
D36*
X115275000Y-118500000D03*
%TD*%
D20*
%TO.C,R15*%
X121750000Y-124230000D03*
X121750000Y-125250000D03*
%TD*%
D37*
%TO.C,SW1*%
X128875000Y-128205000D03*
X125875000Y-128205000D03*
%TD*%
M02*
