M48
; DRILL file {KiCad (6.0.7)} date Tue Jun 10 03:22:08 2025
; FORMAT={-:-/ absolute / inch / decimal}
; #@! TF.CreationDate,2025-06-10T03:22:08+09:00
; #@! TF.GenerationSoftware,Kicad,Pcbnew,(6.0.7)
; #@! TF.FileFunction,Plated,1,4,PTH
FMAT,2
INCH
; #@! TA.AperFunction,Plated,PTH,ViaDrill
T1C0.0157
; #@! TA.AperFunction,Plated,PTH,ComponentDrill
T2C0.0236
; #@! TA.AperFunction,Plated,PTH,ComponentDrill
T3C0.0394
%
G90
G05
T1
X3.997Y-4.4857
X4.0748Y-4.5177
X4.1043Y-4.5769
X4.1043Y-4.6949
X4.1098Y-4.3947
X4.1296Y-4.3036
X4.1535Y-4.6063
X4.1578Y-4.1314
X4.2028Y-4.6161
X4.2348Y-4.3232
X4.2618Y-4.8327
X4.2618Y-5.0492
X4.2746Y-4.5483
X4.2913Y-4.9409
X4.3012Y-4.7539
X4.3307Y-4.8947
X4.3701Y-4.7736
X4.3878Y-4.1165
X4.3878Y-5.0787
X4.4412Y-4.7451
X4.4586Y-5.04
X4.4587Y-4.5472
X4.4652Y-4.9189
X4.4716Y-4.3131
X4.4882Y-4.7441
X4.4974Y-4.9416
X4.5177Y-5.0642
X4.5276Y-4.8031
X4.5393Y-4.8947
X4.5806Y-4.8122
X4.5861Y-4.902
X4.6063Y-4.2421
X4.6161Y-4.3996
X4.6201Y-4.4488
X4.6281Y-4.1272
X4.6771Y-4.439
X4.685Y-4.311
X4.6948Y-4.2039
X4.7146Y-4.4193
X4.7244Y-4.796
X4.7343Y-4.1142
X4.749Y-4.9902
X4.749Y-5.0935
X4.7638Y-4.7047
X4.7933Y-4.7343
X4.8228Y-4.5079
X4.8524Y-4.4783
X4.8528Y-4.7391
X4.9114Y-4.7539
X4.9235Y-4.3406
X4.9235Y-4.5276
X4.952Y-4.4488
X4.9669Y-4.8373
X5.0295Y-4.9213
X5.0787Y-4.3307
X5.0866Y-4.4388
X5.0984Y-4.9163
X5.1624Y-4.3701
X5.1624Y-4.9114
T3
X4.0266Y-4.0236
X4.0266Y-4.1236
X4.0266Y-4.2236
X4.0266Y-4.3236
T2
G00X4.0053Y-4.7315
M15
G01X4.0368Y-4.7315
M16
G05
G00X4.0053Y-5.0717
M15
G01X4.0368Y-5.0717
M16
G05
G00X4.1636Y-4.7315
M15
G01X4.2069Y-4.7315
M16
G05
G00X4.1636Y-5.0717
M15
G01X4.2069Y-5.0717
M16
G05
G00X5.2852Y-4.7315
M15
G01X5.2419Y-4.7315
M16
G05
G00X5.2852Y-5.0717
M15
G01X5.2419Y-5.0717
M16
G05
G00X5.4435Y-4.7315
M15
G01X5.412Y-4.7315
M16
G05
G00X5.4435Y-5.0717
M15
G01X5.412Y-5.0717
M16
G05
T0
M30
