%TF.GenerationSoftware,KiCad,Pcbnew,(6.0.7)*%
%TF.CreationDate,2025-06-10T03:22:09+09:00*%
%TF.ProjectId,AvatarSense,41766174-6172-4536-956e-73652e6b6963,rev?*%
%TF.SameCoordinates,Original*%
%TF.FileFunction,Copper,L4,Bot*%
%TF.FilePolarity,Positive*%
%FSLAX46Y46*%
G04 Gerber Fmt 4.6, Leading zero omitted, Abs format (unit mm)*
G04 Created by KiCad (PCBNEW (6.0.7)) date 2025-06-10 03:22:09*
%MOMM*%
%LPD*%
G01*
G04 APERTURE LIST*
G04 Aperture macros list*
%AMRoundRect*
0 Rectangle with rounded corners*
0 $1 Rounding radius*
0 $2 $3 $4 $5 $6 $7 $8 $9 X,Y pos of 4 corners*
0 Add a 4 corners polygon primitive as box body*
4,1,4,$2,$3,$4,$5,$6,$7,$8,$9,$2,$3,0*
0 Add four circle primitives for the rounded corners*
1,1,$1+$1,$2,$3*
1,1,$1+$1,$4,$5*
1,1,$1+$1,$6,$7*
1,1,$1+$1,$8,$9*
0 Add four rect primitives between the rounded corners*
20,1,$1+$1,$2,$3,$4,$5,0*
20,1,$1+$1,$4,$5,$6,$7,0*
20,1,$1+$1,$6,$7,$8,$9,0*
20,1,$1+$1,$8,$9,$2,$3,0*%
G04 Aperture macros list end*
%TA.AperFunction,ComponentPad*%
%ADD10R,1.700000X1.700000*%
%TD*%
%TA.AperFunction,ComponentPad*%
%ADD11O,1.700000X1.700000*%
%TD*%
%TA.AperFunction,ComponentPad*%
%ADD12O,1.700000X0.900000*%
%TD*%
%TA.AperFunction,ComponentPad*%
%ADD13O,2.000000X0.900000*%
%TD*%
%TA.AperFunction,SMDPad,CuDef*%
%ADD14R,1.000000X2.500000*%
%TD*%
%TA.AperFunction,SMDPad,CuDef*%
%ADD15R,1.800000X1.000000*%
%TD*%
%TA.AperFunction,SMDPad,CuDef*%
%ADD16RoundRect,0.135000X0.135000X0.185000X-0.135000X0.185000X-0.135000X-0.185000X0.135000X-0.185000X0*%
%TD*%
%TA.AperFunction,SMDPad,CuDef*%
%ADD17RoundRect,0.135000X0.185000X-0.135000X0.185000X0.135000X-0.185000X0.135000X-0.185000X-0.135000X0*%
%TD*%
%TA.AperFunction,SMDPad,CuDef*%
%ADD18RoundRect,0.135000X-0.135000X-0.185000X0.135000X-0.185000X0.135000X0.185000X-0.135000X0.185000X0*%
%TD*%
%TA.AperFunction,SMDPad,CuDef*%
%ADD19R,0.900000X1.000000*%
%TD*%
%TA.AperFunction,SMDPad,CuDef*%
%ADD20R,1.000000X0.800000*%
%TD*%
%TA.AperFunction,SMDPad,CuDef*%
%ADD21R,0.700000X1.500000*%
%TD*%
%TA.AperFunction,SMDPad,CuDef*%
%ADD22RoundRect,0.140000X0.140000X0.170000X-0.140000X0.170000X-0.140000X-0.170000X0.140000X-0.170000X0*%
%TD*%
%TA.AperFunction,SMDPad,CuDef*%
%ADD23RoundRect,0.150000X0.825000X0.150000X-0.825000X0.150000X-0.825000X-0.150000X0.825000X-0.150000X0*%
%TD*%
%TA.AperFunction,ViaPad*%
%ADD24C,0.800000*%
%TD*%
%TA.AperFunction,Conductor*%
%ADD25C,0.250000*%
%TD*%
%TA.AperFunction,Conductor*%
%ADD26C,0.200000*%
%TD*%
G04 APERTURE END LIST*
D10*
%TO.P,J1,1,Pin_1*%
%TO.N,+3V3*%
X102275000Y-102200000D03*
D11*
%TO.P,J1,2,Pin_2*%
%TO.N,D+*%
X102275000Y-104740000D03*
%TO.P,J1,3,Pin_3*%
%TO.N,D-*%
X102275000Y-107280000D03*
%TO.P,J1,4,Pin_4*%
%TO.N,BAT-*%
X102275000Y-109820000D03*
%TD*%
D12*
%TO.P,J3,S1,SHIELD*%
%TO.N,BAT-*%
X102135000Y-128820000D03*
D13*
X106305000Y-120180000D03*
D12*
X102135000Y-120180000D03*
D13*
X106305000Y-128820000D03*
%TD*%
D12*
%TO.P,J2,S1,SHIELD*%
%TO.N,BAT-*%
X137865000Y-120180000D03*
D13*
X133695000Y-120180000D03*
X133695000Y-128820000D03*
D12*
X137865000Y-128820000D03*
%TD*%
D14*
%TO.P,U2,1,~{RST}*%
%TO.N,RST*%
X131200000Y-117350000D03*
%TO.P,U2,2,ADC*%
%TO.N,Net-(R2-Pad1)*%
X129200000Y-117350000D03*
%TO.P,U2,3,EN*%
%TO.N,Net-(R1-Pad2)*%
X127200000Y-117350000D03*
%TO.P,U2,4,GPIO16*%
%TO.N,unconnected-(U2-Pad4)*%
X125200000Y-117350000D03*
%TO.P,U2,5,GPIO14*%
%TO.N,unconnected-(U2-Pad5)*%
X123200000Y-117350000D03*
%TO.P,U2,6,GPIO12*%
%TO.N,unconnected-(U2-Pad6)*%
X121200000Y-117350000D03*
%TO.P,U2,7,GPIO13*%
%TO.N,unconnected-(U2-Pad7)*%
X119200000Y-117350000D03*
%TO.P,U2,8,VCC*%
%TO.N,+3V3*%
X117200000Y-117350000D03*
D15*
%TO.P,U2,9,CS0*%
%TO.N,unconnected-(U2-Pad9)*%
X115700000Y-114750000D03*
%TO.P,U2,10,MISO*%
%TO.N,unconnected-(U2-Pad10)*%
X115700000Y-112750000D03*
%TO.P,U2,11,GPIO9*%
%TO.N,unconnected-(U2-Pad11)*%
X115700000Y-110750000D03*
%TO.P,U2,12,GPIO10*%
%TO.N,unconnected-(U2-Pad12)*%
X115700000Y-108750000D03*
%TO.P,U2,13,MOSI*%
%TO.N,unconnected-(U2-Pad13)*%
X115700000Y-106750000D03*
%TO.P,U2,14,SCLK*%
%TO.N,unconnected-(U2-Pad14)*%
X115700000Y-104750000D03*
D14*
%TO.P,U2,15,GND*%
%TO.N,BAT-*%
X117200000Y-102150000D03*
%TO.P,U2,16,GPIO15*%
%TO.N,unconnected-(U2-Pad16)*%
X119200000Y-102150000D03*
%TO.P,U2,17,GPIO2*%
%TO.N,GPIO2*%
X121200000Y-102150000D03*
%TO.P,U2,18,GPIO0*%
%TO.N,GPIO0*%
X123200000Y-102150000D03*
%TO.P,U2,19,GPIO4*%
%TO.N,SDA*%
X125200000Y-102150000D03*
%TO.P,U2,20,GPIO5*%
%TO.N,SCL*%
X127200000Y-102150000D03*
%TO.P,U2,21,GPIO3/RXD*%
%TO.N,RX*%
X129200000Y-102150000D03*
%TO.P,U2,22,GPIO1/TXD*%
%TO.N,TX*%
X131200000Y-102150000D03*
%TD*%
D16*
%TO.P,R3,1*%
%TO.N,Net-(R3-Pad1)*%
X108010000Y-104000000D03*
%TO.P,R3,2*%
%TO.N,TX*%
X106990000Y-104000000D03*
%TD*%
D17*
%TO.P,R1,1*%
%TO.N,+3V3*%
X127250000Y-120750000D03*
%TO.P,R1,2*%
%TO.N,Net-(R1-Pad2)*%
X127250000Y-119730000D03*
%TD*%
D18*
%TO.P,R8,1*%
%TO.N,+3V3*%
X111000000Y-118250000D03*
%TO.P,R8,2*%
%TO.N,GPIO2*%
X112020000Y-118250000D03*
%TD*%
D16*
%TO.P,R7,1*%
%TO.N,+3V3*%
X109020000Y-118250000D03*
%TO.P,R7,2*%
%TO.N,GPIO0*%
X108000000Y-118250000D03*
%TD*%
D19*
%TO.P,SW2,1,1*%
%TO.N,BAT-*%
X113550000Y-101700000D03*
X109450000Y-101700000D03*
%TO.P,SW2,2,2*%
%TO.N,RST*%
X113550000Y-103300000D03*
X109450000Y-103300000D03*
%TD*%
D20*
%TO.P,SW1,*%
%TO.N,*%
X131025000Y-127095000D03*
X123725000Y-127095000D03*
X123725000Y-129305000D03*
X131025000Y-129305000D03*
D21*
%TO.P,SW1,1,A*%
%TO.N,Net-(SW1-Pad1)*%
X129625000Y-126445000D03*
%TO.P,SW1,2,B*%
%TO.N,BAT+*%
X126625000Y-126445000D03*
%TO.P,SW1,3,C*%
%TO.N,unconnected-(SW1-Pad3)*%
X125125000Y-126445000D03*
%TD*%
D22*
%TO.P,C4,1*%
%TO.N,BAT-*%
X107980000Y-101250000D03*
%TO.P,C4,2*%
%TO.N,RST*%
X107020000Y-101250000D03*
%TD*%
D23*
%TO.P,U1,1,GND*%
%TO.N,BAT-*%
X111450000Y-106860000D03*
%TO.P,U1,2,TXD*%
%TO.N,Net-(R3-Pad1)*%
X111450000Y-108130000D03*
%TO.P,U1,3,RXD*%
%TO.N,RX*%
X111450000Y-109400000D03*
%TO.P,U1,4,V3*%
%TO.N,+3V3*%
X111450000Y-110670000D03*
%TO.P,U1,5,UD+*%
%TO.N,D+*%
X111450000Y-111940000D03*
%TO.P,U1,6,UD-*%
%TO.N,D-*%
X111450000Y-113210000D03*
%TO.P,U1,7,NC*%
%TO.N,unconnected-(U1-Pad7)*%
X111450000Y-114480000D03*
%TO.P,U1,8,NC*%
%TO.N,unconnected-(U1-Pad8)*%
X111450000Y-115750000D03*
%TO.P,U1,9,~{CTS}*%
%TO.N,unconnected-(U1-Pad9)*%
X106500000Y-115750000D03*
%TO.P,U1,10,~{DSR}*%
%TO.N,unconnected-(U1-Pad10)*%
X106500000Y-114480000D03*
%TO.P,U1,11,~{RI}*%
%TO.N,unconnected-(U1-Pad11)*%
X106500000Y-113210000D03*
%TO.P,U1,12,~{DCD}*%
%TO.N,unconnected-(U1-Pad12)*%
X106500000Y-111940000D03*
%TO.P,U1,13,~{DTR}*%
%TO.N,DTR*%
X106500000Y-110670000D03*
%TO.P,U1,14,~{RTS}*%
%TO.N,RTS*%
X106500000Y-109400000D03*
%TO.P,U1,15,R232*%
%TO.N,unconnected-(U1-Pad15)*%
X106500000Y-108130000D03*
%TO.P,U1,16,VCC*%
%TO.N,+3V3*%
X106500000Y-106860000D03*
%TD*%
D24*
%TO.N,+3V3*%
X121750000Y-120250000D03*
X108250000Y-122750000D03*
X116347000Y-122229000D03*
X119248000Y-106778000D03*
%TO.N,BAT-*%
X119000000Y-109500000D03*
X111450000Y-104558000D03*
X117554000Y-104830000D03*
X120250000Y-104500000D03*
%TO.N,RST*%
X108250000Y-128250000D03*
X111450000Y-129000000D03*
X120625000Y-129375000D03*
%TO.N,BAT+*%
X131125000Y-111000000D03*
X129500000Y-124875000D03*
%TO.N,+5V*%
X120625000Y-126750000D03*
X111000000Y-121250000D03*
%TO.N,Net-(JP1-Pad1)*%
X118799500Y-112750000D03*
X117350000Y-113000000D03*
%TO.N,DTR*%
X104250000Y-116253000D03*
%TO.N,RTS*%
X114750000Y-128629500D03*
X107564061Y-109809647D03*
X113416000Y-124941000D03*
%TO.N,GPIO0*%
X113249000Y-128016000D03*
X114000000Y-120500000D03*
X116488000Y-124512000D03*
%TO.N,Net-(R2-Pad1)*%
X129200000Y-112746000D03*
%TO.N,TX*%
X105607000Y-104937000D03*
X104250000Y-119250000D03*
%TO.N,Net-(R4-Pad2)*%
X105500000Y-117000000D03*
X104390000Y-111625000D03*
X127750000Y-125000000D03*
%TO.N,Net-(R5-Pad1)*%
X109250000Y-120750000D03*
X114233000Y-125517000D03*
X104893000Y-109311000D03*
X112806926Y-120525500D03*
X115298000Y-124326000D03*
X103500000Y-114750000D03*
%TO.N,Net-(R14-Pad1)*%
X120000000Y-121818000D03*
X115000000Y-122000000D03*
X122500000Y-114500000D03*
X121000000Y-119500000D03*
%TO.N,SCL*%
X123250000Y-113750000D03*
X109000000Y-125500000D03*
X126160000Y-122868000D03*
X110000000Y-124326000D03*
X123262000Y-120373000D03*
%TO.N,SDA*%
X113579000Y-109553000D03*
X106750000Y-117250000D03*
X125781000Y-113000000D03*
X119750000Y-112250000D03*
X117250000Y-111750000D03*
X124750000Y-120750000D03*
X117000000Y-107750000D03*
X113250000Y-115500000D03*
%TO.N,D-*%
X101523000Y-113937000D03*
X108575000Y-115528000D03*
%TO.N,+1V8*%
X125056000Y-110250000D03*
X125056000Y-115000000D03*
%TO.N,Net-(SW1-Pad1)*%
X131125000Y-124750000D03*
X129000000Y-110000000D03*
%TD*%
D25*
%TO.N,+3V3*%
X125509000Y-121094000D02*
X125509000Y-121281000D01*
X125244000Y-121546000D02*
X121046000Y-121546000D01*
X114863200Y-121094000D02*
X116346000Y-121094000D01*
X111000000Y-118250000D02*
X111649000Y-117601000D01*
X114000000Y-112813000D02*
X114000000Y-116383000D01*
X107630000Y-122130000D02*
X108250000Y-122750000D01*
X116347000Y-122229000D02*
X116347000Y-122228000D01*
X107630000Y-119586000D02*
X107630000Y-122130000D01*
X102275000Y-103377000D02*
X102275000Y-102200000D01*
X109020000Y-118250000D02*
X111000000Y-118250000D01*
X104356000Y-104603000D02*
X103130000Y-103377000D01*
X104356000Y-104716000D02*
X104356000Y-104603000D01*
X114627000Y-109750000D02*
X112782000Y-111595000D01*
X107259000Y-106860000D02*
X111069000Y-110670000D01*
X120500000Y-121000000D02*
X121000000Y-121000000D01*
X121000000Y-121000000D02*
X121750000Y-120250000D01*
X111450000Y-110670000D02*
X111857000Y-110670000D01*
X111857000Y-110670000D02*
X112782000Y-111595000D01*
X116346000Y-122228000D02*
X116346000Y-121094000D01*
X108250000Y-122750000D02*
X113207200Y-122750000D01*
X121046000Y-121546000D02*
X120500000Y-121000000D01*
X111069000Y-110670000D02*
X111450000Y-110670000D01*
X114000000Y-116383000D02*
X112782000Y-117601000D01*
X117200000Y-108827000D02*
X117200000Y-109550000D01*
X113207200Y-122750000D02*
X114863200Y-121094000D01*
X117200000Y-118740000D02*
X117200000Y-117350000D01*
X127250000Y-120750000D02*
X126906000Y-121094000D01*
X111649000Y-117601000D02*
X112782000Y-117601000D01*
X117000000Y-109750000D02*
X114627000Y-109750000D01*
X107397000Y-117865000D02*
X107397000Y-119353000D01*
X120500000Y-121000000D02*
X116440000Y-121000000D01*
X106500000Y-106860000D02*
X104356000Y-104716000D01*
X117200000Y-109550000D02*
X117000000Y-109750000D01*
X112782000Y-117601000D02*
X116061000Y-117601000D01*
X109020000Y-118250000D02*
X108371000Y-117601000D01*
X106500000Y-106860000D02*
X107259000Y-106860000D01*
X107660000Y-117601000D02*
X107397000Y-117865000D01*
X112782000Y-111595000D02*
X114000000Y-112813000D01*
X119248000Y-106778000D02*
X117200000Y-108827000D01*
X107397000Y-119353000D02*
X107630000Y-119586000D01*
X125509000Y-121281000D02*
X125244000Y-121546000D01*
X116061000Y-117601000D02*
X117200000Y-118740000D01*
X116440000Y-121000000D02*
X116346000Y-121094000D01*
X103130000Y-103377000D02*
X102275000Y-103377000D01*
X116347000Y-122228000D02*
X116346000Y-122228000D01*
X126906000Y-121094000D02*
X125509000Y-121094000D01*
X108371000Y-117601000D02*
X107660000Y-117601000D01*
%TO.N,BAT-*%
X117200000Y-102150000D02*
X117200000Y-101495000D01*
X136688000Y-128820000D02*
X136688000Y-120180000D01*
X136688000Y-120180000D02*
X137865000Y-120180000D01*
X120250000Y-108250000D02*
X120250000Y-104500000D01*
X107980000Y-101250000D02*
X108223000Y-101250000D01*
X114327000Y-101700000D02*
X115454000Y-100573000D01*
X117554000Y-101849000D02*
X117554000Y-104830000D01*
X114378000Y-103932000D02*
X111450000Y-106860000D01*
X119000000Y-109500000D02*
X120250000Y-108250000D01*
X108223000Y-101250000D02*
X108673000Y-101700000D01*
X101250000Y-115250000D02*
X101250000Y-119750000D01*
X115454000Y-100573000D02*
X117200000Y-100573000D01*
X114325000Y-101700000D02*
X114378000Y-101753000D01*
X111450000Y-106860000D02*
X111450000Y-104558000D01*
X137865000Y-128820000D02*
X136688000Y-128820000D01*
X101250000Y-119750000D02*
X101680000Y-120180000D01*
X114378000Y-101753000D02*
X114378000Y-103932000D01*
X114325000Y-101700000D02*
X114327000Y-101700000D01*
X109450000Y-101700000D02*
X113550000Y-101700000D01*
X102275000Y-114225000D02*
X101250000Y-115250000D01*
X113550000Y-101700000D02*
X114325000Y-101700000D01*
X117200000Y-101495000D02*
X117554000Y-101849000D01*
X102275000Y-109820000D02*
X102275000Y-114225000D01*
X117200000Y-100573000D02*
X117200000Y-101495000D01*
X108673000Y-101700000D02*
X109450000Y-101700000D01*
X101680000Y-120180000D02*
X102135000Y-120180000D01*
%TO.N,RST*%
X100594000Y-120844000D02*
X101810000Y-122060000D01*
X108250000Y-127000000D02*
X108250000Y-128250000D01*
X126712000Y-124054000D02*
X131200000Y-119566000D01*
X109450000Y-103300000D02*
X113550000Y-103300000D01*
X120946000Y-124054000D02*
X126712000Y-124054000D01*
X107020000Y-101250000D02*
X106793000Y-101023000D01*
X103310000Y-122060000D02*
X108250000Y-127000000D01*
X108673000Y-103300000D02*
X107020000Y-101647000D01*
X101289000Y-101023000D02*
X100594000Y-101719000D01*
X101810000Y-122060000D02*
X103310000Y-122060000D01*
X121475000Y-128525000D02*
X121475000Y-124583000D01*
X120625000Y-129375000D02*
X121475000Y-128525000D01*
X100594000Y-101719000D02*
X100594000Y-120844000D01*
X106793000Y-101023000D02*
X101289000Y-101023000D01*
X131200000Y-119566000D02*
X131200000Y-117350000D01*
X107020000Y-101647000D02*
X107020000Y-101250000D01*
X109450000Y-103300000D02*
X108673000Y-103300000D01*
X121475000Y-124583000D02*
X120946000Y-124054000D01*
D26*
%TO.N,BAT+*%
X126625000Y-126445000D02*
X127930000Y-126445000D01*
X127930000Y-126445000D02*
X129500000Y-124875000D01*
D25*
%TO.N,Net-(JP1-Pad1)*%
X118799500Y-112750000D02*
X118549500Y-113000000D01*
X118549500Y-113000000D02*
X117350000Y-113000000D01*
%TO.N,DTR*%
X105149000Y-115354000D02*
X105149000Y-111640000D01*
X104250000Y-116253000D02*
X105149000Y-115354000D01*
X105149000Y-111640000D02*
X106120000Y-110670000D01*
X106120000Y-110670000D02*
X106500000Y-110670000D01*
%TO.N,RTS*%
X114638500Y-128741000D02*
X112741000Y-128741000D01*
X107564061Y-109809647D02*
X106909647Y-109809647D01*
X112250000Y-128250000D02*
X112250000Y-126107000D01*
X112250000Y-126107000D02*
X113416000Y-124941000D01*
X106909647Y-109809647D02*
X106500000Y-109400000D01*
X112741000Y-128741000D02*
X112250000Y-128250000D01*
X114750000Y-128629500D02*
X114638500Y-128741000D01*
%TO.N,GPIO0*%
X117623000Y-119644000D02*
X117021000Y-119644000D01*
X123200000Y-112514000D02*
X120027000Y-115687000D01*
X120027000Y-115687000D02*
X120027000Y-118755000D01*
X116488000Y-124778000D02*
X116488000Y-124512000D01*
X113648000Y-119648000D02*
X108492000Y-119648000D01*
X123200000Y-102150000D02*
X123200000Y-112514000D01*
X108000000Y-119156000D02*
X108000000Y-118250000D01*
X120027000Y-118755000D02*
X119134000Y-119648000D01*
X119134000Y-119648000D02*
X117627000Y-119648000D01*
X117627000Y-119648000D02*
X117623000Y-119644000D01*
X113249000Y-128016000D02*
X116488000Y-124778000D01*
X117017000Y-119648000D02*
X113648000Y-119648000D01*
X108492000Y-119648000D02*
X108000000Y-119156000D01*
X114000000Y-120500000D02*
X114000000Y-120000000D01*
X117021000Y-119644000D02*
X117017000Y-119648000D01*
X114000000Y-120000000D02*
X113648000Y-119648000D01*
%TO.N,Net-(R1-Pad2)*%
X127250000Y-119730000D02*
X127200000Y-119680000D01*
X127200000Y-119680000D02*
X127200000Y-117350000D01*
%TO.N,Net-(R2-Pad1)*%
X129200000Y-117350000D02*
X129200000Y-112746000D01*
%TO.N,Net-(R3-Pad1)*%
X108010000Y-105104000D02*
X108010000Y-104000000D01*
X111036000Y-108130000D02*
X108010000Y-105104000D01*
X111450000Y-108130000D02*
X111036000Y-108130000D01*
%TO.N,TX*%
X130373000Y-104554000D02*
X130373000Y-119754000D01*
X109398000Y-123602000D02*
X105908000Y-123602000D01*
X116500000Y-123500000D02*
X109500000Y-123500000D01*
X106053000Y-104937000D02*
X105607000Y-104937000D01*
X109500000Y-123500000D02*
X109398000Y-123602000D01*
X131200000Y-103727000D02*
X130373000Y-104554000D01*
X126525000Y-123602000D02*
X116602000Y-123602000D01*
X106990000Y-104000000D02*
X106053000Y-104937000D01*
X116602000Y-123602000D02*
X116500000Y-123500000D01*
X105908000Y-123602000D02*
X104250000Y-121944000D01*
X131200000Y-102150000D02*
X131200000Y-103727000D01*
X130373000Y-119754000D02*
X126525000Y-123602000D01*
X104250000Y-121944000D02*
X104250000Y-119250000D01*
%TO.N,Net-(R4-Pad2)*%
X104390000Y-111625000D02*
X104390000Y-115087695D01*
X103525000Y-116553305D02*
X103971695Y-117000000D01*
X104390000Y-115087695D02*
X103738847Y-115738848D01*
X103971695Y-117000000D02*
X105500000Y-117000000D01*
X103525000Y-115952695D02*
X103525000Y-116553305D01*
X103738847Y-115738848D02*
X103525000Y-115952695D01*
%TO.N,Net-(R5-Pad1)*%
X114233000Y-125392000D02*
X115298000Y-124326000D01*
X112653426Y-120372000D02*
X112806926Y-120525500D01*
X109628000Y-120372000D02*
X112653426Y-120372000D01*
X114233000Y-125517000D02*
X114233000Y-125392000D01*
X103500000Y-114750000D02*
X103500000Y-111000000D01*
X109250000Y-120750000D02*
X109628000Y-120372000D01*
X103500000Y-111000000D02*
X104893000Y-109607000D01*
X104893000Y-109607000D02*
X104893000Y-109311000D01*
%TO.N,GPIO2*%
X118027000Y-115095000D02*
X118027000Y-118780000D01*
X121200000Y-111922000D02*
X118027000Y-115095000D01*
X112962000Y-119192000D02*
X112020000Y-118250000D01*
X118027000Y-118780000D02*
X117615000Y-119192000D01*
X117615000Y-119192000D02*
X112962000Y-119192000D01*
X121200000Y-102150000D02*
X121200000Y-111922000D01*
%TO.N,Net-(R14-Pad1)*%
X122250000Y-114750000D02*
X122500000Y-114500000D01*
X122250000Y-118700000D02*
X122250000Y-114750000D01*
X118864000Y-122954000D02*
X120000000Y-121818000D01*
X121450000Y-119500000D02*
X122250000Y-118700000D01*
X115954000Y-122954000D02*
X118864000Y-122954000D01*
X115000000Y-122000000D02*
X115954000Y-122954000D01*
X121000000Y-119500000D02*
X121450000Y-119500000D01*
%TO.N,SCL*%
X128028000Y-121000000D02*
X128028000Y-104555000D01*
X128028000Y-104555000D02*
X127200000Y-103727000D01*
X124250000Y-119161000D02*
X123250000Y-120161000D01*
X123250000Y-120360000D02*
X123262000Y-120373000D01*
X109000000Y-125500000D02*
X109000000Y-125326000D01*
X123250000Y-115250000D02*
X123750000Y-115750000D01*
X124250000Y-116000000D02*
X124250000Y-119161000D01*
X126160000Y-122868000D02*
X128028000Y-121000000D01*
X123250000Y-113750000D02*
X123250000Y-115250000D01*
X127200000Y-103727000D02*
X127200000Y-102150000D01*
X123750000Y-115750000D02*
X124000000Y-115750000D01*
X109000000Y-125326000D02*
X110000000Y-124326000D01*
X124000000Y-115750000D02*
X124250000Y-116000000D01*
X123250000Y-120161000D02*
X123250000Y-120360000D01*
%TO.N,SDA*%
X113250000Y-116250000D02*
X113250000Y-115500000D01*
X125200000Y-103727000D02*
X124332000Y-104595000D01*
X111000000Y-117500000D02*
X111750000Y-116750000D01*
X124332000Y-104595000D02*
X124332000Y-108082000D01*
X126025000Y-113275000D02*
X125781000Y-113031000D01*
X112750000Y-116750000D02*
X113250000Y-116250000D01*
X117250000Y-111750000D02*
X119250000Y-111750000D01*
X106750000Y-117250000D02*
X107000000Y-117000000D01*
X111750000Y-116750000D02*
X112750000Y-116750000D01*
X124750000Y-120200000D02*
X126025000Y-118925000D01*
X125781000Y-113031000D02*
X125781000Y-113000000D01*
X124750000Y-120750000D02*
X124750000Y-120200000D01*
X119250000Y-111750000D02*
X119750000Y-112250000D01*
X114650000Y-107750000D02*
X117000000Y-107750000D01*
X113579000Y-109553000D02*
X113579000Y-108821000D01*
X124332000Y-108082000D02*
X125781000Y-109531000D01*
X125781000Y-109531000D02*
X125781000Y-113000000D01*
X107000000Y-117000000D02*
X109000000Y-117000000D01*
X109000000Y-117000000D02*
X109500000Y-117500000D01*
X109500000Y-117500000D02*
X111000000Y-117500000D01*
X126025000Y-118925000D02*
X126025000Y-113275000D01*
X125200000Y-102150000D02*
X125200000Y-103727000D01*
X113579000Y-108821000D02*
X114650000Y-107750000D01*
%TO.N,RX*%
X120564000Y-100573000D02*
X120373000Y-100764000D01*
X115010000Y-105577000D02*
X112894000Y-107694000D01*
X129200000Y-102150000D02*
X129200000Y-100573000D01*
X120373000Y-103231000D02*
X118028000Y-105577000D01*
X112894000Y-108363000D02*
X111857000Y-109400000D01*
X112894000Y-107694000D02*
X112894000Y-108363000D01*
X120373000Y-100764000D02*
X120373000Y-103231000D01*
X129200000Y-100573000D02*
X120564000Y-100573000D01*
X118028000Y-105577000D02*
X115010000Y-105577000D01*
X111857000Y-109400000D02*
X111450000Y-109400000D01*
%TO.N,D+*%
X105458000Y-108765000D02*
X103904000Y-107210000D01*
X103904000Y-107210000D02*
X103904000Y-104790000D01*
X102489000Y-104526000D02*
X102275000Y-104740000D01*
X107601000Y-108765000D02*
X105458000Y-108765000D01*
X110776000Y-111940000D02*
X107601000Y-108765000D01*
X103904000Y-104790000D02*
X103639000Y-104526000D01*
X111450000Y-111940000D02*
X110776000Y-111940000D01*
X103639000Y-104526000D02*
X102489000Y-104526000D01*
%TO.N,D-*%
X111450000Y-113210000D02*
X110893000Y-113210000D01*
X101046000Y-113460000D02*
X101523000Y-113937000D01*
X110893000Y-113210000D02*
X108575000Y-115528000D01*
X101046000Y-108510000D02*
X101046000Y-113460000D01*
X102275000Y-107280000D02*
X101046000Y-108510000D01*
%TO.N,+1V8*%
X125056000Y-115000000D02*
X125056000Y-110250000D01*
%TO.N,Net-(SW1-Pad1)*%
X129625000Y-126445000D02*
X129625000Y-126250000D01*
X129625000Y-126250000D02*
X131125000Y-124750000D01*
%TD*%
M02*
