%TF.GenerationSoftware,KiCad,Pcbnew,(6.0.7)*%
%TF.CreationDate,2025-06-10T03:22:10+09:00*%
%TF.ProjectId,AvatarSense,41766174-6172-4536-956e-73652e6b6963,rev?*%
%TF.SameCoordinates,Original*%
%TF.FileFunction,Paste,Top*%
%TF.FilePolarity,Positive*%
%FSLAX46Y46*%
G04 Gerber Fmt 4.6, Leading zero omitted, Abs format (unit mm)*
G04 Created by KiCad (PCBNEW (6.0.7)) date 2025-06-10 03:22:10*
%MOMM*%
%LPD*%
G01*
G04 APERTURE LIST*
G04 Aperture macros list*
%AMRoundRect*
0 Rectangle with rounded corners*
0 $1 Rounding radius*
0 $2 $3 $4 $5 $6 $7 $8 $9 X,Y pos of 4 corners*
0 Add a 4 corners polygon primitive as box body*
4,1,4,$2,$3,$4,$5,$6,$7,$8,$9,$2,$3,0*
0 Add four circle primitives for the rounded corners*
1,1,$1+$1,$2,$3*
1,1,$1+$1,$4,$5*
1,1,$1+$1,$6,$7*
1,1,$1+$1,$8,$9*
0 Add four rect primitives between the rounded corners*
20,1,$1+$1,$2,$3,$4,$5,0*
20,1,$1+$1,$4,$5,$6,$7,0*
20,1,$1+$1,$6,$7,$8,$9,0*
20,1,$1+$1,$8,$9,$2,$3,0*%
G04 Aperture macros list end*
%ADD10RoundRect,0.140000X-0.140000X-0.170000X0.140000X-0.170000X0.140000X0.170000X-0.140000X0.170000X0*%
%ADD11RoundRect,0.135000X0.185000X-0.135000X0.185000X0.135000X-0.185000X0.135000X-0.185000X-0.135000X0*%
%ADD12RoundRect,0.140000X0.170000X-0.140000X0.170000X0.140000X-0.170000X0.140000X-0.170000X-0.140000X0*%
%ADD13RoundRect,0.135000X-0.135000X-0.185000X0.135000X-0.185000X0.135000X0.185000X-0.135000X0.185000X0*%
%ADD14RoundRect,0.250000X0.375000X1.075000X-0.375000X1.075000X-0.375000X-1.075000X0.375000X-1.075000X0*%
%ADD15R,0.400000X0.650000*%
%ADD16R,0.558000X1.454899*%
%ADD17RoundRect,0.140000X0.140000X0.170000X-0.140000X0.170000X-0.140000X-0.170000X0.140000X-0.170000X0*%
%ADD18RoundRect,0.135000X-0.185000X0.135000X-0.185000X-0.135000X0.185000X-0.135000X0.185000X0.135000X0*%
%ADD19R,1.100000X0.900000*%
%ADD20R,1.160000X0.600000*%
%ADD21R,1.160000X0.300000*%
%ADD22RoundRect,0.135000X0.135000X0.185000X-0.135000X0.185000X-0.135000X-0.185000X0.135000X-0.185000X0*%
%ADD23RoundRect,0.150000X0.512500X0.150000X-0.512500X0.150000X-0.512500X-0.150000X0.512500X-0.150000X0*%
%ADD24R,1.500000X2.000000*%
%ADD25R,3.800000X2.000000*%
%ADD26R,0.475000X0.250000*%
%ADD27R,0.250000X0.475000*%
%ADD28RoundRect,0.250000X-0.375000X-1.075000X0.375000X-1.075000X0.375000X1.075000X-0.375000X1.075000X0*%
G04 APERTURE END LIST*
%TO.C,U4*%
G36*
X112351800Y-111407300D02*
G01*
X110850000Y-111407300D01*
X110850000Y-109092700D01*
X112351800Y-109092700D01*
X112351800Y-111407300D01*
G37*
G36*
X110650000Y-111407300D02*
G01*
X109148200Y-111407300D01*
X109148200Y-109092700D01*
X110650000Y-109092700D01*
X110650000Y-111407300D01*
G37*
%TD*%
D10*
%TO.C,C3*%
X106520000Y-104500000D03*
X107480000Y-104500000D03*
%TD*%
D11*
%TO.C,R10*%
X112000000Y-122260000D03*
X112000000Y-121240000D03*
%TD*%
D12*
%TO.C,C6*%
X112000000Y-118960000D03*
X112000000Y-118000000D03*
%TD*%
D13*
%TO.C,R4*%
X126115000Y-127125000D03*
X127135000Y-127125000D03*
%TD*%
D14*
%TO.C,D1*%
X124775000Y-128000000D03*
X121975000Y-128000000D03*
%TD*%
D15*
%TO.C,Q2*%
X109100000Y-128950000D03*
X109750000Y-128950000D03*
X110400000Y-128950000D03*
X110400000Y-127050000D03*
X109750000Y-127050000D03*
X109100000Y-127050000D03*
%TD*%
D16*
%TO.C,U4*%
X108845000Y-112971348D03*
X110115000Y-112971348D03*
X111385000Y-112971348D03*
X112655000Y-112971348D03*
X112655000Y-107528652D03*
X111385000Y-107528652D03*
X110115000Y-107528652D03*
X108845000Y-107528652D03*
%TD*%
D17*
%TO.C,C5*%
X128210000Y-111000000D03*
X127250000Y-111000000D03*
%TD*%
D11*
%TO.C,R2*%
X130000000Y-112020000D03*
X130000000Y-111000000D03*
%TD*%
D18*
%TO.C,R16*%
X124500000Y-124240000D03*
X124500000Y-125260000D03*
%TD*%
D15*
%TO.C,Q1*%
X112250000Y-129000000D03*
X112900000Y-129000000D03*
X113550000Y-129000000D03*
X113550000Y-127100000D03*
X112900000Y-127100000D03*
X112250000Y-127100000D03*
%TD*%
D10*
%TO.C,C2*%
X106520000Y-102750000D03*
X107480000Y-102750000D03*
%TD*%
D19*
%TO.C,Y1*%
X125000000Y-116400000D03*
X126800000Y-116400000D03*
X126800000Y-115000000D03*
X125000000Y-115000000D03*
%TD*%
D20*
%TO.C,J3*%
X106885000Y-121300000D03*
X106885000Y-122100000D03*
D21*
X106885000Y-123250000D03*
X106885000Y-124250000D03*
X106885000Y-124750000D03*
X106885000Y-125750000D03*
D20*
X106885000Y-126900000D03*
X106885000Y-127700000D03*
X106885000Y-127700000D03*
X106885000Y-126900000D03*
D21*
X106885000Y-126250000D03*
X106885000Y-125250000D03*
X106885000Y-123750000D03*
X106885000Y-122750000D03*
D20*
X106885000Y-122100000D03*
X106885000Y-121300000D03*
%TD*%
D10*
%TO.C,C1*%
X106500000Y-101000000D03*
X107460000Y-101000000D03*
%TD*%
%TO.C,C8*%
X119020000Y-117750000D03*
X119980000Y-117750000D03*
%TD*%
D22*
%TO.C,R6*%
X131260000Y-120250000D03*
X130240000Y-120250000D03*
%TD*%
D10*
%TO.C,C7*%
X119020000Y-120250000D03*
X119980000Y-120250000D03*
%TD*%
D18*
%TO.C,R5*%
X114850000Y-126740000D03*
X114850000Y-127760000D03*
%TD*%
D11*
%TO.C,R13*%
X116750000Y-115250000D03*
X116750000Y-114230000D03*
%TD*%
D13*
%TO.C,R9*%
X100990000Y-113000000D03*
X102010000Y-113000000D03*
%TD*%
D23*
%TO.C,U5*%
X121387500Y-107700000D03*
X121387500Y-106750000D03*
X121387500Y-105800000D03*
X119112500Y-105800000D03*
X119112500Y-107700000D03*
%TD*%
D24*
%TO.C,U3*%
X125450000Y-108150000D03*
X127750000Y-108150000D03*
D25*
X127750000Y-101850000D03*
D24*
X130050000Y-108150000D03*
%TD*%
D26*
%TO.C,U6*%
X118837500Y-114250000D03*
X118837500Y-114750000D03*
X118837500Y-115250000D03*
X118837500Y-115750000D03*
D27*
X119500000Y-115912500D03*
X120000000Y-115912500D03*
X120500000Y-115912500D03*
D26*
X121162500Y-115750000D03*
X121162500Y-115250000D03*
X121162500Y-114750000D03*
X121162500Y-114250000D03*
D27*
X120500000Y-114087500D03*
X120000000Y-114087500D03*
X119500000Y-114087500D03*
%TD*%
D22*
%TO.C,R12*%
X129520000Y-123750000D03*
X128500000Y-123750000D03*
%TD*%
%TO.C,R11*%
X131250000Y-126125000D03*
X130230000Y-126125000D03*
%TD*%
D28*
%TO.C,D2*%
X116450000Y-128000000D03*
X119250000Y-128000000D03*
%TD*%
D20*
%TO.C,J2*%
X133115000Y-127700000D03*
X133115000Y-126900000D03*
D21*
X133115000Y-125750000D03*
X133115000Y-124750000D03*
X133115000Y-124250000D03*
X133115000Y-123250000D03*
D20*
X133115000Y-122100000D03*
X133115000Y-121300000D03*
X133115000Y-121300000D03*
X133115000Y-122100000D03*
D21*
X133115000Y-122750000D03*
X133115000Y-123750000D03*
X133115000Y-125250000D03*
X133115000Y-126250000D03*
D20*
X133115000Y-126900000D03*
X133115000Y-127700000D03*
%TD*%
D18*
%TO.C,R14*%
X119000000Y-124230000D03*
X119000000Y-125250000D03*
%TD*%
%TO.C,R15*%
X121750000Y-124230000D03*
X121750000Y-125250000D03*
%TD*%
M02*
