%TF.GenerationSoftware,KiCad,Pcbnew,(6.0.7)*%
%TF.CreationDate,2025-06-10T03:22:10+09:00*%
%TF.ProjectId,AvatarSense,41766174-6172-4536-956e-73652e6b6963,rev?*%
%TF.SameCoordinates,Original*%
%TF.FileFunction,Paste,Bot*%
%TF.FilePolarity,Positive*%
%FSLAX46Y46*%
G04 Gerber Fmt 4.6, Leading zero omitted, Abs format (unit mm)*
G04 Created by KiCad (PCBNEW (6.0.7)) date 2025-06-10 03:22:10*
%MOMM*%
%LPD*%
G01*
G04 APERTURE LIST*
G04 Aperture macros list*
%AMRoundRect*
0 Rectangle with rounded corners*
0 $1 Rounding radius*
0 $2 $3 $4 $5 $6 $7 $8 $9 X,Y pos of 4 corners*
0 Add a 4 corners polygon primitive as box body*
4,1,4,$2,$3,$4,$5,$6,$7,$8,$9,$2,$3,0*
0 Add four circle primitives for the rounded corners*
1,1,$1+$1,$2,$3*
1,1,$1+$1,$4,$5*
1,1,$1+$1,$6,$7*
1,1,$1+$1,$8,$9*
0 Add four rect primitives between the rounded corners*
20,1,$1+$1,$2,$3,$4,$5,0*
20,1,$1+$1,$4,$5,$6,$7,0*
20,1,$1+$1,$6,$7,$8,$9,0*
20,1,$1+$1,$8,$9,$2,$3,0*%
G04 Aperture macros list end*
%ADD10R,1.000000X2.500000*%
%ADD11R,1.800000X1.000000*%
%ADD12RoundRect,0.135000X0.135000X0.185000X-0.135000X0.185000X-0.135000X-0.185000X0.135000X-0.185000X0*%
%ADD13RoundRect,0.135000X0.185000X-0.135000X0.185000X0.135000X-0.185000X0.135000X-0.185000X-0.135000X0*%
%ADD14RoundRect,0.135000X-0.135000X-0.185000X0.135000X-0.185000X0.135000X0.185000X-0.135000X0.185000X0*%
%ADD15R,0.900000X1.000000*%
%ADD16R,1.000000X0.800000*%
%ADD17R,0.700000X1.500000*%
%ADD18RoundRect,0.140000X0.140000X0.170000X-0.140000X0.170000X-0.140000X-0.170000X0.140000X-0.170000X0*%
%ADD19RoundRect,0.150000X0.825000X0.150000X-0.825000X0.150000X-0.825000X-0.150000X0.825000X-0.150000X0*%
G04 APERTURE END LIST*
D10*
%TO.C,U2*%
X131200000Y-117350000D03*
X129200000Y-117350000D03*
X127200000Y-117350000D03*
X125200000Y-117350000D03*
X123200000Y-117350000D03*
X121200000Y-117350000D03*
X119200000Y-117350000D03*
X117200000Y-117350000D03*
D11*
X115700000Y-114750000D03*
X115700000Y-112750000D03*
X115700000Y-110750000D03*
X115700000Y-108750000D03*
X115700000Y-106750000D03*
X115700000Y-104750000D03*
D10*
X117200000Y-102150000D03*
X119200000Y-102150000D03*
X121200000Y-102150000D03*
X123200000Y-102150000D03*
X125200000Y-102150000D03*
X127200000Y-102150000D03*
X129200000Y-102150000D03*
X131200000Y-102150000D03*
%TD*%
D12*
%TO.C,R3*%
X108010000Y-104000000D03*
X106990000Y-104000000D03*
%TD*%
D13*
%TO.C,R1*%
X127250000Y-120750000D03*
X127250000Y-119730000D03*
%TD*%
D14*
%TO.C,R8*%
X111000000Y-118250000D03*
X112020000Y-118250000D03*
%TD*%
D12*
%TO.C,R7*%
X109020000Y-118250000D03*
X108000000Y-118250000D03*
%TD*%
D15*
%TO.C,SW2*%
X113550000Y-101700000D03*
X109450000Y-101700000D03*
X113550000Y-103300000D03*
X109450000Y-103300000D03*
%TD*%
D16*
%TO.C,SW1*%
X131025000Y-127095000D03*
X123725000Y-127095000D03*
X123725000Y-129305000D03*
X131025000Y-129305000D03*
D17*
X129625000Y-126445000D03*
X126625000Y-126445000D03*
X125125000Y-126445000D03*
%TD*%
D18*
%TO.C,C4*%
X107980000Y-101250000D03*
X107020000Y-101250000D03*
%TD*%
D19*
%TO.C,U1*%
X111450000Y-106860000D03*
X111450000Y-108130000D03*
X111450000Y-109400000D03*
X111450000Y-110670000D03*
X111450000Y-111940000D03*
X111450000Y-113210000D03*
X111450000Y-114480000D03*
X111450000Y-115750000D03*
X106500000Y-115750000D03*
X106500000Y-114480000D03*
X106500000Y-113210000D03*
X106500000Y-111940000D03*
X106500000Y-110670000D03*
X106500000Y-109400000D03*
X106500000Y-108130000D03*
X106500000Y-106860000D03*
%TD*%
M02*
