%TF.GenerationSoftware,KiCad,Pcbnew,(6.0.7)*%
%TF.CreationDate,2025-06-10T03:22:10+09:00*%
%TF.ProjectId,AvatarSense,41766174-6172-4536-956e-73652e6b6963,rev?*%
%TF.SameCoordinates,Original*%
%TF.FileFunction,Legend,Bot*%
%TF.FilePolarity,Positive*%
%FSLAX46Y46*%
G04 Gerber Fmt 4.6, Leading zero omitted, Abs format (unit mm)*
G04 Created by KiCad (PCBNEW (6.0.7)) date 2025-06-10 03:22:10*
%MOMM*%
%LPD*%
G01*
G04 APERTURE LIST*
%ADD10C,0.300000*%
%ADD11C,0.150000*%
%ADD12C,0.120000*%
G04 APERTURE END LIST*
D10*
X126464285Y-126042500D02*
X125750000Y-126042500D01*
X126607142Y-126471071D02*
X126107142Y-124971071D01*
X125607142Y-126471071D01*
X125250000Y-125471071D02*
X124892857Y-126471071D01*
X124535714Y-125471071D01*
X123321428Y-126471071D02*
X123321428Y-125685357D01*
X123392857Y-125542500D01*
X123535714Y-125471071D01*
X123821428Y-125471071D01*
X123964285Y-125542500D01*
X123321428Y-126399642D02*
X123464285Y-126471071D01*
X123821428Y-126471071D01*
X123964285Y-126399642D01*
X124035714Y-126256785D01*
X124035714Y-126113928D01*
X123964285Y-125971071D01*
X123821428Y-125899642D01*
X123464285Y-125899642D01*
X123321428Y-125828214D01*
X122821428Y-125471071D02*
X122250000Y-125471071D01*
X122607142Y-124971071D02*
X122607142Y-126256785D01*
X122535714Y-126399642D01*
X122392857Y-126471071D01*
X122250000Y-126471071D01*
X121107142Y-126471071D02*
X121107142Y-125685357D01*
X121178571Y-125542500D01*
X121321428Y-125471071D01*
X121607142Y-125471071D01*
X121750000Y-125542500D01*
X121107142Y-126399642D02*
X121250000Y-126471071D01*
X121607142Y-126471071D01*
X121750000Y-126399642D01*
X121821428Y-126256785D01*
X121821428Y-126113928D01*
X121750000Y-125971071D01*
X121607142Y-125899642D01*
X121250000Y-125899642D01*
X121107142Y-125828214D01*
X120392857Y-126471071D02*
X120392857Y-125471071D01*
X120392857Y-125756785D02*
X120321428Y-125613928D01*
X120250000Y-125542500D01*
X120107142Y-125471071D01*
X119964285Y-125471071D01*
X119535714Y-126399642D02*
X119321428Y-126471071D01*
X118964285Y-126471071D01*
X118821428Y-126399642D01*
X118750000Y-126328214D01*
X118678571Y-126185357D01*
X118678571Y-126042500D01*
X118750000Y-125899642D01*
X118821428Y-125828214D01*
X118964285Y-125756785D01*
X119250000Y-125685357D01*
X119392857Y-125613928D01*
X119464285Y-125542500D01*
X119535714Y-125399642D01*
X119535714Y-125256785D01*
X119464285Y-125113928D01*
X119392857Y-125042500D01*
X119250000Y-124971071D01*
X118892857Y-124971071D01*
X118678571Y-125042500D01*
X117464285Y-126399642D02*
X117607142Y-126471071D01*
X117892857Y-126471071D01*
X118035714Y-126399642D01*
X118107142Y-126256785D01*
X118107142Y-125685357D01*
X118035714Y-125542500D01*
X117892857Y-125471071D01*
X117607142Y-125471071D01*
X117464285Y-125542500D01*
X117392857Y-125685357D01*
X117392857Y-125828214D01*
X118107142Y-125971071D01*
X116750000Y-125471071D02*
X116750000Y-126471071D01*
X116750000Y-125613928D02*
X116678571Y-125542500D01*
X116535714Y-125471071D01*
X116321428Y-125471071D01*
X116178571Y-125542500D01*
X116107142Y-125685357D01*
X116107142Y-126471071D01*
X115464285Y-126399642D02*
X115321428Y-126471071D01*
X115035714Y-126471071D01*
X114892857Y-126399642D01*
X114821428Y-126256785D01*
X114821428Y-126185357D01*
X114892857Y-126042500D01*
X115035714Y-125971071D01*
X115250000Y-125971071D01*
X115392857Y-125899642D01*
X115464285Y-125756785D01*
X115464285Y-125685357D01*
X115392857Y-125542500D01*
X115250000Y-125471071D01*
X115035714Y-125471071D01*
X114892857Y-125542500D01*
X113607142Y-126399642D02*
X113750000Y-126471071D01*
X114035714Y-126471071D01*
X114178571Y-126399642D01*
X114250000Y-126256785D01*
X114250000Y-125685357D01*
X114178571Y-125542500D01*
X114035714Y-125471071D01*
X113750000Y-125471071D01*
X113607142Y-125542500D01*
X113535714Y-125685357D01*
X113535714Y-125828214D01*
X114250000Y-125971071D01*
X129714285Y-127457500D02*
X129857142Y-127386071D01*
X130071428Y-127386071D01*
X130285714Y-127457500D01*
X130428571Y-127600357D01*
X130500000Y-127743214D01*
X130571428Y-128028928D01*
X130571428Y-128243214D01*
X130500000Y-128528928D01*
X130428571Y-128671785D01*
X130285714Y-128814642D01*
X130071428Y-128886071D01*
X129928571Y-128886071D01*
X129714285Y-128814642D01*
X129642857Y-128743214D01*
X129642857Y-128243214D01*
X129928571Y-128243214D01*
X129000000Y-128886071D02*
X129000000Y-127886071D01*
X129000000Y-127386071D02*
X129071428Y-127457500D01*
X129000000Y-127528928D01*
X128928571Y-127457500D01*
X129000000Y-127386071D01*
X129000000Y-127528928D01*
X128500000Y-127886071D02*
X127928571Y-127886071D01*
X128285714Y-127386071D02*
X128285714Y-128671785D01*
X128214285Y-128814642D01*
X128071428Y-128886071D01*
X127928571Y-128886071D01*
X127428571Y-128886071D02*
X127428571Y-127386071D01*
X126785714Y-128886071D02*
X126785714Y-128100357D01*
X126857142Y-127957500D01*
X127000000Y-127886071D01*
X127214285Y-127886071D01*
X127357142Y-127957500D01*
X127428571Y-128028928D01*
X125428571Y-127886071D02*
X125428571Y-128886071D01*
X126071428Y-127886071D02*
X126071428Y-128671785D01*
X126000000Y-128814642D01*
X125857142Y-128886071D01*
X125642857Y-128886071D01*
X125500000Y-128814642D01*
X125428571Y-128743214D01*
X124714285Y-128886071D02*
X124714285Y-127386071D01*
X124714285Y-127957500D02*
X124571428Y-127886071D01*
X124285714Y-127886071D01*
X124142857Y-127957500D01*
X124071428Y-128028928D01*
X124000000Y-128171785D01*
X124000000Y-128600357D01*
X124071428Y-128743214D01*
X124142857Y-128814642D01*
X124285714Y-128886071D01*
X124571428Y-128886071D01*
X124714285Y-128814642D01*
X122214285Y-128100357D02*
X121714285Y-128100357D01*
X121500000Y-128886071D02*
X122214285Y-128886071D01*
X122214285Y-127386071D01*
X121500000Y-127386071D01*
X120857142Y-128100357D02*
X120357142Y-128100357D01*
X120142857Y-128886071D02*
X120857142Y-128886071D01*
X120857142Y-127386071D01*
X120142857Y-127386071D01*
X119500000Y-128100357D02*
X119000000Y-128100357D01*
X118785714Y-128886071D02*
X119500000Y-128886071D01*
X119500000Y-127386071D01*
X118785714Y-127386071D01*
X117857142Y-128171785D02*
X117857142Y-128886071D01*
X118357142Y-127386071D02*
X117857142Y-128171785D01*
X117357142Y-127386071D01*
X116285714Y-128814642D02*
X116428571Y-128886071D01*
X116714285Y-128886071D01*
X116857142Y-128814642D01*
X116928571Y-128671785D01*
X116928571Y-128100357D01*
X116857142Y-127957500D01*
X116714285Y-127886071D01*
X116428571Y-127886071D01*
X116285714Y-127957500D01*
X116214285Y-128100357D01*
X116214285Y-128243214D01*
X116928571Y-128386071D01*
X115642857Y-128814642D02*
X115428571Y-128886071D01*
X115071428Y-128886071D01*
X114928571Y-128814642D01*
X114857142Y-128743214D01*
X114785714Y-128600357D01*
X114785714Y-128457500D01*
X114857142Y-128314642D01*
X114928571Y-128243214D01*
X115071428Y-128171785D01*
X115357142Y-128100357D01*
X115500000Y-128028928D01*
X115571428Y-127957500D01*
X115642857Y-127814642D01*
X115642857Y-127671785D01*
X115571428Y-127528928D01*
X115500000Y-127457500D01*
X115357142Y-127386071D01*
X115000000Y-127386071D01*
X114785714Y-127457500D01*
X113571428Y-128814642D02*
X113714285Y-128886071D01*
X114000000Y-128886071D01*
X114142857Y-128814642D01*
X114214285Y-128671785D01*
X114214285Y-128100357D01*
X114142857Y-127957500D01*
X114000000Y-127886071D01*
X113714285Y-127886071D01*
X113571428Y-127957500D01*
X113500000Y-128100357D01*
X113500000Y-128243214D01*
X114214285Y-128386071D01*
X112642857Y-128886071D02*
X112785714Y-128814642D01*
X112857142Y-128743214D01*
X112928571Y-128600357D01*
X112928571Y-128171785D01*
X112857142Y-128028928D01*
X112785714Y-127957500D01*
X112642857Y-127886071D01*
X112428571Y-127886071D01*
X112285714Y-127957500D01*
X112214285Y-128028928D01*
X112142857Y-128171785D01*
X112142857Y-128600357D01*
X112214285Y-128743214D01*
X112285714Y-128814642D01*
X112428571Y-128886071D01*
X112642857Y-128886071D01*
X111500000Y-127886071D02*
X111500000Y-128886071D01*
X111500000Y-128028928D02*
X111428571Y-127957500D01*
X111285714Y-127886071D01*
X111071428Y-127886071D01*
X110928571Y-127957500D01*
X110857142Y-128100357D01*
X110857142Y-128886071D01*
X109500000Y-127886071D02*
X109500000Y-129100357D01*
X109571428Y-129243214D01*
X109642857Y-129314642D01*
X109785714Y-129386071D01*
X110000000Y-129386071D01*
X110142857Y-129314642D01*
X109500000Y-128814642D02*
X109642857Y-128886071D01*
X109928571Y-128886071D01*
X110071428Y-128814642D01*
X110142857Y-128743214D01*
X110214285Y-128600357D01*
X110214285Y-128171785D01*
X110142857Y-128028928D01*
X110071428Y-127957500D01*
X109928571Y-127886071D01*
X109642857Y-127886071D01*
X109500000Y-127957500D01*
D11*
%TO.C,U2*%
X132412380Y-119548095D02*
X133221904Y-119548095D01*
X133317142Y-119595714D01*
X133364761Y-119643333D01*
X133412380Y-119738571D01*
X133412380Y-119929047D01*
X133364761Y-120024285D01*
X133317142Y-120071904D01*
X133221904Y-120119523D01*
X132412380Y-120119523D01*
X132507619Y-120548095D02*
X132460000Y-120595714D01*
X132412380Y-120690952D01*
X132412380Y-120929047D01*
X132460000Y-121024285D01*
X132507619Y-121071904D01*
X132602857Y-121119523D01*
X132698095Y-121119523D01*
X132840952Y-121071904D01*
X133412380Y-120500476D01*
X133412380Y-121119523D01*
%TO.C,R3*%
X107666666Y-103282380D02*
X108000000Y-102806190D01*
X108238095Y-103282380D02*
X108238095Y-102282380D01*
X107857142Y-102282380D01*
X107761904Y-102330000D01*
X107714285Y-102377619D01*
X107666666Y-102472857D01*
X107666666Y-102615714D01*
X107714285Y-102710952D01*
X107761904Y-102758571D01*
X107857142Y-102806190D01*
X108238095Y-102806190D01*
X107333333Y-102282380D02*
X106714285Y-102282380D01*
X107047619Y-102663333D01*
X106904761Y-102663333D01*
X106809523Y-102710952D01*
X106761904Y-102758571D01*
X106714285Y-102853809D01*
X106714285Y-103091904D01*
X106761904Y-103187142D01*
X106809523Y-103234761D01*
X106904761Y-103282380D01*
X107190476Y-103282380D01*
X107285714Y-103234761D01*
X107333333Y-103187142D01*
%TO.C,R1*%
X128872380Y-120073333D02*
X128396190Y-119740000D01*
X128872380Y-119501904D02*
X127872380Y-119501904D01*
X127872380Y-119882857D01*
X127920000Y-119978095D01*
X127967619Y-120025714D01*
X128062857Y-120073333D01*
X128205714Y-120073333D01*
X128300952Y-120025714D01*
X128348571Y-119978095D01*
X128396190Y-119882857D01*
X128396190Y-119501904D01*
X128872380Y-121025714D02*
X128872380Y-120454285D01*
X128872380Y-120740000D02*
X127872380Y-120740000D01*
X128015238Y-120644761D01*
X128110476Y-120549523D01*
X128158095Y-120454285D01*
%TO.C,R8*%
X111676666Y-119872380D02*
X112010000Y-119396190D01*
X112248095Y-119872380D02*
X112248095Y-118872380D01*
X111867142Y-118872380D01*
X111771904Y-118920000D01*
X111724285Y-118967619D01*
X111676666Y-119062857D01*
X111676666Y-119205714D01*
X111724285Y-119300952D01*
X111771904Y-119348571D01*
X111867142Y-119396190D01*
X112248095Y-119396190D01*
X111105238Y-119300952D02*
X111200476Y-119253333D01*
X111248095Y-119205714D01*
X111295714Y-119110476D01*
X111295714Y-119062857D01*
X111248095Y-118967619D01*
X111200476Y-118920000D01*
X111105238Y-118872380D01*
X110914761Y-118872380D01*
X110819523Y-118920000D01*
X110771904Y-118967619D01*
X110724285Y-119062857D01*
X110724285Y-119110476D01*
X110771904Y-119205714D01*
X110819523Y-119253333D01*
X110914761Y-119300952D01*
X111105238Y-119300952D01*
X111200476Y-119348571D01*
X111248095Y-119396190D01*
X111295714Y-119491428D01*
X111295714Y-119681904D01*
X111248095Y-119777142D01*
X111200476Y-119824761D01*
X111105238Y-119872380D01*
X110914761Y-119872380D01*
X110819523Y-119824761D01*
X110771904Y-119777142D01*
X110724285Y-119681904D01*
X110724285Y-119491428D01*
X110771904Y-119396190D01*
X110819523Y-119348571D01*
X110914761Y-119300952D01*
%TO.C,R7*%
X108676666Y-117532380D02*
X109010000Y-117056190D01*
X109248095Y-117532380D02*
X109248095Y-116532380D01*
X108867142Y-116532380D01*
X108771904Y-116580000D01*
X108724285Y-116627619D01*
X108676666Y-116722857D01*
X108676666Y-116865714D01*
X108724285Y-116960952D01*
X108771904Y-117008571D01*
X108867142Y-117056190D01*
X109248095Y-117056190D01*
X108343333Y-116532380D02*
X107676666Y-116532380D01*
X108105238Y-117532380D01*
%TO.C,SW2*%
X114333333Y-105654761D02*
X114190476Y-105702380D01*
X113952380Y-105702380D01*
X113857142Y-105654761D01*
X113809523Y-105607142D01*
X113761904Y-105511904D01*
X113761904Y-105416666D01*
X113809523Y-105321428D01*
X113857142Y-105273809D01*
X113952380Y-105226190D01*
X114142857Y-105178571D01*
X114238095Y-105130952D01*
X114285714Y-105083333D01*
X114333333Y-104988095D01*
X114333333Y-104892857D01*
X114285714Y-104797619D01*
X114238095Y-104750000D01*
X114142857Y-104702380D01*
X113904761Y-104702380D01*
X113761904Y-104750000D01*
X113428571Y-104702380D02*
X113190476Y-105702380D01*
X113000000Y-104988095D01*
X112809523Y-105702380D01*
X112571428Y-104702380D01*
X112238095Y-104797619D02*
X112190476Y-104750000D01*
X112095238Y-104702380D01*
X111857142Y-104702380D01*
X111761904Y-104750000D01*
X111714285Y-104797619D01*
X111666666Y-104892857D01*
X111666666Y-104988095D01*
X111714285Y-105130952D01*
X112285714Y-105702380D01*
X111666666Y-105702380D01*
%TO.C,SW1*%
X128708333Y-125079761D02*
X128565476Y-125127380D01*
X128327380Y-125127380D01*
X128232142Y-125079761D01*
X128184523Y-125032142D01*
X128136904Y-124936904D01*
X128136904Y-124841666D01*
X128184523Y-124746428D01*
X128232142Y-124698809D01*
X128327380Y-124651190D01*
X128517857Y-124603571D01*
X128613095Y-124555952D01*
X128660714Y-124508333D01*
X128708333Y-124413095D01*
X128708333Y-124317857D01*
X128660714Y-124222619D01*
X128613095Y-124175000D01*
X128517857Y-124127380D01*
X128279761Y-124127380D01*
X128136904Y-124175000D01*
X127803571Y-124127380D02*
X127565476Y-125127380D01*
X127375000Y-124413095D01*
X127184523Y-125127380D01*
X126946428Y-124127380D01*
X126041666Y-125127380D02*
X126613095Y-125127380D01*
X126327380Y-125127380D02*
X126327380Y-124127380D01*
X126422619Y-124270238D01*
X126517857Y-124365476D01*
X126613095Y-124413095D01*
%TO.C,C4*%
X104916666Y-101857142D02*
X104964285Y-101904761D01*
X105107142Y-101952380D01*
X105202380Y-101952380D01*
X105345238Y-101904761D01*
X105440476Y-101809523D01*
X105488095Y-101714285D01*
X105535714Y-101523809D01*
X105535714Y-101380952D01*
X105488095Y-101190476D01*
X105440476Y-101095238D01*
X105345238Y-101000000D01*
X105202380Y-100952380D01*
X105107142Y-100952380D01*
X104964285Y-101000000D01*
X104916666Y-101047619D01*
X104059523Y-101285714D02*
X104059523Y-101952380D01*
X104297619Y-100904761D02*
X104535714Y-101619047D01*
X103916666Y-101619047D01*
%TO.C,U1*%
X109736904Y-104857380D02*
X109736904Y-105666904D01*
X109689285Y-105762142D01*
X109641666Y-105809761D01*
X109546428Y-105857380D01*
X109355952Y-105857380D01*
X109260714Y-105809761D01*
X109213095Y-105762142D01*
X109165476Y-105666904D01*
X109165476Y-104857380D01*
X108165476Y-105857380D02*
X108736904Y-105857380D01*
X108451190Y-105857380D02*
X108451190Y-104857380D01*
X108546428Y-105000238D01*
X108641666Y-105095476D01*
X108736904Y-105143095D01*
D12*
%TO.C,U2*%
X115580000Y-101630000D02*
X115580000Y-103750000D01*
X116200000Y-101630000D02*
X115580000Y-101630000D01*
X139820000Y-101630000D02*
X132200000Y-101630000D01*
X139820000Y-117870000D02*
X139820000Y-101630000D01*
X132200000Y-117870000D02*
X139820000Y-117870000D01*
X132200000Y-117870000D02*
X132200000Y-118480000D01*
X115580000Y-117870000D02*
X116200000Y-117870000D01*
X115580000Y-115750000D02*
X115580000Y-117870000D01*
%TO.C,R3*%
X107653641Y-104380000D02*
X107346359Y-104380000D01*
X107653641Y-103620000D02*
X107346359Y-103620000D01*
%TO.C,R1*%
X127630000Y-120393641D02*
X127630000Y-120086359D01*
X126870000Y-120393641D02*
X126870000Y-120086359D01*
%TO.C,R8*%
X111356359Y-118630000D02*
X111663641Y-118630000D01*
X111356359Y-117870000D02*
X111663641Y-117870000D01*
%TO.C,R7*%
X108663641Y-117870000D02*
X108356359Y-117870000D01*
X108663641Y-118630000D02*
X108356359Y-118630000D01*
%TO.C,SW2*%
X109300000Y-102550000D02*
X109300000Y-102450000D01*
X109300000Y-100950000D02*
X113700000Y-100950000D01*
X113700000Y-102550000D02*
X113700000Y-102450000D01*
X113700000Y-104050000D02*
X109300000Y-104050000D01*
%TO.C,SW1*%
X130825000Y-127805000D02*
X130825000Y-128595000D01*
X123925000Y-128595000D02*
X123925000Y-127805000D01*
X127475000Y-130895000D02*
X127475000Y-129605000D01*
X128575000Y-131105000D02*
X127675000Y-131105000D01*
X127475000Y-130895000D02*
X127675000Y-131105000D01*
X128775000Y-129605000D02*
X128775000Y-130895000D01*
X128775000Y-130895000D02*
X128575000Y-131105000D01*
X128975000Y-126755000D02*
X127275000Y-126755000D01*
X125975000Y-126755000D02*
X125775000Y-126755000D01*
X130225000Y-129605000D02*
X124525000Y-129605000D01*
%TO.C,C4*%
X107607836Y-100890000D02*
X107392164Y-100890000D01*
X107607836Y-101610000D02*
X107392164Y-101610000D01*
%TO.C,U1*%
X108975000Y-116365000D02*
X110925000Y-116365000D01*
X108975000Y-106245000D02*
X107025000Y-106245000D01*
X108975000Y-116365000D02*
X107025000Y-116365000D01*
X108975000Y-106245000D02*
X112425000Y-106245000D01*
%TD*%
M02*
